<?xml version="1.0" encoding="UTF-8"?>
<svg version="1.1" xmlns="http://www.w3.org/2000/svg" width="2048" height="2048">
<path d="M0 0 C595.98 0 1191.96 0 1806 0 C1806 6.17885061 1805.94470508 12.08294684 1805.37898445 18.19154072 C1805.31166442 18.9576789 1805.2443444 19.72381709 1805.17498437 20.51317159 C1804.94946548 23.06738444 1804.71766586 25.62098653 1804.48587036 28.17463684 C1804.3197209 30.04139126 1804.15396094 31.90818039 1803.98855335 33.77500069 C1803.5311665 38.92428032 1803.06824268 44.07304957 1802.60444514 49.22175519 C1802.09902426 54.84355341 1801.59877157 60.46581189 1801.0978632 66.08801365 C1800.21367081 76.00415156 1799.32617326 85.91998944 1798.43657494 95.83564377 C1797.47294387 106.57672078 1796.51127197 117.31796998 1795.55199623 128.0594368 C1795.49101204 128.7422948 1795.43002785 129.4251528 1795.36719565 130.12870347 C1795.05565109 133.61727133 1794.74414 137.10584218 1794.43264165 140.59441417 C1792.15156075 166.14031533 1789.86622829 191.68583475 1787.5788269 217.23117065 C1785.26623763 243.0580666 1782.95561052 268.88513702 1780.64749146 294.71243286 C1780.53866142 295.93020615 1780.53866142 295.93020615 1780.42763279 297.17258091 C1779.5376149 307.13165543 1778.64767914 317.09073729 1777.75776934 327.04982147 C1776.37960985 342.4729003 1775.00126874 357.8959629 1773.62290054 373.31902308 C1773.46655328 375.06845185 1773.31020679 376.8178807 1773.15386105 378.56730961 C1770.72906913 405.69949058 1768.30336315 432.83158972 1765.87701883 459.9636319 C1756.73312167 562.21348076 1747.59923828 664.46422019 1735.17383594 803.68749406 C1734.16674717 814.97204953 1733.15963303 826.25660274 1732.15251792 837.54115586 C1728.91427406 873.82514906 1725.67608958 910.10914756 1722.43801208 946.39315561 C1716.98499832 1007.49643504 1711.53151182 1068.59967225 1706.07727958 1129.70284293 C1705.79529684 1132.86186512 1705.51331474 1136.02088736 1705.23133266 1139.1799096 C1701.06301694 1185.87715016 1696.89436395 1232.5743606 1692.72500142 1279.27150771 C1692.45075731 1282.34306173 1692.17651406 1285.41461584 1691.90227103 1288.48616996 C1690.25145772 1306.97546589 1688.60063851 1325.46476131 1686.94975948 1343.95405138 C1682.39943822 1394.91621196 1677.85050669 1445.87849631 1673.3034208 1496.84094568 C1670.94926143 1523.22569299 1668.59496193 1549.61042777 1666.2398653 1575.99509144 C1666.13574226 1577.16160564 1666.03161923 1578.32811985 1665.92434095 1579.52998297 C1664.88203625 1591.20709052 1663.83968396 1602.88419383 1662.79727099 1614.56129172 C1662.28302976 1620.32183108 1661.7688007 1626.08237152 1661.25457954 1631.84291267 C1661.15340312 1632.97633517 1661.0522267 1634.10975767 1660.94798433 1635.2775263 C1659.33288184 1653.37093697 1657.7187535 1671.46443441 1656.10501613 1689.55796688 C1654.50058026 1707.54699513 1652.89513289 1725.53593287 1651.28863735 1743.52477731 C1650.33376765 1754.21736247 1649.37970179 1764.91001866 1648.42676402 1775.60277617 C1647.78945393 1782.75305609 1647.15112078 1789.90324419 1646.51194883 1797.05335791 C1646.14749921 1801.13061938 1645.78350278 1805.20791994 1645.42075371 1809.28533309 C1645.09085678 1812.99338145 1644.75965576 1816.70131093 1644.42741313 1820.40914982 C1644.25192368 1822.37140744 1644.07782706 1824.33378948 1643.90378661 1826.29617614 C1643.37214201 1832.21469391 1642.78866954 1838.10998022 1642 1844 C1641.10991241 1844.24515854 1640.21982483 1844.49031708 1639.30276489 1844.74290466 C1596.33591941 1856.57800346 1553.37574838 1868.4365236 1510.4375 1880.375 C1480.25643243 1888.76644224 1450.06959206 1897.13662678 1419.87601089 1905.48293686 C1391.49650678 1913.3278236 1363.11874906 1921.17879949 1334.75 1929.0625 C1334.0372995 1929.26055111 1333.324599 1929.45860222 1332.59030151 1929.66265488 C1322.9890014 1932.33077664 1313.38796475 1934.99984583 1303.7869873 1937.66912842 C1287.64997353 1942.15555369 1271.51267703 1946.64096101 1255.375 1951.125 C1254.43462387 1951.38630329 1253.49424774 1951.64760658 1252.52537537 1951.91682816 C1221.37204465 1960.57321958 1190.21114758 1969.2020235 1159.04619598 1977.81647491 C1128.43681937 1986.27738183 1097.83419214 1994.76222257 1067.23726273 2003.26802826 C1033.15027648 2012.74398329 999.05394674 2022.18590046 964.95197105 2031.60776901 C962.08450592 2032.40009236 959.21713231 2033.19274632 956.34976196 2033.9854126 C952.73496282 2034.98459049 949.11967523 2035.98197158 945.5039978 2036.97796631 C938.01195564 2039.04382657 930.52626791 2041.12424058 923.06298828 2043.29199219 C921.90110489 2043.62713837 920.7392215 2043.96228455 919.54212952 2044.30758667 C917.49306116 2044.90127089 915.44637375 2045.5032852 913.40306091 2046.1164856 C912.52440872 2046.3705014 911.64575653 2046.62451721 910.74047852 2046.88623047 C910.00829605 2047.10391083 909.27611359 2047.32159119 908.52174377 2047.54586792 C902.08148014 2048.70567264 896.47717499 2047.90324828 890.25830078 2046.10180664 C889.15358995 2045.79542975 889.15358995 2045.79542975 888.02656174 2045.48286343 C885.57996809 2044.80170643 883.13778151 2044.10594509 880.6953125 2043.41015625 C878.93793174 2042.91781712 877.18028485 2042.42642711 875.4223938 2041.93591309 C871.64223421 2040.87902902 867.86396334 2039.81572236 864.08703613 2038.74734497 C858.03453113 2037.03537299 851.97805568 2035.33776084 845.92089844 2033.64233398 C838.53088338 2031.57287236 831.141794 2029.50016725 823.75391388 2027.42309666 C805.43791308 2022.27399889 787.10644171 2017.1810703 768.77285767 2012.09500122 C763.19348165 2010.54706451 757.61465142 2008.99716674 752.03588867 2007.44702148 C726.15463107 2000.25629225 700.265985 1993.09246575 674.375 1985.9368515 C641.32436679 1976.80248344 608.28237503 1967.63768359 575.25 1958.4375 C574.24365635 1958.15721703 573.2373127 1957.87693405 572.20047379 1957.58815765 C567.13286997 1956.17673188 562.06528139 1954.76525142 556.99769592 1953.35375977 C555.99832567 1953.07540283 554.99895542 1952.7970459 553.96930122 1952.51025391 C551.95458288 1951.94908536 549.93986705 1951.3879078 547.92515373 1950.82672119 C525.66098693 1944.62529709 503.39363982 1938.43534088 481.125 1932.25 C479.73241219 1931.86318117 479.73241219 1931.86318117 478.31169128 1931.46854782 C449.00214001 1923.32737283 419.68866565 1915.20040316 390.37338257 1907.07989502 C359.6721657 1898.57537403 328.97549584 1890.05454745 298.28125 1881.52490234 C296.8968658 1881.14019744 296.8968658 1881.14019744 295.48451424 1880.74772072 C294.55957602 1880.49069059 293.63463779 1880.23366047 292.68167114 1879.96884155 C291.29125296 1879.5824608 291.29125296 1879.5824608 289.87274551 1879.18827438 C287.99612337 1878.66678002 286.11950339 1878.14527784 284.24288559 1877.62376785 C270.1110699 1873.69663656 255.9781601 1869.77346037 241.84468269 1865.852314 C235.58877953 1864.11658001 229.33302941 1862.38029453 223.077281 1860.64400291 C217.10504038 1858.98646846 211.13255763 1857.32981013 205.1598959 1855.67379379 C201.47168377 1854.65093957 197.7837131 1853.62721693 194.09580803 1852.60325623 C192.39274144 1852.13058505 190.68957522 1851.65827265 188.98629951 1851.18635559 C180.63258138 1848.87166133 172.28866817 1846.54023573 164 1844 C162.40374606 1832.01357955 161.20845343 1820.01932578 160.14683533 1807.97535706 C159.96902881 1805.98247133 159.79097109 1803.989608 159.61268747 1801.9967649 C159.12449746 1796.53168608 158.63984954 1791.06629815 158.15578736 1785.60085239 C157.62678185 1779.63523387 157.09443316 1773.66991354 156.56251049 1767.70455456 C155.62846875 1757.22442268 154.69651737 1746.74410635 153.76596451 1736.26366425 C152.76384643 1724.97738261 151.7604266 1713.69121777 150.75545883 1702.40518951 C150.69171844 1701.68936372 150.62797805 1700.97353793 150.56230614 1700.23602045 C150.23695333 1696.58227795 149.91157791 1692.92853745 149.58619326 1689.27479778 C147.29106797 1663.50248779 144.99835742 1637.72996349 142.70709392 1611.95730991 C140.2569441 1584.39746944 137.80557483 1556.8377379 135.35238647 1529.27816772 C135.27770194 1528.43914585 135.20301741 1527.60012398 135.12606971 1526.7356772 C134.13557934 1515.60836121 133.14501152 1504.48105211 132.15442173 1493.35374497 C130.98646672 1480.23407135 129.81857321 1467.11439227 128.65067236 1453.99471383 C128.25564881 1449.55719562 127.86062324 1445.11967759 127.46559308 1440.68215997 C125.27971878 1416.12741013 123.09425216 1391.57262404 120.90911906 1367.01780824 C112.48738079 1272.3809626 104.05791813 1177.74480856 91.4609375 1036.484375 C91.28744884 1034.53905829 91.11396018 1032.59374158 90.94047153 1030.64842486 C87.90234919 996.58220951 84.86411326 962.51600428 81.82573559 928.4498117 C76.90201598 873.24520674 71.97953795 818.0404912 67.05819136 762.83567464 C66.54561449 757.08588682 66.03303206 751.33609949 65.52044821 745.58631229 C65.35003448 743.67473653 65.17962075 741.76316077 65.00920703 739.851585 C64.92493543 738.90628827 64.84066384 737.96099153 64.75383856 736.98704944 C63.39995818 721.80020596 62.04608643 706.6133617 60.69221742 691.42651721 C60.4402027 688.59957623 60.18818779 685.77263526 59.93617286 682.9456943 C59.18384849 674.50660127 58.431526 666.06750807 57.67921134 657.62841417 C55.30158167 630.95734164 52.9238553 604.28627774 50.54589844 577.61523438 C50.46616834 576.72098398 50.38643825 575.82673359 50.30429209 574.9053847 C45.02435557 515.68595607 39.73988273 456.46693336 34.4523366 397.24818372 C33.82572553 390.23034191 33.19912251 383.21249939 32.57252502 376.19465637 C32.50432409 375.4308148 32.43612316 374.66697322 32.36585553 373.87998493 C30.30602352 350.8100598 28.24706507 327.74005687 26.18907166 304.66996765 C26.12571444 303.95973902 26.06235722 303.2495104 25.99708008 302.51775969 C24.74747695 288.50978999 23.49798818 274.50181009 22.2487244 260.49381013 C21.58572725 253.05962107 20.92268983 245.62543561 20.25961304 238.19125366 C20.20070321 237.53076995 20.14179339 236.87028623 20.08109842 236.18978786 C18.16122392 214.66483573 16.23828679 193.14015846 14.31383479 171.61561514 C12.49662037 151.28994013 10.68242413 130.96399773 8.87157822 110.63775432 C7.82002729 98.83550994 6.76603736 87.03348952 5.70840815 75.23178824 C5.01250852 67.46386371 4.31976513 59.69566204 3.62967035 51.92721967 C3.23927821 47.53358385 2.84749443 43.14008458 2.45178664 38.74692404 C2.09359939 34.770062 1.7394797 30.79285955 1.38861166 26.81534526 C1.26227526 25.39128597 1.13446281 23.96735664 1.00497235 22.54358068 C0.82919965 20.60853724 0.65946949 18.67294783 0.48998165 16.73734379 C0.39459258 15.6690726 0.29920351 14.60080141 0.20092386 13.50015837 C-0.05700215 9.00700415 0 4.50055116 0 0 Z " fill="#264DE4" transform="translate(121,0)"/>
<path d="M0 0 C373.56 0 747.12 0 1132 0 C1132 6.53639716 1131.98499233 12.53133179 1131.37670898 18.94970703 C1131.27629854 20.03249923 1131.27629854 20.03249923 1131.1738596 21.13716602 C1130.95261698 23.51118027 1130.72430717 25.88445913 1130.49609375 28.2578125 C1130.33550756 29.96939892 1130.17544675 31.6810347 1130.01586914 33.39271545 C1129.67376993 37.05400533 1129.32884993 40.71501346 1128.98165894 44.37582397 C1128.04788058 54.22721519 1127.13393627 64.08046123 1126.21875 73.93359375 C1126.07812543 75.44512118 1126.07812543 75.44512118 1125.93465996 76.98718452 C1124.08499058 96.88075323 1122.34824658 116.78305088 1120.65053177 136.69008636 C1118.29929313 164.2541228 1115.84604108 191.80633008 1113.28104782 219.35128403 C1110.9187423 244.72583784 1108.67234688 270.10849928 1106.5 295.5 C1104.2156727 322.19623033 1101.84916249 348.8831735 1099.375 375.5625 C1099.22557431 377.17446886 1099.07615008 378.78643785 1098.92672729 380.39840698 C1098.63261826 383.57069813 1098.33845894 386.7429846 1098.04426575 389.91526794 C1097.97287699 390.68507933 1097.90148823 391.45489071 1097.82793617 392.24802971 C1097.68528315 393.78615513 1097.5426022 395.32427796 1097.39989281 396.86239815 C1096.09520412 410.92682461 1094.8162825 424.99343557 1093.5625 439.0625 C1093.46690796 440.13456696 1093.37131592 441.20663391 1093.27282715 442.31118774 C1091.96986532 456.94077046 1090.68608934 471.57202068 1089.40587616 486.20360756 C1088.7326296 493.89753512 1088.05879129 501.59141087 1087.38472748 509.28526688 C1087.21154045 511.26215943 1087.03838881 513.23905508 1086.86527252 515.21595383 C1084.39103037 543.46738173 1081.84821796 571.71136635 1079.22130203 599.94898605 C1076.82275113 625.73828151 1074.55243956 651.53676466 1072.34614182 677.3431778 C1069.92516726 705.65386137 1067.37112669 733.95035121 1064.74546051 762.24274445 C1062.21178896 789.54970507 1059.77327641 816.8629062 1057.4375 844.1875 C1055.15231477 870.92026338 1052.76815659 897.64151103 1050.2806015 924.35619354 C1047.86230501 950.33376905 1045.57050604 976.32020072 1043.34857559 1002.31526947 C1040.58729208 1034.61048885 1037.65779012 1066.8888539 1034.66430664 1099.16333008 C1034.42104532 1101.78639167 1034.17778898 1104.40945372 1033.93456078 1107.03251839 C1033.77896229 1108.71040364 1033.62331458 1110.38828432 1033.46761513 1112.0661602 C1032.26429198 1125.04008519 1031.10127876 1138.01696269 1030 1151 C1025.53920812 1152.7007811 1021.11541539 1154.34254537 1016.53125 1155.68359375 C1015.55623535 1155.96928223 1014.5812207 1156.2549707 1013.57666016 1156.54931641 C1012.5613623 1156.84241699 1011.54606445 1157.13551758 1010.5 1157.4375 C1009.43700684 1157.74606934 1008.37401367 1158.05463867 1007.27880859 1158.37255859 C1000.16606251 1160.4203142 993.03648654 1162.29679821 985.84375 1164.04296875 C979.28511266 1165.6759628 972.78778194 1167.5277242 966.28222656 1169.35888672 C962.52390951 1170.414657 958.76179211 1171.45669367 955 1172.5 C953.49998134 1172.91659949 951.99998135 1173.33326619 950.5 1173.75 C923.50000001 1181.25 923.50000001 1181.25 921.25146484 1181.87451172 C919.74652608 1182.29260466 918.24164354 1182.7109 916.73681641 1183.12939453 C913.06280567 1184.15087905 909.38799244 1185.16921195 905.7109375 1186.1796875 C897.0736261 1188.55851687 888.46875023 1191.0305447 879.875 1193.5625 C871.94669302 1195.8963605 864.01766679 1198.03099962 855.984375 1199.97265625 C850.40279078 1201.36805231 844.92078882 1203.1061236 839.42089844 1204.78930664 C833.66580523 1206.5371375 827.90262594 1208.06241015 822.05395508 1209.4675293 C816.87152966 1210.73346038 811.78541937 1212.24328399 806.6875 1213.8125 C797.53300522 1216.62485263 788.29456361 1219.02476922 779.01513672 1221.38720703 C771.23301898 1223.38270678 763.54067869 1225.57818822 755.86328125 1227.94140625 C750.29748396 1229.64410081 744.70926978 1231.10869714 739.05126953 1232.46826172 C733.8697054 1233.73378135 728.78452101 1235.24356052 723.6875 1236.8125 C714.53300522 1239.62485263 705.29456361 1242.02476922 696.01513672 1244.38720703 C688.23301898 1246.38270678 680.54067869 1248.57818822 672.86328125 1250.94140625 C667.29748396 1252.64410081 661.70926978 1254.10869714 656.05126953 1255.46826172 C650.8697054 1256.73378135 645.78452101 1258.24356052 640.6875 1259.8125 C631.53169414 1262.6252554 622.29225037 1265.02721537 613.01074219 1267.38720703 C606.09579017 1269.15858757 599.25717229 1271.08125618 592.4375 1273.1875 C590.05264521 1273.89854225 587.66629926 1274.60430992 585.27929688 1275.30810547 C583.7716117 1275.76577254 582.26992382 1276.24373263 580.77539062 1276.74267578 C566.56883119 1281.46241053 555.96064207 1278.515339 542 1274 C539.36366703 1273.19786452 536.72297367 1272.41161946 534.08154297 1271.62646484 C532.4082752 1271.12730627 530.73669338 1270.62245926 529.06689453 1270.11181641 C524.07519692 1268.58721419 519.0745216 1267.2189084 514 1266 C507.05604262 1264.32001031 500.25213416 1262.30141076 493.421875 1260.2109375 C488.30751155 1258.65780259 483.19520222 1257.25690376 478 1256 C471.92989596 1254.53142644 465.97137123 1252.82747474 460 1251 C454.11098949 1249.19872753 448.23636389 1247.5094116 442.25 1246.0625 C435.58168367 1244.44736006 429.01571272 1242.57355627 422.4375 1240.625 C413.29252384 1237.91656011 404.11134534 1235.42683741 394.87280273 1233.05908203 C389.03302237 1231.55455171 383.28133177 1229.88680143 377.53515625 1228.0546875 C372.70238004 1226.61286476 367.82249689 1225.37649843 362.9375 1224.125 C354.58033381 1221.98283436 346.31543298 1219.63967573 338.06811523 1217.10986328 C333.07499714 1215.58958851 328.07470263 1214.21895189 323 1213 C316.05604262 1211.32001031 309.25213416 1209.30141076 302.421875 1207.2109375 C297.30751155 1205.65780259 292.19520222 1204.25690376 287 1203 C280.05604262 1201.32001031 273.25213416 1199.30141076 266.421875 1197.2109375 C261.30751155 1195.65780259 256.19520222 1194.25690376 251 1193 C244.05604262 1191.32001031 237.25213416 1189.30141076 230.421875 1187.2109375 C225.30751155 1185.65780259 220.19520222 1184.25690376 215 1183 C208.05604262 1181.32001031 201.25213416 1179.30141076 194.421875 1177.2109375 C189.30751155 1175.65780259 184.19520222 1174.25690376 179 1173 C172.05604262 1171.32001031 165.25213416 1169.30141076 158.421875 1167.2109375 C152.0365186 1165.2718262 145.62737235 1163.63556882 139.140625 1162.06640625 C133.42818069 1160.63829517 127.81436736 1158.87360765 122.18457031 1157.15380859 C115.83179392 1155.22213724 109.46375491 1153.52349538 103 1152 C101.68025222 1142.0011738 100.570722 1132.00701803 99.73559189 1121.95467949 C99.54624668 1119.67575137 99.35288218 1117.39719032 99.15872192 1115.1186676 C98.87613323 1111.79798601 98.59513398 1108.47717579 98.31542969 1105.15625 C97.55049464 1096.08122214 96.77231884 1087.00732624 95.9921875 1077.93359375 C95.9112661 1076.99181149 95.8303447 1076.05002922 95.74697113 1075.0797081 C94.0007844 1054.78451828 92.13686187 1034.50074294 90.25251007 1014.21798706 C87.48946992 984.47696587 84.82637573 954.72987462 82.28956223 924.96870422 C80.52769799 904.3015725 78.70998434 883.64094144 76.78515625 862.98828125 C76.69212093 861.9900276 76.59908562 860.99177395 76.50323105 859.96327019 C75.59224595 850.1979184 74.67535316 840.43313399 73.75066471 830.66907024 C73.41311315 827.10187479 73.07715073 823.53453054 72.74136162 819.96716881 C72.50973789 817.51486713 72.27545291 815.06282957 72.04103088 812.61079407 C71.9016543 811.13279423 71.76240024 809.65478284 71.62329102 808.17675781 C71.50228531 806.9043927 71.3812796 805.63202759 71.25660706 804.32110596 C71.04046289 801.52368607 70.9803961 798.80214132 71 796 C99.90143462 795.97720984 128.80286819 795.95950193 157.70431003 795.94893467 C161.11285058 795.9476839 164.52139111 795.94638958 167.92993164 795.94506836 C168.60853888 795.94480605 169.28714613 795.94454374 169.98631722 795.94427348 C180.98843919 795.93991675 191.99055595 795.93202919 202.99267482 795.9228472 C214.27359296 795.91351075 225.55450849 795.90801931 236.83543068 795.90591151 C243.17522414 795.90460397 249.51500578 795.90151544 255.85479546 795.89426994 C261.81445628 795.88751367 267.77410036 795.88538223 273.73376465 795.88689232 C275.92803602 795.88661581 278.12230793 795.88460837 280.316576 795.88079453 C283.29838756 795.87586341 286.28013478 795.87699955 289.26194763 795.87974548 C290.14228005 795.87683264 291.02261248 795.8739198 291.92962164 795.87091869 C297.88587879 795.88587879 297.88587879 795.88587879 299 797 C299.20905709 798.4211151 299.35598731 799.85143659 299.47729492 801.28271484 C299.55819366 802.21020538 299.63909241 803.13769592 299.72244263 804.09329224 C299.80759125 805.12211517 299.89273987 806.15093811 299.98046875 807.2109375 C300.07367401 808.29204803 300.16687927 809.37315857 300.26290894 810.48703003 C300.46695211 812.85922793 300.66893779 815.23160346 300.86917114 817.60412598 C301.35962024 823.41390957 301.86221294 829.22264076 302.36336327 835.0315094 C302.54127292 837.09596212 302.71860577 839.16046377 302.89582825 841.22497559 C304.12061577 855.47901297 305.39710404 869.72831898 306.67855835 883.97735596 C307.06208445 888.24309469 307.44390038 892.50898549 307.82543945 896.77490234 C308.86314851 908.37268772 309.9025241 919.97027547 310.96733093 931.56561279 C311.35139709 935.75165269 311.73206327 939.93799804 312.11227417 944.12438965 C312.28437676 946.00810241 312.4582409 947.89165525 312.63406372 949.77502441 C313.48264653 958.86554191 314.30049878 967.85661842 314 977 C314.82113281 977.12117188 315.64226562 977.24234375 316.48828125 977.3671875 C320.45071062 978.08121815 324.30440887 979.07577463 328.1875 980.125 C329.88133357 980.57748544 331.57535544 981.02926639 333.26953125 981.48046875 C334.18557129 981.72458496 335.10161133 981.96870117 336.04541016 982.22021484 C339.19751241 983.05212813 342.35385099 983.86603591 345.51171875 984.67578125 C356.63090525 987.52802142 367.71309243 990.44585464 378.73266602 993.66210938 C387.21648694 996.11293737 395.77287852 998.27333497 404.32974243 1000.45083618 C414.06511828 1002.93282503 423.72033987 1005.62033168 433.34814453 1008.49365234 C441.25443001 1010.83303541 449.21980673 1012.84829908 457.22802734 1014.80566406 C463.55034304 1016.36024747 469.81410103 1018.04688719 476.0625 1019.875 C484.76497322 1022.42046077 493.52636499 1024.70211635 502.3125 1026.9375 C511.84021692 1029.36304981 521.32168855 1031.89483753 530.75 1034.6875 C541.5733236 1037.88378599 541.5733236 1037.88378599 552.4375 1040.9375 C553.17645508 1041.14914795 553.91541016 1041.3607959 554.67675781 1041.57885742 C563.38803892 1043.92228382 570.87345866 1043.13845088 579.5 1040.8125 C580.36947266 1040.58691406 581.23894531 1040.36132812 582.13476562 1040.12890625 C588.31948224 1038.50491064 594.45234379 1036.72211382 600.57324219 1034.87402344 C605.92835304 1033.27172643 611.32038385 1031.88823831 616.75 1030.5625 C623.71576734 1028.86143162 630.61541552 1027.00438885 637.5 1025 C645.21392098 1022.75415681 652.95738455 1020.72978713 660.76171875 1018.82421875 C666.75501576 1017.34719769 672.66009055 1015.66131413 678.56738281 1013.87475586 C684.84802303 1011.99628948 691.19152009 1010.4303157 697.55859375 1008.875 C702.91894656 1007.55349546 708.21592998 1006.09820643 713.5 1004.5 C720.46811394 1002.39244191 727.48756908 1000.6022732 734.55859375 998.875 C739.91894656 997.55349546 745.21592998 996.09820643 750.5 994.5 C757.46811394 992.39244191 764.48756908 990.6022732 771.55859375 988.875 C777.60850893 987.38349549 783.57120733 985.69057182 789.53344727 983.88378906 C796.15909476 981.89962118 802.8565982 980.23702285 809.578125 978.61132812 C810.38636719 978.41474609 811.19460938 978.21816406 812.02734375 978.015625 C812.74656006 977.84321289 813.46577637 977.67080078 814.20678711 977.49316406 C816.08209527 977.03979698 816.08209527 977.03979698 818 976 C818.47156832 973.60330737 818.47156832 973.60330737 818.640625 970.6015625 C818.78721558 968.75981445 818.78721558 968.75981445 818.93676758 966.88085938 C818.9870108 966.19660889 819.03725403 965.5123584 819.08901978 964.80737305 C819.38080523 960.8517026 819.70756343 956.89880039 820.02734375 952.9453125 C820.13601021 951.58499908 820.13601021 951.58499908 820.24687195 950.19720459 C821.22350945 938.04999997 822.33203852 925.91427695 823.42687988 913.77728271 C823.81807026 909.44033887 824.20755458 905.10324286 824.59667969 900.76611328 C824.7291751 899.28947942 824.86167226 897.81284571 824.99417114 896.33621216 C825.06010593 895.60139744 825.12604073 894.86658272 825.19397354 894.10950089 C825.46245915 891.11818559 825.73121017 888.12689417 825.99996376 885.13560295 C826.83880667 875.79887763 827.67577644 866.46198544 828.51171875 857.125 C828.57328596 856.43737328 828.63485317 855.74974655 828.69828606 855.04128265 C829.25637732 848.80801053 829.81433654 842.57472659 830.37216187 836.34143066 C830.74544119 832.17032318 831.11878682 827.99922163 831.4921875 823.828125 C831.55383654 823.13943581 831.61548557 822.45074661 831.67900276 821.74118805 C832.50911349 812.46893817 833.34166896 803.19691089 834.17626953 793.92506409 C834.63358099 788.84459309 835.09029904 783.76406882 835.54679108 778.68352413 C835.86610777 775.12973521 836.18564306 771.5759663 836.5057373 768.02224731 C837.7757736 753.9178847 839.02926657 739.81264585 840.1953125 725.69921875 C840.28688629 724.59633514 840.37846008 723.49345154 840.47280884 722.35714722 C840.89227604 717.29826134 841.30590049 712.23904516 841.70751953 707.17871094 C841.85169279 705.41990586 841.99604944 703.6611158 842.140625 701.90234375 C842.19872345 701.13887131 842.2568219 700.37539886 842.31668091 699.58879089 C842.79560866 693.8656479 843.85341922 688.7329039 845 683 C586.28 683 327.56 683 61 683 C55.27387145 624.59348877 55.27387145 624.59348877 53.5625 605 C53.36102835 602.71555235 53.1592753 600.43112951 52.95727539 598.14672852 C52.63812544 594.53735282 52.31912788 590.92796461 52.00102234 587.3184967 C51.17489897 577.94968781 50.33583218 568.58208682 49.4921875 559.21484375 C44.99469981 509.26226979 44.99469981 509.26226979 42.88772583 484.68850708 C42.71446172 482.66816586 42.54054651 480.64788036 42.36593628 478.62765503 C42.12971651 475.88997825 41.89636871 473.15207378 41.6640625 470.4140625 C41.59563644 469.62472824 41.52721039 468.83539398 41.45671082 468.0221405 C41.14629219 464.31991062 41 460.72280374 41 457 C312.59 457 584.18 457 864 457 C864.33 451.39 864.66 445.78 865 440 C865.37546802 435.52289425 865.76875016 431.05351286 866.19921875 426.58203125 C866.43817655 424.03971594 866.67710761 421.49739811 866.91601562 418.95507812 C867.04260915 417.61856002 867.16931975 416.282053 867.29614258 414.94555664 C867.98111924 407.72105227 868.6536397 400.49538439 869.32421875 393.26953125 C869.39383694 392.51982182 869.46345512 391.77011238 869.53518295 390.99768448 C871.11063642 374.00583107 872.56178381 357.00392441 874 340 C876.1785759 314.2515169 878.47816035 288.51641933 880.89542866 262.78921509 C881.08111303 260.81182745 881.26617027 258.83438095 881.45121765 256.85693359 C881.67439369 254.47431096 881.89887979 252.09181043 882.12507629 249.70947266 C882.86537642 241.80821026 883.43421809 233.92094679 884 226 C598.88 226 313.76 226 20 226 C15.71 178.15 11.42 130.3 7 81 C3.60430357 43.71284703 3.60430357 43.71284703 0.17826843 6.42851257 C0.02133217 4.29060361 0 2.14366129 0 0 Z " fill="#FEFEFE" transform="translate(457,377)"/>
<path d="M0 0 C243.54 0 487.08 0 738 0 C738 5.78285858 737.8777733 11.08444918 737.1875 16.75 C736.06096923 26.64856085 735.28324164 36.56985599 734.5 46.5 C733.70709727 56.52303754 732.90747701 66.53265944 731.76953125 76.5234375 C730.81807625 85.16452065 730.18623962 93.83474217 729.5 102.5 C728.70635613 112.52146858 727.90975735 122.52998591 726.76953125 132.51904297 C725.64011101 142.7601999 724.92638829 153.04623131 724.140625 163.31835938 C724.02085851 164.85026239 723.90106772 166.3821635 723.78125 167.9140625 C723.73230591 168.57528107 723.68336182 169.23649963 723.63293457 169.91775513 C723.25861207 174.66473621 722.71224323 179.37829832 722.12721252 184.10385132 C720.64103383 196.49632951 719.59905316 208.93233694 718.49389648 221.36328125 C718.24938085 224.09683278 718.00415488 226.83032049 717.75897217 229.56381226 C717.16599433 236.17978149 716.57557195 242.79597629 715.98611241 249.41225982 C715.50645746 254.79555497 715.02586897 260.17876605 714.54463387 265.56192017 C714.44139737 266.71675446 714.44139737 266.71675446 714.33607529 267.89491874 C714.19620098 269.4595554 714.05632477 271.02419189 713.91644669 272.58882821 C712.60885191 287.21647588 711.30420147 301.844385 710.00056083 316.47238553 C708.88498791 328.98928987 707.76680278 341.50595863 706.64672852 354.02246094 C705.34200707 368.60235016 704.03898221 383.18238944 702.7385717 397.76266384 C702.59956698 399.32113605 702.46055988 400.87960805 702.32155037 402.43807983 C702.21899227 403.5878958 702.21899227 403.5878958 702.11436228 404.76094037 C701.63536576 410.12982623 701.15517337 415.49860434 700.6744976 420.86734009 C700.08773642 427.4212963 699.50283482 433.97541542 698.9202302 440.52974248 C698.6236581 443.86567291 698.32602457 447.20149893 698.02667427 450.53718185 C696.91972059 462.87755644 695.82897535 475.20379586 695.20195103 487.57910156 C694.87123723 493.18114439 694.21472888 498.74041267 693.5625 504.3125 C692.48825003 513.86657826 691.63003779 523.4065796 691 533 C690.30625765 543.53855689 689.28838523 554.00600827 688.10546875 564.5 C687.20407032 572.65811107 686.53926689 580.81045542 686 589 C685.30605557 599.53854591 684.28838622 610.00599947 683.10546875 620.5 C682.20407032 628.65811107 681.53926689 636.81045542 681 645 C680.30605557 655.53854591 679.28838622 666.00599947 678.10546875 676.5 C677.07642399 685.81337478 676.38569466 695.12712848 675.77172852 704.47583008 C675.11773952 714.09938951 674.11409988 723.6649767 673.03735352 733.24926758 C672.20123481 740.79254737 671.62131747 748.29222195 671.26367188 755.87109375 C671.03809294 759.87446609 670.57143505 763.83661784 670.0625 767.8125 C669.02120392 776.30868531 668.34562229 784.81183855 667.73849487 793.34848022 C666.76672564 806.95375498 665.59431047 820.50210497 664.05493164 834.0559082 C663.03639949 843.19189385 662.37339117 852.33117128 661.76928711 861.50268555 C661.13186166 870.86793632 660.15679366 880.17339482 659.10546875 889.5 C658.20407032 897.65811107 657.53926689 905.81045542 657 914 C656.30605557 924.53854591 655.28838622 935.00599947 654.10546875 945.5 C653.20407032 953.65811107 652.53926689 961.81045542 652 970 C651.30605557 980.53854591 650.28838622 991.00599947 649.10546875 1001.5 C648.20407032 1009.65811107 647.53926689 1017.81045542 647 1026 C646.30712396 1036.52232082 645.29412795 1046.97410451 644.10986328 1057.45166016 C643.02339848 1067.26582818 642.27782365 1077.08819666 641.64648438 1086.94140625 C641.53916992 1088.59076172 641.53916992 1088.59076172 641.4296875 1090.2734375 C641.37022949 1091.23685059 641.31077148 1092.20026367 641.24951172 1093.19287109 C640.98533631 1096.16497373 640.50295916 1099.05991339 640 1102 C639.82762694 1104.39407023 639.68422206 1106.79032073 639.5625 1109.1875 C639.24274228 1114.87592465 638.76465945 1120.5253293 638.125 1126.1875 C637.03334995 1135.94090463 636.27338244 1145.71744763 635.5 1155.5 C634.7066061 1165.52301321 633.90747963 1175.53263643 632.76953125 1185.5234375 C631.81807625 1194.16452065 631.18623962 1202.83474217 630.5 1211.5 C629.70623535 1221.52299366 628.90748155 1231.53261965 627.76953125 1241.5234375 C626.81807625 1250.16452065 626.18623962 1258.83474217 625.5 1267.5 C624.70635613 1277.52146858 623.90975735 1287.52998591 622.76953125 1297.51904297 C621.64011101 1307.7601999 620.92638829 1318.04623131 620.140625 1328.31835938 C620.02085851 1329.85026239 619.90106772 1331.3821635 619.78125 1332.9140625 C619.73230591 1333.57528107 619.68336182 1334.23649963 619.63293457 1334.91775513 C619.30233978 1339.11020206 618.85366628 1343.27989415 618.34238142 1347.45427436 C617.05235674 1358.03452315 616.07425026 1368.6343769 615.13647461 1379.25073242 C614.96066693 1381.22066525 614.78465061 1383.19057948 614.60844421 1385.16047668 C614.13524053 1390.4575679 613.66501007 1395.75491906 613.19542003 1401.05233169 C612.70101368 1406.62457361 612.20403788 1412.19658645 611.70741272 1417.76863098 C610.87450549 1427.11798789 610.04345584 1436.46750841 609.21362305 1445.81713867 C608.25693108 1456.59591577 607.29769908 1467.37446441 606.337017 1478.15288657 C605.40890905 1488.56612094 604.48220872 1498.97948006 603.55627632 1509.3929081 C603.16394337 1513.80524374 602.77119818 1518.21754238 602.37812614 1522.62981224 C601.9148445 1527.83123545 601.45282554 1533.03276941 600.9917469 1538.23438835 C600.82326617 1540.13298964 600.65438256 1542.03155523 600.48504639 1543.93008041 C599.56206479 1554.28149405 598.69207559 1564.63009336 598 1575 C596.17069946 1575.50430542 596.17069946 1575.50430542 594.30444336 1576.01879883 C588.51507527 1577.61529837 582.72618715 1579.21353334 576.9375 1580.8125 C575.87890778 1581.10489563 574.82031555 1581.39729126 573.72964478 1581.69854736 C559.20280729 1585.71278541 544.68818076 1589.76733838 530.1875 1593.875 C518.99618968 1597.04404213 507.79567016 1600.16259191 496.55688477 1603.15991211 C485.22880291 1606.18892923 473.92689959 1609.31243496 462.625 1612.4375 C461.59549225 1612.72214111 460.5659845 1613.00678223 459.50527954 1613.30004883 C446.43609671 1616.91591137 433.38409089 1620.58324519 420.35327148 1624.33496094 C412.29672337 1626.64779892 404.2136821 1628.84577341 396.11547852 1631.00756836 C384.60172756 1634.08943302 373.11290402 1637.26084891 361.625 1640.4375 C360.59648926 1640.7218692 359.56797852 1641.0062384 358.50830078 1641.29922485 C345.45200531 1644.91151627 332.4119203 1648.57218065 319.39501953 1652.32397461 C310.88419512 1654.76929246 302.34035452 1657.07704058 293.78393555 1659.35693359 C285.83027 1661.48474257 277.91156477 1663.72100678 270 1666 C261.18662724 1668.53729306 252.36108105 1671.00959481 243.5 1673.375 C233.19116317 1676.12725145 222.90403523 1678.95141548 212.625 1681.8125 C211.86184479 1682.02488312 211.09868958 1682.23726624 210.31240845 1682.45608521 C206.41235212 1683.54167633 202.51251118 1684.6280387 198.61279297 1685.71484375 C191.30540226 1687.75113801 183.99649512 1689.78197356 176.6875 1691.8125 C175.96363098 1692.0136441 175.23976196 1692.21478821 174.49395752 1692.42202759 C160.15019958 1696.40750118 145.80164594 1700.37558775 131.45272827 1704.34243774 C119.34461943 1707.68991151 107.23772214 1711.04162654 95.13446045 1714.40658569 C33.64081169 1731.50280828 33.64081169 1731.50280828 12.1875 1737.3125 C10.62394775 1737.73825317 10.62394775 1737.73825317 9.02880859 1738.17260742 C7.64363037 1738.54542847 7.64363037 1738.54542847 6.23046875 1738.92578125 C5.45082764 1739.13630127 4.67118652 1739.34682129 3.86791992 1739.5637207 C2 1740 2 1740 0 1740 C0 1662.45 0 1584.9 0 1505 C7.26 1503.02 14.52 1501.04 22 1499 C26.77160972 1497.69019436 31.54273048 1496.37894802 36.3125 1495.0625 C37.52760254 1494.72750488 38.74270508 1494.39250977 39.99462891 1494.04736328 C46.92433389 1492.13432095 53.84811002 1490.20155499 60.76733398 1488.25097656 C70.87697552 1485.40131093 81.00908223 1482.67610452 91.18115234 1480.05810547 C97.00625282 1478.54932226 102.74632784 1476.87698864 108.48046875 1475.05078125 C113.22567749 1473.63406521 118.01586966 1472.41691521 122.8125 1471.1875 C130.92271714 1469.10686838 138.97254148 1466.87981598 147 1464.5 C155.99924508 1461.83208871 165.0368555 1459.38896001 174.12890625 1457.05859375 C178.95957122 1455.81412881 183.74512504 1454.51433108 188.5 1453 C194.21951267 1451.1784514 200.00003626 1449.67728154 205.8125 1448.1875 C213.92271714 1446.10686838 221.97254148 1443.87981598 230 1441.5 C238.99924508 1438.83208871 248.0368555 1436.38896001 257.12890625 1434.05859375 C261.95957122 1432.81412881 266.74512504 1431.51433108 271.5 1430 C277.21951267 1428.1784514 283.00003626 1426.67728154 288.8125 1425.1875 C296.92271714 1423.10686838 304.97254148 1420.87981598 313 1418.5 C321.99924508 1415.83208871 331.0368555 1413.38896001 340.12890625 1411.05859375 C345.95893784 1409.55667425 351.70141673 1407.89316487 357.4375 1406.0625 C362.4244352 1404.57516845 367.46028552 1403.2952968 372.5 1402 C379.57805672 1400.1796547 386.58392154 1398.26378375 393.55078125 1396.05078125 C399.0239715 1394.38341072 404.55071802 1392.91734477 410.07348633 1391.42407227 C418.27748937 1389.20410045 426.46344385 1386.92317383 434.64550781 1384.6237793 C440.89525953 1382.86781153 447.1481378 1381.1234673 453.40332031 1379.38696289 C454.64742172 1379.04148785 454.64742172 1379.04148785 455.91665649 1378.68903351 C457.94441865 1378.12595388 459.97220668 1377.56296739 462 1377 C463.69117749 1358.52116881 465.37832624 1340.04197073 467.0625 1321.5625 C467.12535753 1320.8728706 467.18821507 1320.18324121 467.25297737 1319.47271395 C470.49658624 1283.88428276 473.71035793 1248.29404971 476.75 1212.6875 C478.97206622 1186.66070008 481.29852876 1160.64593801 483.72000504 1134.63693237 C486.06034785 1109.49537271 488.28688882 1084.34597691 490.4375 1059.1875 C492.85148402 1030.94801077 495.38098395 1002.72120297 498 974.5 C500.59770332 946.50789394 503.10727905 918.51037699 505.5 890.5 C507.91413645 862.23973424 510.44492853 833.99214903 513.0625 805.75 C515.48683533 779.5891242 517.86745781 753.42582906 520.125 727.25 C520.2471734 725.83432948 520.3693556 724.41865972 520.49154663 723.00299072 C520.67355112 720.89415306 520.85555533 718.78531537 521.03755665 716.67647743 C521.21772413 714.58900389 521.39792318 712.50153308 521.578125 710.4140625 C521.63715815 709.72998447 521.69619129 709.04590645 521.75701332 708.34109879 C523.10151594 692.76654953 524.48092477 677.1951841 525.875 661.625 C525.93544369 660.94949852 525.99588737 660.27399704 526.05816269 659.57802582 C527.64793878 641.81508434 529.26727931 624.05498291 530.91015625 606.296875 C531.07675522 604.49552441 531.24335066 602.6941735 531.40994263 600.89282227 C531.4930752 599.99398315 531.57620777 599.09514404 531.66185951 598.16906738 C532.00161001 594.4956186 532.34134047 590.82216797 532.68101501 587.14871216 C532.85197516 585.29989348 533.02296514 583.45107756 533.19398499 581.6022644 C535.92386458 552.08384829 538.53466249 522.55687067 541.06173706 493.02044678 C543.07199226 469.52889102 545.17139195 446.04830015 547.36730957 422.57336426 C549.47470657 400.01547926 551.44059476 377.44889643 553.375 354.875 C557.09496729 311.90296408 561.05043293 268.95154186 565 226 C191.44 226 -182.12 226 -567 226 C-567 225.67 -567 225.34 -567 225 C-379.89 225 -192.78 225 0 225 C0 150.75 0 76.5 0 0 Z " fill="#2965F0" transform="translate(1024,151)"/>
<path d="M0 0 C28.90143462 -0.02279016 57.80286819 -0.04049807 86.70431003 -0.05106533 C90.11285058 -0.0523161 93.52139111 -0.05361042 96.92993164 -0.05493164 C97.60853888 -0.05519395 98.28714613 -0.05545626 98.98631722 -0.05572652 C109.98843919 -0.06008325 120.99055595 -0.06797081 131.99267482 -0.0771528 C143.27359296 -0.08648925 154.55450849 -0.09198069 165.83543068 -0.09408849 C172.17522414 -0.09539603 178.51500578 -0.09848456 184.85479546 -0.10573006 C190.81445628 -0.11248633 196.77410036 -0.11461777 202.73376465 -0.11310768 C204.92803602 -0.11338419 207.12230793 -0.11539163 209.316576 -0.11920547 C212.29838756 -0.12413659 215.28013478 -0.12300045 218.26194763 -0.12025452 C219.14228005 -0.12316736 220.02261248 -0.1260802 220.92962164 -0.12908131 C226.88587879 -0.11412121 226.88587879 -0.11412121 228 1 C228.20905709 2.4211151 228.35598731 3.85143659 228.47729492 5.28271484 C228.55819366 6.21020538 228.63909241 7.13769592 228.72244263 8.09329224 C228.80759125 9.12211517 228.89273987 10.15093811 228.98046875 11.2109375 C229.07367401 12.29204803 229.16687927 13.37315857 229.26290894 14.48703003 C229.46695211 16.85922793 229.66893779 19.23160346 229.86917114 21.60412598 C230.35962024 27.41390957 230.86221294 33.22264076 231.36336327 39.0315094 C231.54127292 41.09596212 231.71860577 43.16046377 231.89582825 45.22497559 C233.12061577 59.47901297 234.39710404 73.72831898 235.67855835 87.97735596 C236.06208445 92.24309469 236.44390038 96.50898549 236.82543945 100.77490234 C237.86314851 112.37268772 238.9025241 123.97027547 239.96733093 135.56561279 C240.35139709 139.75165269 240.73206327 143.93799804 241.11227417 148.12438965 C241.28437676 150.00810241 241.4582409 151.89165525 241.63406372 153.77502441 C242.48264653 162.86554191 243.30049878 171.85661842 243 181 C243.82113281 181.12117188 244.64226562 181.24234375 245.48828125 181.3671875 C249.45071062 182.08121815 253.30440887 183.07577463 257.1875 184.125 C258.88133357 184.57748544 260.57535544 185.02926639 262.26953125 185.48046875 C263.18557129 185.72458496 264.10161133 185.96870117 265.04541016 186.22021484 C268.19751241 187.05212813 271.35385099 187.86603591 274.51171875 188.67578125 C285.63090525 191.52802142 296.71309243 194.44585464 307.73266602 197.66210938 C316.21648694 200.11293737 324.77287852 202.27333497 333.32974243 204.45083618 C343.06511828 206.93282503 352.72033987 209.62033168 362.34814453 212.49365234 C370.25443001 214.83303541 378.21980673 216.84829908 386.22802734 218.80566406 C392.55034304 220.36024747 398.81410103 222.04688719 405.0625 223.875 C413.76497322 226.42046077 422.52636499 228.70211635 431.3125 230.9375 C441.82568969 233.61392977 452.26685022 236.4687173 462.66894531 239.55297852 C468.94567188 241.41109226 475.23558111 243.19522661 481.5625 244.875 C482.31821289 245.07826904 483.07392578 245.28153809 483.85253906 245.4909668 C488.22372389 246.63634421 492.51453435 247.44594774 497 248 C496.34 248.33 495.68 248.66 495 249 C495.33 326.55 495.66 404.1 496 484 C479.95404412 480.56158088 479.95404412 480.56158088 473.25 478.625 C471.71357456 478.18998798 470.17711523 477.75509563 468.640625 477.3203125 C467.48916992 476.99208496 467.48916992 476.99208496 466.31445312 476.65722656 C462.54774389 475.58760829 458.77361488 474.5449378 455 473.5 C453.49996268 473.08346771 451.9999627 472.66680092 450.5 472.25 C449.38625 471.940625 449.38625 471.940625 448.25 471.625 C417.875 463.1875 417.875 463.1875 387.5 454.75 C386.38612915 454.440625 386.38612915 454.440625 385.24975586 454.125 C383.75052301 453.70850124 382.25133675 453.2918347 380.75219727 452.875 C376.99082511 451.8293802 373.22867541 450.78673435 369.46484375 449.75 C362.22640992 447.75289464 355.0061263 445.7157001 347.8125 443.5625 C340.00158998 441.2282157 332.12241122 439.19033827 324.2277832 437.16040039 C318.27041479 435.61957332 312.39832623 433.92410402 306.53515625 432.0546875 C301.70238004 430.61286476 296.82249689 429.37649843 291.9375 428.125 C283.58033381 425.98283436 275.31543298 423.63967573 267.06811523 421.10986328 C262.07499714 419.58958851 257.07470263 418.21895189 252 417 C245.05604262 415.32001031 238.25213416 413.30141076 231.421875 411.2109375 C226.30751155 409.65780259 221.19520222 408.25690376 216 407 C209.05604262 405.32001031 202.25213416 403.30141076 195.421875 401.2109375 C190.30751155 399.65780259 185.19520222 398.25690376 180 397 C173.05604262 395.32001031 166.25213416 393.30141076 159.421875 391.2109375 C154.30751155 389.65780259 149.19520222 388.25690376 144 387 C137.05604262 385.32001031 130.25213416 383.30141076 123.421875 381.2109375 C118.30751155 379.65780259 113.19520222 378.25690376 108 377 C101.05604262 375.32001031 94.25213416 373.30141076 87.421875 371.2109375 C81.0365186 369.2718262 74.62737235 367.63556882 68.140625 366.06640625 C62.42818069 364.63829517 56.81436736 362.87360765 51.18457031 361.15380859 C44.83179392 359.22213724 38.46375491 357.52349538 32 356 C30.68025222 346.0011738 29.570722 336.00701803 28.73559189 325.95467949 C28.54624668 323.67575137 28.35288218 321.39719032 28.15872192 319.1186676 C27.87613323 315.79798601 27.59513398 312.47717579 27.31542969 309.15625 C26.55049464 300.08122214 25.77231884 291.00732624 24.9921875 281.93359375 C24.9112661 280.99181149 24.8303447 280.05002922 24.74697113 279.0797081 C23.0007844 258.78451828 21.13686187 238.50074294 19.25251007 218.21798706 C16.48946992 188.47696587 13.82637573 158.72987462 11.28956223 128.96870422 C9.52769799 108.3015725 7.70998434 87.64094144 5.78515625 66.98828125 C5.69212093 65.9900276 5.59908562 64.99177395 5.50323105 63.96327019 C4.59224595 54.1979184 3.67535316 44.43313399 2.75066471 34.66907024 C2.41311315 31.10187479 2.07715073 27.53453054 1.74136162 23.96716881 C1.50973789 21.51486713 1.27545291 19.06282957 1.04103088 16.61079407 C0.9016543 15.13279423 0.76240024 13.65478284 0.62329102 12.17675781 C0.50228531 10.9043927 0.3812796 9.63202759 0.25660706 8.32110596 C0.04046289 5.52368607 -0.0196039 2.80214132 0 0 Z " fill="#EAEAEA" transform="translate(528,1173)"/>
<path d="M0 0 C186.78 0 373.56 0 566 0 C566 74.58 566 149.16 566 226 C385.82 226 205.64 226 20 226 C15.71 178.15 11.42 130.3 7 81 C3.60430357 43.71284703 3.60430357 43.71284703 0.17826843 6.42851257 C0.02133217 4.29060361 0 2.14366129 0 0 Z " fill="#EAEAEA" transform="translate(457,377)"/>
<path d="M0 0 C271.59 0 543.18 0 823 0 C823 0.33 823 0.66 823 1 C724.66 1 626.32 1 525 1 C525 75.25 525 149.5 525 226 C358.35 226 191.7 226 20 226 C14.27387145 167.59348877 14.27387145 167.59348877 12.5625 148 C12.36102835 145.71555235 12.1592753 143.43112951 11.95727539 141.14672852 C11.63812544 137.53735282 11.31912788 133.92796461 11.00102234 130.3184967 C10.17489897 120.94968781 9.33583218 111.58208682 8.4921875 102.21484375 C3.99469981 52.26226979 3.99469981 52.26226979 1.88772583 27.68850708 C1.71446172 25.66816586 1.54054651 23.64788036 1.36593628 21.62765503 C1.12971651 18.88997825 0.89636871 16.15207378 0.6640625 13.4140625 C0.59563644 12.62472824 0.52721039 11.83539398 0.45671082 11.0221405 C0.14629219 7.31991062 0 3.72280374 0 0 Z " fill="#EAEAEB" transform="translate(498,834)"/>
<path d="M0 0 C258.72 0 517.44 0 784 0 C783.67 3.3 783.34 6.6 783 10 C782.80638211 12.07377506 782.61618933 14.14787559 782.4309082 16.22241211 C782.32998367 17.34949081 782.22905914 18.47656952 782.12507629 19.63780212 C782.01805893 20.83885086 781.91104156 22.0398996 781.80078125 23.27734375 C781.62369124 25.25738303 781.44660124 27.23742231 781.26951122 29.21746159 C781.08076014 31.32903863 780.89226896 33.44063873 780.70385742 35.55224609 C780.30504548 40.02185649 779.90550625 44.49140169 779.50585938 48.9609375 C779.01763073 54.42164079 778.52956515 59.88235861 778.04171562 65.34309578 C777.18912272 74.88638624 776.33525131 84.42956168 775.48046875 93.97265625 C775.41917597 94.65695646 775.35788319 95.34125668 775.29473305 96.04629326 C774.98649688 99.48749848 774.67823632 102.92870152 774.3699646 106.36990356 C773.80910845 112.63081064 773.24847137 118.89173733 772.68781471 125.15266228 C772.37521849 128.6434423 772.06260856 132.13422109 771.75 135.625 C771.62499993 137.02083333 771.49999993 138.41666666 771.375 139.8125 C770.62499994 148.18750072 770.62499994 148.18750072 770.43749523 150.28129959 C770.31251026 151.67696754 770.18752615 153.07263557 770.06254292 154.46830368 C769.74982008 157.96041798 769.43708215 161.45253093 769.12431335 164.94464111 C768.5644585 171.19566702 768.00470189 177.44670163 767.44552517 183.69778824 C767.13693656 187.14749063 766.82825738 190.59718491 766.51953125 194.046875 C766.42762984 195.07380589 766.42762984 195.07380589 766.33387184 196.12148285 C765.4753296 205.71308873 764.61251957 215.30430342 763.74679565 224.89526367 C763.26030781 230.28505051 762.77495051 235.674939 762.28983879 241.06484985 C761.8961281 245.43806441 761.50093403 249.81114142 761.10457134 254.18411636 C760.91865002 256.2384692 760.73354157 258.29289342 760.54878235 260.34735107 C760.32549217 262.83025907 760.10099398 265.31305892 759.87492371 267.79571533 C759.77399918 268.92241638 759.67307465 270.04911743 759.5690918 271.20996094 C759.4207338 272.85152161 759.4207338 272.85152161 759.26937866 274.52624512 C759.07272561 277.06217168 758.91898567 279.57967985 758.80899048 282.1192627 C758.75888557 283.14873709 758.75888557 283.14873709 758.70776844 284.19900894 C758.61725779 286.13464693 758.54296226 288.07102307 758.46955872 290.00738525 C758.31460434 290.99494812 758.15964996 291.98251099 758 293 C755.3447102 294.7701932 754.04165432 295.38413971 751.0703125 296.078125 C750.2868042 296.26608643 749.5032959 296.45404785 748.69604492 296.64770508 C747.8476001 296.8464624 746.99915527 297.04521973 746.125 297.25 C739.09464425 298.94947243 732.12827835 300.77846444 725.1875 302.8125 C716.25564018 305.41941055 707.26480144 307.76398765 698.25 310.0625 C689.40984848 312.31652366 680.60288455 314.62045221 671.87402344 317.27758789 C665.78215363 319.11399337 659.61830332 320.6160317 653.4387207 322.12573242 C648.07923523 323.44687427 642.78317807 324.90206334 637.5 326.5 C631.37348573 328.35300999 625.2176747 329.98116512 619 331.5 C612.86518639 332.99870066 606.79276312 334.60246362 600.75 336.4375 C592.85839637 338.83073104 584.88065001 340.80270126 576.87304688 342.76708984 C570.26617329 344.39993146 563.74137407 346.19858176 557.23046875 348.17578125 C551.02745809 350.04027 544.75912116 351.58521772 538.46679688 353.11645508 C532.1548902 354.66807083 525.92791119 356.42874569 519.73046875 358.38867188 C515.02070826 359.83965869 511.04552707 360.36930912 506 361 C506 242.2 506 123.4 506 1 C339.02 1 172.04 1 0 1 C0 0.67 0 0.34 0 0 Z " fill="#2965F0" transform="translate(518,1060)"/>
<path d="M0 0 C104.61 0 209.22 0 317 0 C317 15.7478912 317 15.7478912 316.45263672 21.45507812 C316.27111305 23.40109673 316.27111305 23.40109673 316.08592224 25.38642883 C315.95057012 26.76804171 315.81515663 28.14964859 315.6796875 29.53125 C315.53863136 31.02229375 315.398234 32.51339994 315.25843811 34.00456238 C314.95968404 37.18033327 314.65724962 40.35572173 314.35177612 43.53085327 C313.61428711 51.20140004 312.89735778 58.87388249 312.17964745 66.54630089 C312.01512756 68.30446105 311.85038346 70.06260025 311.68541908 71.82071877 C310.06906689 89.05290747 308.57342458 106.2940425 307.11871719 123.54052734 C305.12626729 147.1460991 303.05945538 170.74376282 300.88679886 194.33346939 C300.68918109 196.48172532 300.49241741 198.63005796 300.29586792 200.77841187 C299.93335524 204.73797409 299.56668666 208.69714437 299.19921875 212.65625 C299.03870026 214.40878838 299.03870026 214.40878838 298.87493896 216.19673157 C298.7740094 217.27456406 298.67307983 218.35239655 298.5690918 219.46289062 C298.43968452 220.85828064 298.43968452 220.85828064 298.30766296 222.28186035 C297.97716187 225.20177022 297.48309544 228.10142735 297 231 C198.99 231 100.98 231 0 231 C0 154.77 0 78.54 0 0 Z " fill="#2965F1" transform="translate(1024,603)"/>
</svg>
