<?xml version="1.0" encoding="UTF-8"?>
<svg version="1.1" xmlns="http://www.w3.org/2000/svg" width="200" height="200">
<path d="M0 0 C66 0 132 0 200 0 C200 66 200 132 200 200 C134 200 68 200 0 200 C0 134 0 68 0 0 Z " fill="#FEFEFD" transform="translate(0,0)"/>
<path d="M0 0 C33.99 0 67.98 0 103 0 C101.84708314 35.74042257 101.84708314 35.74042257 101.28125 46.65234375 C101.21844849 47.89907364 101.15564697 49.14580353 101.09094238 50.43031311 C100.96128633 52.98917689 100.83025162 55.54797124 100.69775391 58.10668945 C100.49590236 62.01687782 100.30047533 65.92735549 100.10546875 69.83789062 C99.97693768 72.35939415 99.84804577 74.88087932 99.71875 77.40234375 C99.661427 78.55435776 99.604104 79.70637177 99.54504395 80.89329529 C98.92043188 92.78447491 98.92043188 92.78447491 98 98 C95.90234375 99.7421875 95.90234375 99.7421875 92.9375 100.875 C91.77605469 101.34421875 90.61460937 101.8134375 89.41796875 102.296875 C88.73782715 102.55662109 88.05768555 102.81636719 87.35693359 103.08398438 C83.52080531 104.57488486 79.73740726 106.19074498 75.94360352 107.78564453 C71.89228234 109.48471555 67.83028247 111.15736127 63.76611328 112.82543945 C60.44914793 114.2339055 57.20796465 115.78077326 53.98291016 117.38793945 C49.9976143 118.61807202 46.59414751 116.70468688 43 115 C42.19175781 114.63132812 41.38351563 114.26265625 40.55078125 113.8828125 C38.74682619 113.05768508 36.94623128 112.2251856 35.1484375 111.38671875 C30.89317738 109.51250368 26.55524716 107.90418414 22.18530273 106.3190918 C17.98680789 104.7854517 13.85597538 103.1239023 9.73217773 101.3984375 C8.65709457 100.94903809 7.58201141 100.49963867 6.47434998 100.03662109 C5.65781448 99.69453613 4.84127899 99.35245117 4 99 C3.47101683 89.48845523 2.94904576 79.97655651 2.43539429 70.46417141 C2.19653423 66.04452989 1.95549218 61.62503263 1.70898438 57.20581055 C1.47001617 52.92016599 1.23740422 48.63421469 1.00872803 44.34800911 C0.92159424 42.73411399 0.83238271 41.12032929 0.74078369 39.50668144 C-0.00659982 26.29986821 0 13.2659617 0 0 Z " fill="#E44E26" transform="translate(48,57)"/>
<path d="M0 0 C20.46 0 40.92 0 62 0 C62 4.62 62 9.24 62 14 C61 15 61 15 59.09544373 15.12025452 C58.26271439 15.11803391 57.42998505 15.11581329 56.57202148 15.11352539 C55.63112167 15.11344986 54.69022186 15.11337433 53.72080994 15.11329651 C52.69790359 15.10813522 51.67499725 15.10297394 50.62109375 15.09765625 C49.57929459 15.0962413 48.53749542 15.09482635 47.46412659 15.09336853 C44.12188906 15.0877508 40.77971743 15.0751953 37.4375 15.0625 C35.17773534 15.05748728 32.91796963 15.05292398 30.65820312 15.04882812 C25.10544318 15.03777561 19.55273278 15.0204991 14 15 C14 19.62 14 24.24 14 29 C29.18 29 44.36 29 60 29 C59.72910959 36.67522835 59.41655205 44.33312096 59 52 C58.96213379 52.79164551 58.92426758 53.58329102 58.88525391 54.39892578 C58.6644359 58.41557733 58.31645665 62.18520117 57 66 C53.97959958 68.35591233 52.52384948 68.88720543 49 70 C47.71258347 70.58540821 46.43322344 71.18869721 45.16015625 71.8046875 C43.75265333 72.47406171 42.34510067 73.14333137 40.9375 73.8125 C40.26509277 74.13984131 39.59268555 74.46718262 38.89990234 74.80444336 C34.19743206 76.92923347 31.15074297 77.31980489 26 76 C23.61581461 75.09638057 21.26005046 74.11446361 18.9375 73.0625 C15.51380131 71.52278136 12.20939978 70.06624118 8.62890625 68.93359375 C6 68 6 68 5 66 C4.77049681 63.795636 4.58924067 61.58607827 4.4375 59.375 C4.35371094 58.18648437 4.26992187 56.99796875 4.18359375 55.7734375 C4.12300781 54.85820312 4.06242187 53.94296875 4 53 C7.96 53 11.92 53 16 53 C16.33 54.65 16.66 56.3 17 58 C17.70125 58.12375 18.4025 58.2475 19.125 58.375 C22 59 22 59 24.8125 60.125 C31.70517704 62.01710742 37.64639971 59.60951441 44 57 C44.66 52.38 45.32 47.76 46 43 C31.81 43 17.62 43 3 43 C1.41330054 28.71970486 0.57426776 14.35669394 0 0 Z " fill="#FBFBF8" transform="translate(68,76)"/>
<path d="M0 0 C32.34 0 64.68 0 98 0 C100.29968866 4.59937732 99.06228231 10.8403179 98.5 15.8125 C98.07788989 19.5880404 97.96143205 23.26355653 98 27.0625 C98.03938095 32.14920587 97.81072998 36.97347414 97 42 C96.01 42.99 96.01 42.99 95 44 C95 40.04 95 36.08 95 32 C91.68987756 35.31012244 91.49648935 36.53159589 91 41 C90.67 41 90.34 41 90 41 C89.79452875 29.97304296 90.43533995 19.01087095 91 8 C77.47 8 63.94 8 50 8 C50 10.97 50 13.94 50 17 C39.44 17 28.88 17 18 17 C18.2475 21.3003125 18.2475 21.3003125 18.5 25.6875 C18.96974831 34.22876844 19.07154625 42.72991713 18.875 51.28198242 C18.86339844 52.11834229 18.85179688 52.95470215 18.83984375 53.81640625 C18.81458618 54.92157593 18.81458618 54.92157593 18.78881836 56.04907227 C18.88325349 58.3253098 18.88325349 58.3253098 21 61 C21.1953125 63.26171875 21.1953125 63.26171875 21.125 65.6875 C21.10695313 66.49574219 21.08890625 67.30398437 21.0703125 68.13671875 C21.04710938 68.75160156 21.02390625 69.36648437 21 70 C19.68 69.67 18.36 69.34 17 69 C17.02320312 69.95261719 17.04640625 70.90523438 17.0703125 71.88671875 C17.09738281 73.76810547 17.09738281 73.76810547 17.125 75.6875 C17.14820312 76.92886719 17.17140625 78.17023438 17.1953125 79.44921875 C17.01032021 82.81237857 16.45767895 84.9985587 15 88 C13.68 87.67 12.36 87.34 11 87 C12.19899698 90.0831351 13.47700477 93.06279492 15 96 C11.86650268 97.04449911 11.01031744 96.93423645 8 96 C8 95.34 8 94.68 8 94 C6.68 94 5.36 94 4 94 C3.97494385 93.26362305 3.9498877 92.52724609 3.92407227 91.76855469 C3.80795727 88.42886622 3.68530082 85.08944903 3.5625 81.75 C3.52318359 80.59113281 3.48386719 79.43226563 3.44335938 78.23828125 C3.40146484 77.12324219 3.35957031 76.00820312 3.31640625 74.859375 C3.27974854 73.83295898 3.24309082 72.80654297 3.20532227 71.74902344 C3.09520248 69.1227165 3.09520248 69.1227165 2.49900818 67.13471985 C1.9379477 64.73454489 1.84676094 62.55986412 1.81054688 60.09545898 C1.79382935 59.12442734 1.77711182 58.15339569 1.7598877 57.15293884 C1.74631226 56.11117996 1.73273682 55.06942108 1.71875 53.99609375 C1.70034058 52.92126236 1.68193115 51.84643097 1.66296387 50.73902893 C1.58431558 46.1400035 1.51648951 41.54083296 1.44775391 36.94165039 C1.39604685 33.58472419 1.33879611 30.22792409 1.28125 26.87109375 C1.26767456 25.82731064 1.25409912 24.78352753 1.2401123 23.70811462 C1.22339478 22.74023514 1.20667725 21.77235565 1.18945312 20.77514648 C1.17066101 19.49751686 1.17066101 19.49751686 1.15148926 18.19407654 C1.07960999 15.82194538 1.07960999 15.82194538 0 13 C0 8.71 0 4.42 0 0 Z " fill="#E54C24" transform="translate(49,59)"/>
<path d="M0 0 C13.53 0 27.06 0 41 0 C41.020625 3.3 41.04125 6.6 41.0625 10 C41.071604 11.02351563 41.08070801 12.04703125 41.09008789 13.1015625 C41.09258545 13.93429688 41.09508301 14.76703125 41.09765625 15.625 C41.10289307 16.46289062 41.10812988 17.30078125 41.11352539 18.1640625 C40.99722926 21.06921475 40.63110219 23.90129679 40.25047302 26.78173828 C39.78731486 30.8836013 39.66310367 35.00218413 39.5 39.125 C39.4390918 40.54449951 39.4390918 40.54449951 39.37695312 41.99267578 C39.24820445 44.99499587 39.12357709 47.99746288 39 51 C38.83707771 54.95850262 38.66983981 58.91678879 38.5 62.875 C38.46455078 63.77105957 38.42910156 64.66711914 38.39257812 65.59033203 C37.76409964 80.20796983 37.76409964 80.20796983 35.50390625 82.55078125 C34.86324219 82.80214844 34.22257812 83.05351562 33.5625 83.3125 C32.83546875 83.61027344 32.1084375 83.90804687 31.359375 84.21484375 C28.19381285 85.26828413 24.99895033 86.18402464 21.78515625 87.078125 C17.36101351 88.54249763 13.24897201 90.63043504 9.078125 92.6953125 C6.00979309 93.99584912 3.29614951 94.59538285 0 95 C0 92.03 0 89.06 0 86 C1.22976562 85.45730469 2.45953125 84.91460937 3.7265625 84.35546875 C5.35940823 83.63288759 6.99221888 82.91022715 8.625 82.1875 C9.43324219 81.83107422 10.24148437 81.47464844 11.07421875 81.10742188 C14.58156595 79.5533534 18.04080902 77.97922701 21.4609375 76.23828125 C24 75 24 75 26 75 C26.05534912 74.12786865 26.11069824 73.2557373 26.16772461 72.35717773 C26.37615271 69.09368385 26.58704486 65.83036796 26.79956055 62.56713867 C26.89070437 61.15997489 26.98089128 59.75274877 27.07006836 58.34545898 C27.19908649 56.312162 27.33164742 54.27912081 27.46484375 52.24609375 C27.543396 51.02591553 27.62194824 49.8057373 27.70288086 48.54858398 C27.99847123 45.01825855 28.49898959 41.50707284 29 38 C13.82 38 -1.36 38 -17 38 C-17 33.38 -17 28.76 -17 24 C-1.49 23.67 14.02 23.34 30 23 C30.33 18.38 30.66 13.76 31 9 C20.77 9 10.54 9 0 9 C0 6.03 0 3.06 0 0 Z " fill="#F28449" transform="translate(99,67)"/>
<path d="M0 0 C3.3 0 6.6 0 10 0 C10.99 3.3 11.98 6.6 13 10 C13.99 6.7 14.98 3.4 16 0 C18.97 0 21.94 0 25 0 C25 7.26 25 14.52 25 22 C23.35 22 21.7 22 20 22 C19.505 15.565 19.505 15.565 19 9 C17.68 13.29 16.36 17.58 15 22 C13.35 22 11.7 22 10 22 C9.01 19.03 8.02 16.06 7 13 C6.67 16.3 6.34 19.6 6 23 C4.02 23 2.04 23 0 23 C0 15.41 0 7.82 0 0 Z " fill="#CB7059" transform="translate(101,25)"/>
<path d="M0 0 C2.31 0 4.62 0 7 0 C7 2.64 7 5.28 7 8 C9.31 8 11.62 8 14 8 C14 5.36 14 2.72 14 0 C16.64 0 19.28 0 22 0 C22 7.59 22 15.18 22 23 C19.69 23 17.38 23 15 23 C14.67 20.03 14.34 17.06 14 14 C11.69 13.67 9.38 13.34 7 13 C7 16.3 7 19.6 7 23 C4.69 23 2.38 23 0 23 C0 15.41 0 7.82 0 0 Z " fill="#D5896E" transform="translate(47,25)"/>
<path d="M0 0 C14.19 0 28.38 0 43 0 C43 11.81481481 43 11.81481481 41 15 C33.56129 19.1676983 27.82765903 19.49766762 19.765625 17.42578125 C17.5625 16.75 17.5625 16.75 14 15 C13.67 13.35 13.34 11.7 13 10 C9.04 10 5.08 10 1 10 C4.02544334 7.98303778 4.61067382 7.74188904 8 7.8125 C8.680625 7.81894531 9.36125 7.82539062 10.0625 7.83203125 C12 8 12 8 15 9 C15.27585937 9.62390625 15.55171875 10.2478125 15.8359375 10.890625 C17.49109519 13.88990404 19.50949784 14.4458363 22.625 15.75 C24.39875 16.4925 26.1725 17.235 28 18 C28 12.39 28 6.78 28 1 C18.76 1 9.52 1 0 1 C0 0.67 0 0.34 0 0 Z " fill="#E98352" transform="translate(71,119)"/>
<path d="M0 0 C20.46 0 40.92 0 62 0 C62 4.62 62 9.24 62 14 C61 15 61 15 59.09544373 15.12025452 C58.26271439 15.11803391 57.42998505 15.11581329 56.57202148 15.11352539 C55.63112167 15.11344986 54.69022186 15.11337433 53.72080994 15.11329651 C52.69790359 15.10813522 51.67499725 15.10297394 50.62109375 15.09765625 C49.57929459 15.0962413 48.53749542 15.09482635 47.46412659 15.09336853 C44.12188906 15.0877508 40.77971743 15.0751953 37.4375 15.0625 C35.17773534 15.05748728 32.91796963 15.05292398 30.65820312 15.04882812 C25.10544318 15.03777561 19.55273278 15.0204991 14 15 C14 19.62 14 24.24 14 29 C29.18 29 44.36 29 60 29 C60 31.31 60 33.62 60 36 C59.67 36 59.34 36 59 36 C59 34.02 59 32.04 59 30 C43.49 30.33 27.98 30.66 12 31 C12 15 12 15 13 13 C17.73519891 11.47002115 22.76714467 11.97246966 27.67578125 12.12109375 C28.6009404 12.14470474 29.52609955 12.16831573 30.47929382 12.19264221 C33.423863 12.26899712 36.3681503 12.35314225 39.3125 12.4375 C41.31313741 12.4907489 43.31378844 12.5434891 45.31445312 12.59570312 C50.20981271 12.72457403 55.10493424 12.86043034 60 13 C60 9.04 60 5.08 60 1 C40.53 1 21.06 1 1 1 C1 3.31 1 5.62 1 8 C0.67 8 0.34 8 0 8 C0 5.36 0 2.72 0 0 Z " fill="#FDE3CC" transform="translate(68,76)"/>
<path d="M0 0 C6.93 0 13.86 0 21 0 C21 1.98 21 3.96 21 6 C19.02 6 17.04 6 15 6 C15 11.61 15 17.22 15 23 C12.36 23 9.72 23 7 23 C7 17.39 7 11.78 7 6 C4.69 6 2.38 6 0 6 C0 4.02 0 2.04 0 0 Z " fill="#D78874" transform="translate(74,25)"/>
<path d="M0 0 C8.25 0 16.5 0 25 0 C25 5.28 25 10.56 25 16 C15.01456311 13.0631068 15.01456311 13.0631068 12 9 C12 8.34 12 7.68 12 7 C8.04 6.67 4.08 6.34 0 6 C0 4.02 0 2.04 0 0 Z " fill="#E54D23" transform="translate(74,121)"/>
<path d="M0 0 C33.99 0 67.98 0 103 0 C102.67 10.23 102.34 20.46 102 31 C101.67 31 101.34 31 101 31 C101 21.1 101 11.2 101 1 C68 1 35 1 1 1 C1.30110094 9.63915007 1.30110094 9.63915007 3 18 C3.08650584 19.48844716 3.11770173 20.98048257 3.11352539 22.47143555 C3.11344986 23.37214279 3.11337433 24.27285004 3.11329651 25.20085144 C3.10813522 26.16968765 3.10297394 27.13852386 3.09765625 28.13671875 C3.0962413 29.13129593 3.09482635 30.12587311 3.09336853 31.15058899 C3.08776761 34.32958982 3.07521496 37.50852043 3.0625 40.6875 C3.05748512 42.84179586 3.05292219 44.99609282 3.04882812 47.15039062 C3.03779788 52.43361774 3.02105886 57.71680385 3 63 C2.67 63 2.34 63 2 63 C1.7071355 57.72493403 1.42286424 52.44948812 1.14550781 47.17358398 C1.05068627 45.39058891 0.95378385 43.6077029 0.85449219 41.82495117 C0.07796496 27.84349929 0 14.03446355 0 0 Z " fill="#C3593C" transform="translate(48,57)"/>
<path d="M0 0 C5.61 0 11.22 0 17 0 C17 4.29 17 8.58 17 13 C11.72 13 6.44 13 1 13 C-0.14383641 8.42465436 -0.06915051 4.70223451 0 0 Z " fill="#D2532B" transform="translate(82,91)"/>
<path d="M0 0 C0.33 0 0.66 0 1 0 C1.11908996 12.38976629 0.85815344 24.71100694 0.20043945 37.08374023 C0.0605571 39.72417429 -0.07078911 42.36494075 -0.20117188 45.00585938 C-0.28856984 46.71617108 -0.37644256 48.42645861 -0.46484375 50.13671875 C-0.52272316 51.29780403 -0.52272316 51.29780403 -0.58177185 52.48234558 C-0.69940007 54.65708198 -0.84078412 56.82793052 -1 59 C-1.05203079 59.7446904 -1.10406158 60.4893808 -1.15766907 61.25663757 C-1.33600307 63.18333614 -1.65817312 65.09549882 -2 67 C-4.80078125 69.05859375 -4.80078125 69.05859375 -8.3125 70.4375 C-9.46363281 70.91058594 -10.61476562 71.38367188 -11.80078125 71.87109375 C-14.20527184 72.71956479 -16.51242175 73.46563134 -19 74 C-19.33 73.34 -19.66 72.68 -20 72 C-19.43410156 71.80664062 -18.86820313 71.61328125 -18.28515625 71.4140625 C-17.18494141 71.02347656 -17.18494141 71.02347656 -16.0625 70.625 C-15.33160156 70.36976563 -14.60070312 70.11453125 -13.84765625 69.8515625 C-11.81317884 69.14728587 -11.81317884 69.14728587 -11 67 C-7.9375 66.375 -7.9375 66.375 -5 66 C-5 65.34 -5 64.68 -5 64 C-7.64 63.67 -10.28 63.34 -13 63 C-13.495 61.515 -13.495 61.515 -14 60 C-13.34 60 -12.68 60 -12 60 C-12 57.36 -12 54.72 -12 52 C-10 55.75 -10 55.75 -10 58 C-8.02 58 -6.04 58 -4 58 C-3.67 49.42 -3.34 40.84 -3 32 C-2.34 32 -1.68 32 -1 32 C-1.00785522 30.97229492 -1.00785522 30.97229492 -1.01586914 29.92382812 C-1.03681445 26.78256163 -1.0497156 23.64130989 -1.0625 20.5 C-1.07087891 19.42234375 -1.07925781 18.3446875 -1.08789062 17.234375 C-1.10571885 11.38671618 -0.89105963 5.78136329 0 0 Z " fill="#D45839" transform="translate(148,88)"/>
<path d="M0 0 C2.64 0 5.28 0 8 0 C8.66 3.96 9.32 7.92 10 12 C11.32 12.33 12.64 12.66 14 13 C15.125 18.75 15.125 18.75 14 21 C12.35 21 10.7 21 9 21 C8.01 18.03 7.02 15.06 6 12 C5.67 14.97 5.34 17.94 5 21 C3.35 21 1.7 21 0 21 C0 14.07 0 7.14 0 0 Z " fill="#CC573E" transform="translate(102,26)"/>
<path d="M0 0 C1.98 0 3.96 0 6 0 C6 5.28 6 10.56 6 16 C9.63 16 13.26 16 17 16 C17 17.65 17 19.3 17 21 C11.39 21 5.78 21 0 21 C0 14.07 0 7.14 0 0 Z " fill="#E44F20" transform="translate(134,26)"/>
<path d="M0 0 C2.04173535 3.37698788 2.23525039 5.94546223 2.1953125 9.859375 C2.18886719 10.97441406 2.18242188 12.08945313 2.17578125 13.23828125 C2.15902344 14.39714844 2.14226563 15.55601562 2.125 16.75 C2.11597656 17.92433594 2.10695312 19.09867188 2.09765625 20.30859375 C2.07410063 23.20593536 2.04120652 26.10286441 2 29 C3.32 29 4.64 29 6 29 C6 29.66 6 30.32 6 31 C7.98 31.33 9.96 31.66 12 32 C12 32.66 12 33.32 12 34 C12.94875 34.2475 13.8975 34.495 14.875 34.75 C18.93339188 35.89891338 22.77896943 37.47468803 26.66796875 39.09765625 C28.77009998 39.91104371 30.80315027 40.51012776 33 41 C33 40.34 33 39.68 33 39 C32.01 38.67 31.02 38.34 30 38 C33 37 33 37 35.1875 37.9375 C35.785625 38.288125 36.38375 38.63875 37 39 C36.34 40.98 35.68 42.96 35 45 C27.18300191 42.87555401 19.82105482 39.9836327 12.375 36.8125 C11.27542969 36.34908203 10.17585938 35.88566406 9.04296875 35.40820312 C6.36001117 34.27669493 3.67911856 33.14056098 1 32 C0.20414744 21.312837 -0.12825004 10.71600323 0 0 Z " fill="#D35E40" transform="translate(51,124)"/>
<path d="M0 0 C1.85772162 0.08984301 3.71247985 0.24611861 5.5625 0.4375 C7.08037109 0.59025391 7.08037109 0.59025391 8.62890625 0.74609375 C9.80259766 0.87177734 9.80259766 0.87177734 11 1 C11.19491452 2.45736087 11.38069358 3.91594593 11.5625 5.375 C11.66691406 6.18710938 11.77132812 6.99921875 11.87890625 7.8359375 C12 10 12 10 11 12 C9.0390625 12.8515625 9.0390625 12.8515625 6.625 13.625 C5.83351563 13.88539063 5.04203125 14.14578125 4.2265625 14.4140625 C2 15 2 15 -1 15 C-1.02685412 12.68756208 -1.04632841 10.3750373 -1.0625 8.0625 C-1.07410156 6.77472656 -1.08570312 5.48695312 -1.09765625 4.16015625 C-1 1 -1 1 0 0 Z " fill="#F28548" transform="translate(100,121)"/>
<path d="M0 0 C33 0 66 0 100 0 C100 9.9 100 19.8 100 30 C96.15656655 24.23484983 97.00187835 18.54324195 98 12 C98 8.37 98 4.74 98 1 C65.66 1 33.32 1 0 1 C0 0.67 0 0.34 0 0 Z " fill="#DD522F" transform="translate(49,58)"/>
<path d="M0 0 C0 0.66 0 1.32 0 2 C0.66 2.33 1.32 2.66 2 3 C-13.42857143 11 -13.42857143 11 -19 11 C-19 8.03 -19 5.06 -19 2 C-16.77376199 1.46678738 -14.54384996 0.94889881 -12.3125 0.4375 C-11.07113281 0.14746094 -9.82976562 -0.14257812 -8.55078125 -0.44140625 C-5.23888546 -0.96241956 -3.18139847 -0.91852996 0 0 Z " fill="#F78148" transform="translate(118,151)"/>
<path d="M0 0 C0 -0.66 0 -1.32 0 -2 C4.29 -2 8.58 -2 13 -2 C13.66 -0.02 14.32 1.96 15 4 C14.34 4 13.68 4 13 4 C13 10.27 13 16.54 13 23 C12.67 23 12.34 23 12 23 C12 15.74 12 8.48 12 1 C9.03 1 6.06 1 3 1 C2.87882812 1.71027344 2.75765625 2.42054687 2.6328125 3.15234375 C2.38144531 4.53099609 2.38144531 4.53099609 2.125 5.9375 C1.96257812 6.85402344 1.80015625 7.77054688 1.6328125 8.71484375 C1.42398438 9.46894531 1.21515625 10.22304688 1 11 C0.01 11.495 0.01 11.495 -1 12 C-2.19287411 8.12315913 -3 5.08378077 -3 1 C-6.3 1 -9.6 1 -13 1 C-13 0.34 -13 -0.32 -13 -1 C-8.49714836 -2.50095055 -4.49194504 -1.20936982 0 0 Z " fill="#F9F5E8" transform="translate(114,24)"/>
<path d="M0 0 C1.98 0 3.96 0 6 0 C6 6.93 6 13.86 6 21 C4.02 21 2.04 21 0 21 C-1.07875823 13.80827843 -0.7938642 7.21805755 0 0 Z " fill="#E54D27" transform="translate(62,26)"/>
<path d="M0 0 C2.64 0 5.28 0 8 0 C8 4.95 8 9.9 8 15 C10.6915625 14.9690625 10.6915625 14.9690625 13.4375 14.9375 C15.29166122 14.9161878 17.14712498 14.92773498 19 15 C20 16 20 16 20.09765625 17.84765625 C20.06510417 19.8984375 20.03255208 21.94921875 20 24 C18.125 25.0625 18.125 25.0625 16 26 C15.34 25.67 14.68 25.34 14 25 C10.62583985 24.72357336 7.25198439 24.55294991 3.87109375 24.37890625 C2.92363281 24.25386719 1.97617188 24.12882812 1 24 C-0.25248502 21.49502996 -0.11374406 19.79146726 -0.09765625 16.9921875 C-0.09443359 16.00605469 -0.09121094 15.01992188 -0.08789062 14.00390625 C-0.07951172 12.97136719 -0.07113281 11.93882813 -0.0625 10.875 C-0.05798828 9.83472656 -0.05347656 8.79445313 -0.04882812 7.72265625 C-0.03701952 5.14838038 -0.02055075 2.57421854 0 0 Z M1 1 C1 7.93 1 14.86 1 22 C6.61 22 12.22 22 18 22 C18 20.35 18 18.7 18 17 C14.37 17 10.74 17 7 17 C7 11.72 7 6.44 7 1 C5.02 1 3.04 1 1 1 Z " fill="#ECC5B1" transform="translate(133,25)"/>
<path d="M0 0 C0.33 0 0.66 0 1 0 C1.43158872 4.98010526 1.85867415 9.96056956 2.28173828 14.94140625 C2.42603314 16.63291641 2.57152046 18.32432531 2.71826172 20.015625 C2.9299596 22.45807127 3.13725048 24.90085938 3.34375 27.34375 C3.40937134 28.08991577 3.47499268 28.83608154 3.54260254 29.6048584 C3.60266479 30.32500122 3.66272705 31.04514404 3.72460938 31.78710938 C3.77790405 32.40888062 3.83119873 33.03065186 3.8861084 33.67126465 C4.0543003 37.1102753 4 40.55687891 4 44 C13.24 44 22.48 44 32 44 C32 44.33 32 44.66 32 45 C27.41851502 45.3127796 22.83559391 45.5679649 18.25 45.8125 C16.29707031 45.94688477 16.29707031 45.94688477 14.3046875 46.08398438 C13.05429688 46.14521484 11.80390625 46.20644531 10.515625 46.26953125 C9.36352539 46.33760986 8.21142578 46.40568848 7.02441406 46.47583008 C4 46 4 46 1.6171875 44.07421875 C-0.62671205 39.80864158 -0.50315378 36.29055781 -0.390625 31.54296875 C-0.38496521 30.64000565 -0.37930542 29.73704254 -0.37347412 28.80671692 C-0.35114895 25.93309697 -0.30096018 23.06074072 -0.25 20.1875 C-0.22992999 18.2350441 -0.2116801 16.28256858 -0.1953125 14.33007812 C-0.15129682 9.55290122 -0.08229626 4.7766646 0 0 Z " fill="#CC5D42" transform="translate(67,76)"/>
<path d="M0 0 C0.33 0 0.66 0 1 0 C1.51435127 23.6030081 1.51435127 23.6030081 -1 31 C-3.37292404 33.39613112 -5.81423011 34.0735261 -9 35 C-10.61112212 35.75618796 -12.21545212 36.52702384 -13.8125 37.3125 C-17.62172012 39.12609329 -17.62172012 39.12609329 -21 38 C-18.60885715 35.16982764 -16.62614519 34.42527726 -13.0625 33.5625 C-8.97393858 32.44365059 -6.75778602 31.33232477 -4 28 C-3.34 28 -2.68 28 -2 28 C-2 27.34 -2 26.68 -2 26 C-2.66 25.67 -3.32 25.34 -4 25 C-3.34 25 -2.68 25 -2 25 C-2.01160156 23.9378125 -2.02320312 22.875625 -2.03515625 21.78125 C-2.14681139 7.2437509 -2.14681139 7.2437509 -1 1 C-0.67 0.67 -0.34 0.34 0 0 Z " fill="#FCF3E1" transform="translate(126,111)"/>
<path d="M0 0 C3.96 0 7.92 0 12 0 C12 0.66 12 1.32 12 2 C12.66 2 13.32 2 14 2 C14.33 1.34 14.66 0.68 15 0 C16 1 16 1 16.11352539 3.22485352 C16.10828857 4.18319092 16.10305176 5.14152832 16.09765625 6.12890625 C16.09443359 7.16337891 16.09121094 8.19785156 16.08789062 9.26367188 C16.07951172 10.35228516 16.07113281 11.44089844 16.0625 12.5625 C16.05798828 13.65498047 16.05347656 14.74746094 16.04882812 15.87304688 C16.03699826 18.58208495 16.02051543 21.29101599 16 24 C17.98 24 19.96 24 22 24 C22 18.72 22 13.44 22 8 C22.33 8 22.66 8 23 8 C23.50435694 9.9363704 24.00333874 11.87414146 24.5 13.8125 C24.7784375 14.89144531 25.056875 15.97039063 25.34375 17.08203125 C26 20 26 20 26 23 C27.65 23 29.3 23 31 23 C31 23.33 31 23.66 31 24 C25.72 24.33 20.44 24.66 15 25 C14.67 18.73 14.34 12.46 14 6 C12.68 6.33 11.36 6.66 10 7 C10 5.02 10 3.04 10 1 C6.7 1 3.4 1 0 1 C0 0.67 0 0.34 0 0 Z " fill="#FDEFE1" transform="translate(85,24)"/>
<path d="M0 0 C3.3 0.33 6.6 0.66 10 1 C10.33 4.3 10.66 7.6 11 11 C7.37 11 3.74 11 0 11 C0 7.37 0 3.74 0 0 Z " fill="#EA4B20" transform="translate(84,92)"/>
<path d="M0 0 C1.33333333 0.66666667 2.66666667 1.33333333 4 2 C4 3.98 4 5.96 4 8 C4.66 8 5.32 8 6 8 C6 12.29 6 16.58 6 21 C4.02 21 2.04 21 0 21 C0 14.07 0 7.14 0 0 Z " fill="#D84F2A" transform="translate(48,26)"/>
<path d="M0 0 C0.66 0 1.32 0 2 0 C1.88109162 5.40784597 1.75680392 10.81553268 1.62768555 16.22314453 C1.58456553 18.06002505 1.54287594 19.89693976 1.50268555 21.73388672 C1.44442293 24.38519564 1.38089461 27.03633606 1.31640625 29.6875 C1.29969376 30.49928711 1.28298126 31.31107422 1.26576233 32.14746094 C1.13755742 37.16250311 0.69810382 42.03128955 0 47 C-0.66 47 -1.32 47 -2 47 C-2.4580257 31.29989681 -1.10853572 15.64922229 0 0 Z " fill="#FCEBDD" transform="translate(151,57)"/>
<path d="M0 0 C1.57966834 5.84477286 0.43371033 11.23569888 -1 17 C-2 18 -2 18 -4.95922852 18.11352539 C-6.25272217 18.10828857 -7.54621582 18.10305176 -8.87890625 18.09765625 C-9.90889992 18.09553383 -9.90889992 18.09553383 -10.95970154 18.09336853 C-13.16067801 18.08775479 -15.36155409 18.07520007 -17.5625 18.0625 C-19.05143083 18.05748676 -20.54036324 18.05292355 -22.02929688 18.04882812 C-25.68623075 18.03778093 -29.34310558 18.02050713 -33 18 C-33 17.67 -33 17.34 -33 17 C-18.15 16.505 -18.15 16.505 -3 16 C-2.67 11.38 -2.34 6.76 -2 2 C-12.23 2 -22.46 2 -33 2 C-33 1.67 -33 1.34 -33 1 C-28.9432275 0.85669424 -24.88642396 0.71430497 -20.82958984 0.57275391 C-19.4503493 0.52450154 -18.07111739 0.47600154 -16.69189453 0.42724609 C-14.70607777 0.35709107 -12.7202267 0.28790901 -10.734375 0.21875 C-9.54038086 0.17685547 -8.34638672 0.13496094 -7.11621094 0.09179688 C-4.74497189 0.02194527 -2.37226766 0 0 0 Z " fill="#DE8B61" transform="translate(132,74)"/>
<path d="M0 0 C0.33 0 0.66 0 1 0 C1.20297343 6.74386112 1.34298898 13.48693454 1.43945312 20.2331543 C1.47966605 22.527399 1.53424675 24.82143892 1.60351562 27.11499023 C1.70066252 30.41441302 1.74594803 33.71112613 1.78125 37.01171875 C1.82254028 38.03585373 1.86383057 39.05998871 1.90637207 40.11515808 C1.91072942 47.04235774 1.91072942 47.04235774 -0.67602539 49.76235962 C-5.32215916 52.81370675 -9.49308615 53.70498676 -15 54 C-12.65890118 52.43926745 -10.43666597 51.13626133 -7.9375 49.875 C-7.24527344 49.52179688 -6.55304688 49.16859375 -5.83984375 48.8046875 C-4 48 -4 48 -2 48 C-1.97494385 47.39865234 -1.9498877 46.79730469 -1.92407227 46.17773438 C-1.28271484 30.78515625 -0.64135742 15.39257812 0 0 Z " fill="#F9E0CD" transform="translate(148,107)"/>
<path d="M0 0 C2.31 0 4.62 0 7 0 C7 6.6 7 13.2 7 20 C5.68 20 4.36 20 3 20 C3 15.05 3 10.1 3 5 C2.01 5 1.02 5 0 5 C0 3.35 0 1.7 0 0 Z " fill="#DA4E2E" transform="translate(118,27)"/>
<path d="M0 0 C0 0.99 0 1.98 0 3 C-1.7902061 3.67057887 -3.58221489 4.3363469 -5.375 5 C-6.37273437 5.37125 -7.37046875 5.7425 -8.3984375 6.125 C-11 7 -11 7 -13 7 C-13.33 7.99 -13.66 8.98 -14 10 C-19.445 10.495 -19.445 10.495 -25 11 C-25 11.99 -25 12.98 -25 14 C-27.57856865 14.92091738 -28.5943287 15.18506902 -31.140625 14.0234375 C-31.75421875 13.68570313 -32.3678125 13.34796875 -33 13 C-32.11646851 12.62246582 -32.11646851 12.62246582 -31.21508789 12.23730469 C-28.49727492 11.07553215 -25.77988578 9.91277138 -23.0625 8.75 C-21.67321289 8.15638672 -21.67321289 8.15638672 -20.25585938 7.55078125 C-19.33740234 7.15761719 -18.41894531 6.76445312 -17.47265625 6.359375 C-16.55758301 5.96814453 -15.64250977 5.57691406 -14.69970703 5.17382812 C-11.39906162 3.73871299 -8.13171882 2.2353554 -4.87280273 0.70800781 C-3 0 -3 0 0 0 Z " fill="#FCE7DA" transform="translate(133,161)"/>
<path d="M0 0 C1.98 0 3.96 0 6 0 C6 4.95 6 9.9 6 15 C5.67 15 5.34 15 5 15 C5 11.04 5 7.08 5 3 C3.68 3 2.36 3 1 3 C1 8.61 1 14.22 1 20 C5.62 20 10.24 20 15 20 C14.67 19.34 14.34 18.68 14 18 C12.10466658 17.53476937 12.10466658 17.53476937 9.9375 17.375 C8.638125 17.25125 7.33875 17.1275 6 17 C6 16.67 6 16.34 6 16 C9.63 16 13.26 16 17 16 C17 17.65 17 19.3 17 21 C11.39 21 5.78 21 0 21 C0 14.07 0 7.14 0 0 Z " fill="#BE502E" transform="translate(134,26)"/>
<path d="M0 0 C6.6 0 13.2 0 20 0 C20 1.32 20 2.64 20 4 C13.4 4 6.8 4 0 4 C0 2.68 0 1.36 0 0 Z " fill="#E54E29" transform="translate(75,26)"/>
<path d="M0 0 C0.33 0 0.66 0 1 0 C1.33 3.96 1.66 7.92 2 12 C3.7015625 12.38285156 3.7015625 12.38285156 5.4375 12.7734375 C10.15754594 13.95344899 14.5323138 15.72023257 19 17.625 C19.77472656 17.94984375 20.54945312 18.2746875 21.34765625 18.609375 C23.23392332 19.40114142 25.11727701 20.19984273 27 21 C22.48662875 22.50445708 18.90940493 20.80395997 14.625 19 C11.49250202 17.80666743 8.38959239 17.28775032 5.0859375 16.7578125 C2.2495369 15.72735985 1.41637047 14.65401911 0 12 C-0.29296875 8.984375 -0.29296875 8.984375 -0.1875 5.75 C-0.14689453 4.13351563 -0.14689453 4.13351563 -0.10546875 2.484375 C-0.07066406 1.66453125 -0.03585938 0.8446875 0 0 Z " fill="#D1563E" transform="translate(72,132)"/>
<path d="M0 0 C1.65 0 3.3 0 5 0 C5 4.95 5 9.9 5 15 C3.35 15 1.7 15 0 15 C0 10.05 0 5.1 0 0 Z " fill="#D75125" transform="translate(82,32)"/>
<path d="M0 0 C2.31 0 4.62 0 7 0 C7 0.99 7 1.98 7 3 C5.35 3 3.7 3 2 3 C2 5.64 2 8.28 2 11 C-0.31 11 -2.62 11 -5 11 C-5 8.36 -5 5.72 -5 3 C-4.01 3.33 -3.02 3.66 -2 4 C-1.34 2.68 -0.68 1.36 0 0 Z " fill="#FBF1E9" transform="translate(59,22)"/>
<path d="M0 0 C0.99 0.495 0.99 0.495 2 1 C2.41064453 2.76586914 2.41064453 2.76586914 2.6328125 5.03515625 C2.71660156 5.84404297 2.80039062 6.65292969 2.88671875 7.48632812 C2.96535156 8.33646484 3.04398438 9.18660156 3.125 10.0625 C3.21136719 10.91650391 3.29773437 11.77050781 3.38671875 12.65039062 C3.59947228 14.76610633 3.80079953 16.88296524 4 19 C8.95 20.98 8.95 20.98 14 23 C14 23.33 14 23.66 14 24 C8.76389884 24.31416607 5.48507697 23.77647622 1 21 C0.67 20.34 0.34 19.68 0 19 C0.33 18.67 0.66 18.34 1 18 C0.67 18 0.34 18 0 18 C0 12.06 0 6.12 0 0 Z " fill="#FAFAF4" transform="translate(48,136)"/>
<path d="M0 0 C2.04173535 3.37698788 2.23525039 5.94546223 2.1953125 9.859375 C2.18886719 10.97441406 2.18242188 12.08945313 2.17578125 13.23828125 C2.15902344 14.39714844 2.14226563 15.55601562 2.125 16.75 C2.11597656 17.92433594 2.10695312 19.09867188 2.09765625 20.30859375 C2.07410063 23.20593536 2.04120652 26.10286441 2 29 C3.32 29 4.64 29 6 29 C8.25 31 8.25 31 10 33 C9.67 33.66 9.34 34.32 9 35 C6.36 34.01 3.72 33.02 1 32 C0.20414744 21.312837 -0.12825004 10.71600323 0 0 Z " fill="#C65B42" transform="translate(51,124)"/>
<path d="M0 0 C0 0.99 0 1.98 0 3 C-10.23 3 -20.46 3 -31 3 C-31 2.34 -31 1.68 -31 1 C-27.06732611 0.8568968 -23.13462735 0.71449972 -19.2019043 0.57275391 C-17.20685496 0.50069904 -15.21182579 0.42808663 -13.21679688 0.35546875 C-11.33637695 0.28779297 -11.33637695 0.28779297 -9.41796875 0.21875 C-7.68196411 0.1559082 -7.68196411 0.1559082 -5.91088867 0.09179688 C-3.94133398 0.02968561 -1.97053381 0 0 0 Z " fill="#D5533D" transform="translate(99,73)"/>
<path d="M0 0 C2.64 0 5.28 0 8 0 C7.67 0.66 7.34 1.32 7 2 C4.03 1.505 4.03 1.505 1 1 C1 6.28 1 11.56 1 17 C1.66 17 2.32 17 3 17 C3 14.03 3 11.06 3 8 C3.66 7.67 4.32 7.34 5 7 C5 11.62 5 16.24 5 21 C3.35 21 1.7 21 0 21 C0 14.07 0 7.14 0 0 Z " fill="#C45639" transform="translate(102,26)"/>
<path d="M0 0 C0.33 0 0.66 0 1 0 C1.02698189 1.62490954 1.04638757 3.24994633 1.0625 4.875 C1.07410156 5.77992187 1.08570312 6.68484375 1.09765625 7.6171875 C1 10 1 10 0 12 C0.66 12 1.32 12 2 12 C2 12.99 2 13.98 2 15 C1.05125 15.433125 0.1025 15.86625 -0.875 16.3125 C-4.20041937 17.79302201 -4.20041937 17.79302201 -6 21 C-9.3 20.67 -12.6 20.34 -16 20 C-11.63340461 17.08893641 -6.94699788 15.74599925 -2 14 C-1.34 9.38 -0.68 4.76 0 0 Z " fill="#FBEEDD" transform="translate(114,119)"/>
<path d="M0 0 C2.33294775 -0.04241723 4.66702567 -0.04092937 7 0 C8 1 8 1 8.09765625 3.06640625 C8.08605469 3.89011719 8.07445312 4.71382812 8.0625 5.5625 C8.05347656 6.38878906 8.04445313 7.21507812 8.03515625 8.06640625 C8.02355469 8.70449219 8.01195312 9.34257813 8 10 C9.98 10 11.96 10 14 10 C14 10.33 14 10.66 14 11 C11.69 11 9.38 11 7 11 C6.34 8.69 5.68 6.38 5 4 C4.34 4 3.68 4 3 4 C3 5.65 3 7.3 3 9 C2.01 9.33 1.02 9.66 0 10 C0 6.7 0 3.4 0 0 Z " fill="#F7DCCF" transform="translate(54,38)"/>
<path d="M0 0 C1.85772162 0.08984301 3.71247985 0.24611861 5.5625 0.4375 C7.08037109 0.59025391 7.08037109 0.59025391 8.62890625 0.74609375 C9.80259766 0.87177734 9.80259766 0.87177734 11 1 C11 1.66 11 2.32 11 3 C8.03 3 5.06 3 2 3 C2 6.96 2 10.92 2 15 C1.01 15 0.02 15 -1 15 C-1.02685412 12.68756208 -1.04632841 10.3750373 -1.0625 8.0625 C-1.07410156 6.77472656 -1.08570312 5.48695312 -1.09765625 4.16015625 C-1 1 -1 1 0 0 Z " fill="#FB7E45" transform="translate(100,121)"/>
<path d="M0 0 C14.19 0 28.38 0 43 0 C43 2.97 43 5.94 43 9 C41 5 41 5 41 2 C20.705 1.505 20.705 1.505 0 1 C0 0.67 0 0.34 0 0 Z " fill="#DA9E80" transform="translate(71,119)"/>
<path d="M0 0 C1.98 0 3.96 0 6 0 C6.33 1.65 6.66 3.3 7 5 C6.03320312 5.35191406 6.03320312 5.35191406 5.046875 5.7109375 C2.7922092 6.81161073 2.7922092 6.81161073 2.390625 9.1640625 C2.34421875 9.97617187 2.2978125 10.78828125 2.25 11.625 C2.19328125 12.44226562 2.1365625 13.25953125 2.078125 14.1015625 C2.05234375 14.72804688 2.0265625 15.35453125 2 16 C1.34 16 0.68 16 0 16 C0 10.72 0 5.44 0 0 Z " fill="#E94A28" transform="translate(103,27)"/>
<path d="M0 0 C1.98 0 3.96 0 6 0 C6 6.93 6 13.86 6 21 C4.02 21 2.04 21 0 21 C-0.33 18.03 -0.66 15.06 -1 12 C-0.34 12 0.32 12 1 12 C1 13.98 1 15.96 1 18 C1.99 17.67 2.98 17.34 4 17 C4 12.05 4 7.1 4 2 C3.01 1.67 2.02 1.34 1 1 C1 2.98 1 4.96 1 7 C0.67 7 0.34 7 0 7 C0 4.69 0 2.38 0 0 Z " fill="#C55138" transform="translate(62,26)"/>
<path d="M0 0 C0.680625 0.00644531 1.36125 0.01289062 2.0625 0.01953125 C4 0.1875 4 0.1875 7 1.1875 C7.26554687 1.81140625 7.53109375 2.4353125 7.8046875 3.078125 C9.56789698 6.18967114 11.84195761 6.68016462 15.125 7.9375 C16.76855469 8.57945312 16.76855469 8.57945312 18.4453125 9.234375 C19.28835937 9.54890625 20.13140625 9.8634375 21 10.1875 C17.30688131 11.53842703 14.96564662 10.84036971 11.3125 9.5625 C10.33925781 9.24023438 9.36601563 8.91796875 8.36328125 8.5859375 C7.19345703 7.89371094 7.19345703 7.89371094 6 7.1875 C5.67 5.5375 5.34 3.8875 5 2.1875 C1.04 2.1875 -2.92 2.1875 -7 2.1875 C-3.97455666 0.17053778 -3.38932618 -0.07061096 0 0 Z " fill="#C4664C" transform="translate(79,126.8125)"/>
<path d="M0 0 C0.33 0 0.66 0 1 0 C1.50435694 1.9363704 2.00333874 3.87414146 2.5 5.8125 C2.7784375 6.89144531 3.056875 7.97039063 3.34375 9.08203125 C4 12 4 12 4 15 C5.65 15 7.3 15 9 15 C9 15.33 9 15.66 9 16 C3.72 16.33 -1.56 16.66 -7 17 C-6.67 16.34 -6.34 15.68 -6 15 C-3.03 15.495 -3.03 15.495 0 16 C0 10.72 0 5.44 0 0 Z " fill="#F7E3D3" transform="translate(107,32)"/>
<path d="M0 0 C0.33 1.65 0.66 3.3 1 5 C0.34 5 -0.32 5 -1 5 C-1 11.27 -1 17.54 -1 24 C-1.33 24 -1.66 24 -2 24 C-2 16.74 -2 9.48 -2 2 C-4.97 2 -7.94 2 -11 2 C-11 1.34 -11 0.68 -11 0 C-3.375 -1.125 -3.375 -1.125 0 0 Z " fill="#FCE7D8" transform="translate(128,23)"/>
<path d="M0 0 C6.93 0.33 13.86 0.66 21 1 C21 1.33 21 1.66 21 2 C15.06 2 9.12 2 3 2 C3.33 3.32 3.66 4.64 4 6 C3.34 6 2.68 6 2 6 C2 7.65 2 9.3 2 11 C1.01 11.495 1.01 11.495 0 12 C0 8.04 0 4.08 0 0 Z " fill="#FA7E47" transform="translate(99,92)"/>
<path d="M0 0 C0.33 0.66 0.66 1.32 1 2 C1.66 2 2.32 2 3 2 C3 2.66 3 3.32 3 4 C2.030625 4.12375 1.06125 4.2475 0.0625 4.375 C-1.4534375 4.684375 -1.4534375 4.684375 -3 5 C-3.33 5.66 -3.66 6.32 -4 7 C-4.99 6.67 -5.98 6.34 -7 6 C-7 5.01 -7 4.02 -7 3 C-7.66 3 -8.32 3 -9 3 C-9 2.34 -9 1.68 -9 1 C-4.545 0.505 -4.545 0.505 0 0 Z " fill="#EA4B1E" transform="translate(140,150)"/>
<path d="M0 0 C0.99 0 1.98 0 3 0 C2.835 0.99 2.67 1.98 2.5 3 C1.82925093 8.10871892 1.97302328 13.22456845 2.125 18.36328125 C2.19566421 22.43825093 1.88376186 24.23247627 0 28 C0 18.76 0 9.52 0 0 Z " fill="#FDFCEF" transform="translate(149,104)"/>
<path d="M0 0 C1.65 0 3.3 0 5 0 C5.33 3.3 5.66 6.6 6 10 C4.35 10 2.7 10 1 10 C0.67 6.7 0.34 3.4 0 0 Z " fill="#ED4729" transform="translate(89,93)"/>
<path d="M0 0 C-2.89642841 2.35082212 -5.65356331 3.83519406 -9.125 5.1875 C-10.42824219 5.70376953 -10.42824219 5.70376953 -11.7578125 6.23046875 C-14 7 -14 7 -16 7 C-16 6.01 -16 5.02 -16 4 C-10.45108785 1.18150494 -6.258654 -0.5326514 0 0 Z " fill="#D2583E" transform="translate(128,162)"/>
<path d="M0 0 C2.64 0 5.28 0 8 0 C8 1.98 8 3.96 8 6 C3.05 7.485 3.05 7.485 -2 9 C-2 8.34 -2 7.68 -2 7 C-0.02 6.34 1.96 5.68 4 5 C4 4.01 4 3.02 4 2 C2.68 2 1.36 2 0 2 C0 1.34 0 0.68 0 0 Z " fill="#D6522E" transform="translate(104,164)"/>
<path d="M0 0 C0.99 0.33 1.98 0.66 3 1 C2.67 5.95 2.34 10.9 2 16 C1.34 16 0.68 16 0 16 C0 10.72 0 5.44 0 0 Z " fill="#DD511E" transform="translate(66,128)"/>
<path d="M0 0 C6.6 0 13.2 0 20 0 C20 1.32 20 2.64 20 4 C18.02 4 16.04 4 14 4 C14 3.67 14 3.34 14 3 C15.65 3 17.3 3 19 3 C19 2.34 19 1.68 19 1 C13.72 1 8.44 1 3 1 C3.33 1.99 3.66 2.98 4 4 C2.68 4 1.36 4 0 4 C0 2.68 0 1.36 0 0 Z " fill="#C34F33" transform="translate(75,26)"/>
<path d="M0 0 C6.61242722 1.82221376 12.80520671 4.05223604 19 7 C19 7.33 19 7.66 19 8 C12.16981515 7.62054529 6.81609264 5.63930943 1 2 C0.67 1.34 0.34 0.68 0 0 Z " fill="#FAEAD7" transform="translate(62,160)"/>
<path d="M0 0 C0.33 0 0.66 0 1 0 C4.2 11.6 4.2 11.6 2 16 C0.68 16 -0.64 16 -2 16 C-2 14.68 -2 13.36 -2 12 C-1.34 11.67 -0.68 11.34 0 11 C0 7.37 0 3.74 0 0 Z " fill="#F7FCF3" transform="translate(148,144)"/>
<path d="M0 0 C2.31 0.33 4.62 0.66 7 1 C6.34 3.31 5.68 5.62 5 8 C-0.75 6.25 -0.75 6.25 -3 4 C-1.02 4 0.96 4 3 4 C3 3.34 3 2.68 3 2 C2.01 1.67 1.02 1.34 0 1 C0 0.67 0 0.34 0 0 Z " fill="#D65432" transform="translate(81,161)"/>
<path d="M0 0 C0.33 0 0.66 0 1 0 C1 4.95 1 9.9 1 15 C0.34 14.01 -0.32 13.02 -1 12 C-1.99 12.99 -2.98 13.98 -4 15 C-3.52396226 12.87429688 -3.04407402 10.74945573 -2.5625 8.625 C-2.29566406 7.44164062 -2.02882813 6.25828125 -1.75390625 5.0390625 C-1 2 -1 2 0 0 Z " fill="#F5BBA6" transform="translate(120,32)"/>
<path d="M0 0 C2.64 0 5.28 0 8 0 C8.33 0.99 8.66 1.98 9 3 C4.38 3 -0.24 3 -5 3 C-5 2.34 -5 1.68 -5 1 C-2.525 1.495 -2.525 1.495 0 2 C0 1.34 0 0.68 0 0 Z " fill="#DB4F34" transform="translate(140,43)"/>
<path d="M0 0 C1.81242052 -0.02687279 3.62495233 -0.04633715 5.4375 -0.0625 C6.44683594 -0.07410156 7.45617187 -0.08570313 8.49609375 -0.09765625 C11 0 11 0 12 1 C12.04080783 2.99958364 12.04254356 5.00045254 12 7 C11.34 7 10.68 7 10 7 C10 5.35 10 3.7 10 2 C6.7 2 3.4 2 0 2 C0 1.34 0 0.68 0 0 Z " fill="#FEEBD7" transform="translate(141,40)"/>
<path d="M0 0 C2.48351743 2.48351743 2.98041975 4.66937119 4 8 C4.33 8.99 4.66 9.98 5 11 C5.66 11 6.32 11 7 11 C7.33 12.32 7.66 13.64 8 15 C7.34 15 6.68 15 6 15 C6 14.01 6 13.02 6 12 C4.35 11.67 2.7 11.34 1 11 C0.67 7.37 0.34 3.74 0 0 Z " fill="#D46A4A" transform="translate(110,27)"/>
<path d="M0 0 C0.33 0 0.66 0 1 0 C1.33 3.96 1.66 7.92 2 12 C4.97 12.495 4.97 12.495 8 13 C7.67 13.99 7.34 14.98 7 16 C4.625 15.6875 4.625 15.6875 2 15 C-0.35119399 11.47320901 -0.21443452 9.97120515 -0.125 5.8125 C-0.10695313 4.72582031 -0.08890625 3.63914063 -0.0703125 2.51953125 C-0.04710938 1.68808594 -0.02390625 0.85664063 0 0 Z " fill="#C86347" transform="translate(72,132)"/>
<path d="M0 0 C1.65 0 3.3 0 5 0 C4.01 0.33 3.02 0.66 2 1 C2.7187807 8.04207705 2.7187807 8.04207705 4 15 C3.34 15 2.68 15 2 15 C0.58365167 12.16730334 0.6536995 9.52533562 0.4375 6.375 C0.35371094 5.18648437 0.26992187 3.99796875 0.18359375 2.7734375 C0.12300781 1.85820312 0.06242187 0.94296875 0 0 Z " fill="#FCE2D2" transform="translate(72,129)"/>
<path d="M0 0 C0.33 0 0.66 0 1 0 C1 1.65 1 3.3 1 5 C-2.96 6.65 -6.92 8.3 -11 10 C-11.66 9.34 -12.32 8.68 -13 8 C-5.71428571 4.57142857 -5.71428571 4.57142857 -1 5 C-0.67 3.35 -0.34 1.7 0 0 Z " fill="#DA8F65" transform="translate(112,128)"/>
<path d="M0 0 C0.33 1.32 0.66 2.64 1 4 C-1.475 3.01 -1.475 3.01 -4 2 C-4.66 2.66 -5.32 3.32 -6 4 C-7.32 4 -8.64 4 -10 4 C-10 3.01 -10 2.02 -10 1 C-6.52674819 -0.1577506 -3.63932552 -0.06866652 0 0 Z " fill="#FEEEE2" transform="translate(84,129)"/>
<path d="M0 0 C1.32 0 2.64 0 4 0 C4 2.31 4 4.62 4 7 C6.31 7 8.62 7 11 7 C11 7.33 11 7.66 11 8 C8.03 8 5.06 8 2 8 C2 6.02 2 4.04 2 2 C1.01 2.33 0.02 2.66 -1 3 C-0.67 2.01 -0.34 1.02 0 0 Z " fill="#CD593E" transform="translate(50,26)"/>
<path d="M0 0 C2.97 0.99 5.94 1.98 9 3 C5.81237635 5.12508244 3.73487777 5.5020163 0 6 C-1 4 -1 4 0 0 Z " fill="#F9F0E3" transform="translate(82,168)"/>
<path d="M0 0 C2.475 0.495 2.475 0.495 5 1 C5 2.65 5 4.3 5 6 C3.68 6.33 2.36 6.66 1 7 C0.67 4.69 0.34 2.38 0 0 Z " fill="#E34E29" transform="translate(111,38)"/>
<path d="M0 0 C-1.74802146 0.81674796 -3.49850189 1.62823451 -5.25 2.4375 C-6.71179688 3.11619141 -6.71179688 3.11619141 -8.203125 3.80859375 C-10.49251695 4.78382356 -12.57378746 5.4974274 -15 6 C-15.33 5.34 -15.66 4.68 -16 4 C-14.03430173 3.26702776 -12.06845362 2.53445276 -10.1015625 1.8046875 C-8.44351014 1.16981987 -6.80991947 0.47107532 -5.1875 -0.25 C-3 -1 -3 -1 0 0 Z " fill="#C66245" transform="translate(144,156)"/>
<path d="M0 0 C0.33 0 0.66 0 1 0 C1.02698189 1.62490954 1.04638757 3.24994633 1.0625 4.875 C1.07410156 5.77992187 1.08570312 6.68484375 1.09765625 7.6171875 C1 10 1 10 0 12 C0.66 12 1.32 12 2 12 C2 12.99 2 13.98 2 15 C-0.31 15.33 -2.62 15.66 -5 16 C-4.01 15.34 -3.02 14.68 -2 14 C-1.1928418 10.66149945 -1.1928418 10.66149945 -0.8125 6.875 C-0.65394531 5.59367187 -0.49539062 4.31234375 -0.33203125 2.9921875 C-0.22246094 2.00476563 -0.11289063 1.01734375 0 0 Z " fill="#FAE7D4" transform="translate(114,119)"/>
<path d="M0 0 C0.66 0.33 1.32 0.66 2 1 C1.01 1.33 0.02 1.66 -1 2 C-1 2.99 -1 3.98 -1 5 C-3.57856865 5.92091738 -4.5943287 6.18506902 -7.140625 5.0234375 C-7.75421875 4.68570313 -8.3678125 4.34796875 -9 4 C-7.54618103 3.30300448 -6.08677047 2.61766134 -4.625 1.9375 C-3.40683594 1.36322266 -3.40683594 1.36322266 -2.1640625 0.77734375 C-1.44992188 0.52082031 -0.73578125 0.26429688 0 0 Z " fill="#F8DCD0" transform="translate(109,170)"/>
<path d="M0 0 C0.33 0 0.66 0 1 0 C3.51166407 8.71695179 3.51166407 8.71695179 2 13 C1.34 13.66 0.68 14.32 0 15 C0 10.05 0 5.1 0 0 Z " fill="#FCDBBF" transform="translate(107,32)"/>
<path d="M0 0 C0.66 0.33 1.32 0.66 2 1 C0.5530993 3.89380139 -1.09703 4.61162304 -4 6 C-7.8125 6.1875 -7.8125 6.1875 -11 6 C-8.88613536 3.88613536 -7.20732397 3.02991678 -4.5 1.8125 C-3.7059375 1.44769531 -2.911875 1.08289063 -2.09375 0.70703125 C-1.4028125 0.47371094 -0.711875 0.24039063 0 0 Z " fill="#E19E79" transform="translate(123,142)"/>
<path d="M0 0 C0.33 0 0.66 0 1 0 C1 2.64 1 5.28 1 8 C-0.98 8 -2.96 8 -5 8 C-3.57841235 5.15682469 -1.81330318 2.60662332 0 0 Z " fill="#DD5023" transform="translate(89,95)"/>
<path d="M0 0 C1.98 0 3.96 0 6 0 C6.33 1.65 6.66 3.3 7 5 C5.35 5.66 3.7 6.32 2 7 C2.33 5.68 2.66 4.36 3 3 C3.66 3 4.32 3 5 3 C5 2.34 5 1.68 5 1 C3.68 1 2.36 1 1 1 C0.67 2.32 0.34 3.64 0 5 C0 3.35 0 1.7 0 0 Z " fill="#E25332" transform="translate(103,27)"/>
<path d="M0 0 C3.55780196 0.60990891 6.6828589 1.5783681 10 3 C10 3.33 10 3.66 10 4 C3.375 4.125 3.375 4.125 0 3 C0 2.01 0 1.02 0 0 Z " fill="#FCEADE" transform="translate(52,156)"/>
<path d="M0 0 C0.99 0.33 1.98 0.66 3 1 C3 4.63 3 8.26 3 12 C2.34 12 1.68 12 1 12 C1.33 9.03 1.66 6.06 2 3 C1.34 3 0.68 3 0 3 C0 2.01 0 1.02 0 0 Z " fill="#F5FDF6" transform="translate(97,29)"/>
<path d="M0 0 C1.98 0.66 3.96 1.32 6 2 C6 2.66 6 3.32 6 4 C2.86650268 5.04449911 2.01031744 4.93423645 -1 4 C-0.67 2.68 -0.34 1.36 0 0 Z " fill="#F04724" transform="translate(58,151)"/>
<path d="M0 0 C-0.33 0.99 -0.66 1.98 -1 3 C-3.64 3 -6.28 3 -9 3 C-9 2.34 -9 1.68 -9 1 C-5.92677456 0.08941469 -3.19902639 -0.08886184 0 0 Z " fill="#F0FEFB" transform="translate(117,171)"/>
<path d="M0 0 C1.62580966 0.11398665 3.25067157 0.24155659 4.875 0.375 C5.77992187 0.44460937 6.68484375 0.51421875 7.6171875 0.5859375 C10 1 10 1 12 3 C8.69564916 4.12377697 6.9493138 3.89554742 3.75 2.5625 C3.04359375 2.27503906 2.3371875 1.98757812 1.609375 1.69140625 C1.07828125 1.46324219 0.5471875 1.23507813 0 1 C0 0.67 0 0.34 0 0 Z " fill="#F5DCCA" transform="translate(84,147)"/>
<path d="M0 0 C3.63 0 7.26 0 11 0 C11 1.65 11 3.3 11 5 C10.34 5 9.68 5 9 5 C8.67 4.01 8.34 3.02 8 2 C5.36 1.67 2.72 1.34 0 1 C0 0.67 0 0.34 0 0 Z " fill="#C15D47" transform="translate(140,42)"/>
<path d="M0 0 C1.65 0 3.3 0 5 0 C5 1.32 5 2.64 5 4 C3.35 4 1.7 4 0 4 C0 2.68 0 1.36 0 0 Z " fill="#FCFBE8" transform="translate(69,26)"/>
<path d="M0 0 C2.64 0 5.28 0 8 0 C7.67 0.99 7.34 1.98 7 3 C5.02 3.33 3.04 3.66 1 4 C0.67 2.68 0.34 1.36 0 0 Z " fill="#DB501F" transform="translate(96,162)"/>
<path d="M0 0 C-0.33 0.99 -0.66 1.98 -1 3 C-4.80269732 4.6900877 -7.05272168 5.19873962 -11 4 C-9.5437455 3.32880451 -8.08492133 2.66318193 -6.625 2 C-5.81289062 1.62875 -5.00078125 1.2575 -4.1640625 0.875 C-2 0 -2 0 0 0 Z " fill="#D89769" transform="translate(112,148)"/>
<path d="M0 0 C1.32 0 2.64 0 4 0 C3.67 1.65 3.34 3.3 3 5 C2.01 5 1.02 5 0 5 C0 3.35 0 1.7 0 0 Z " fill="#F34724" transform="translate(74,122)"/>
<path d="M0 0 C2.27795022 2.27795022 3.05219877 3.93787293 4 7 C3.625 9.3125 3.625 9.3125 3 11 C0.43383368 7.15075052 0.44902324 4.5650696 0 0 Z " fill="#FEE8DA" transform="translate(111,25)"/>
</svg>
