<?xml version="1.0" encoding="UTF-8"?>
<svg version="1.1" xmlns="http://www.w3.org/2000/svg" width="1817" height="2048">
<path d="M0 0 C1.76608377 0.65316135 3.55476938 1.24572261 5.35205078 1.80737305 C18.65774419 6.51980613 30.8242374 13.9782783 42.77783203 21.36987305 C48.22696991 24.70714409 53.78935257 27.61264431 59.52392578 30.4284668 C64.38257451 32.90476704 68.86379773 35.84669907 73.35205078 38.93237305 C76.88986208 41.21720951 80.55571736 43.05842461 84.35205078 44.86987305 C84.35205078 45.52987305 84.35205078 46.18987305 84.35205078 46.86987305 C85.08037109 46.97944336 85.80869141 47.08901367 86.55908203 47.2019043 C89.52478018 47.91118315 91.46821338 48.938068 94.03955078 50.55737305 C95.34472656 51.36754883 95.34472656 51.36754883 96.67626953 52.1940918 C98.00078125 53.02360352 98.00078125 53.02360352 99.35205078 53.86987305 C101.01643627 54.87366522 102.68306949 55.87374091 104.35205078 56.86987305 C106.90322258 58.39816936 109.45155835 59.93037247 111.99267578 61.4753418 C115.40650145 63.54510137 118.77993034 65.58381282 122.35205078 67.36987305 C127.75870205 70.07319868 132.84790164 73.34528813 138.00830078 76.48706055 C142.3863061 79.13759991 146.75112961 81.62053381 151.35205078 83.86987305 C154.70778531 85.6898023 157.94661033 87.59343637 161.10205078 89.74487305 C163.79522762 91.50579637 166.45883819 93.0395759 169.28955078 94.55737305 C173.89573119 97.03280333 178.38262813 99.65909681 182.85205078 102.36987305 C187.13844117 104.96766915 191.43240955 107.5022081 195.85205078 109.86987305 C200.93609753 112.59346952 205.85567863 115.55252547 210.78540039 118.54248047 C215.47124945 121.37295172 220.23641959 124.01620546 225.06298828 126.6003418 C227.93839054 128.19506148 230.61733823 130.04673134 233.35205078 131.86987305 C235.98853756 133.26764483 238.65900944 134.58486855 241.35205078 135.86987305 C241.35205078 136.52987305 241.35205078 137.18987305 241.35205078 137.86987305 C242.45613281 138.0400293 242.45613281 138.0400293 243.58251953 138.21362305 C246.43792105 138.8902203 248.205543 139.79750573 250.66455078 141.36987305 C255.22497597 144.20473195 259.85323937 146.87603605 264.53955078 149.49487305 C272.99070923 154.2217054 281.31012476 159.04563822 289.47900391 164.24682617 C293.34952673 166.68960571 297.23634325 168.85483177 301.35205078 170.86987305 C303.0294494 171.85176492 304.69672456 172.85121075 306.35205078 173.86987305 C309.94943807 176.05304082 313.56998145 178.02086137 317.35205078 179.86987305 C323.97584271 183.56391085 330.46330981 187.49309339 336.93408203 191.44799805 C341.97341123 194.51339645 347.0368536 197.31070403 352.35205078 199.86987305 C352.35205078 200.52987305 352.35205078 201.18987305 352.35205078 201.86987305 C353.6146875 202.23338867 353.6146875 202.23338867 354.90283203 202.60424805 C358.7576198 204.01868886 362.07717444 205.95510317 365.53955078 208.11987305 C366.86793559 208.93407598 368.19737085 209.74656748 369.52783203 210.55737305 C370.17703613 210.95311523 370.82624023 211.34885742 371.49511719 211.7565918 C375.69794705 214.27630047 380.03244779 216.55874788 384.35205078 218.86987305 C391.03574124 222.48811149 397.57398061 226.34223698 404.11645508 230.20776367 C408.47901427 232.78140832 412.86582856 235.2931547 417.30908203 237.7253418 C420.59270709 239.56492524 423.80288631 241.52497918 427.02392578 243.47143555 C429.45811095 244.93358033 431.91716979 246.34812289 434.38720703 247.7487793 C440.777559 251.39496422 447.12434006 255.11617832 453.41455078 258.93237305 C458.63519018 262.08173438 463.97940382 264.98948057 469.35205078 267.86987305 C469.35205078 268.52987305 469.35205078 269.18987305 469.35205078 269.86987305 C470.44453125 270.03422852 470.44453125 270.03422852 471.55908203 270.2019043 C474.52478018 270.91118315 476.46821338 271.938068 479.03955078 273.55737305 C479.90966797 274.09749023 480.77978516 274.63760742 481.67626953 275.1940918 C482.55927734 275.74709961 483.44228516 276.30010742 484.35205078 276.86987305 C486.01643627 277.87366522 487.68306949 278.87374091 489.35205078 279.86987305 C491.90322258 281.39816936 494.45155835 282.93037247 496.99267578 284.4753418 C500.40650145 286.54510137 503.77993034 288.58381282 507.35205078 290.36987305 C512.68757041 293.03763286 517.72583494 296.24631789 522.79736328 299.3815918 C527.14606984 302.04534935 531.50572423 304.4695527 536.10205078 306.68237305 C541.41442918 309.28059663 546.27738035 312.30874311 551.20825195 315.54833984 C556.4341983 318.9681068 561.82564024 321.96123592 567.35205078 324.86987305 C569.15101418 325.83566431 570.94777622 326.80547097 572.74438477 327.77563477 C575.27843212 329.14380667 577.81529984 330.5067223 580.35205078 331.86987305 C580.35205078 332.52987305 580.35205078 333.18987305 580.35205078 333.86987305 C581.25955078 334.15862305 582.16705078 334.44737305 583.10205078 334.74487305 C585.67407986 335.6351908 587.96551844 336.58481717 590.35205078 337.86987305 C590.35205078 338.52987305 590.35205078 339.18987305 590.35205078 339.86987305 C591.44453125 340.03422852 591.44453125 340.03422852 592.55908203 340.2019043 C595.52478018 340.91118315 597.46821338 341.938068 600.03955078 343.55737305 C600.91224609 344.0987793 601.78494141 344.64018555 602.68408203 345.19799805 C604.00472656 346.02557617 604.00472656 346.02557617 605.35205078 346.86987305 C606.97453763 347.85319841 608.59951632 348.83242487 610.22705078 349.80737305 C611.46261719 350.54793945 611.46261719 350.54793945 612.72314453 351.3034668 C619.31031529 355.22836349 625.90863992 359.11632745 632.66455078 362.74487305 C637.86010384 365.55001925 642.91536851 368.56220732 647.96264648 371.62329102 C650.95200817 373.43568471 653.9499279 375.22346807 656.98876953 376.9519043 C659.82660962 378.57023123 662.62568974 380.23184802 665.41455078 381.93237305 C668.0354729 383.51280879 670.61308012 385.00038772 673.35205078 386.36987305 C678.75870205 389.07319868 683.84790164 392.34528813 689.00830078 395.48706055 C692.41775328 397.55121703 695.78584525 399.58677028 699.35205078 401.36987305 C704.69797035 404.04283283 709.73147173 407.27276424 714.83251953 410.3815918 C718.97888021 412.89313936 723.14472345 415.32371212 727.41455078 417.61987305 C732.98258813 420.62409659 738.42222927 423.82637365 743.86621094 427.04760742 C748.48519312 429.77854599 753.12384842 432.46960959 757.78955078 435.11987305 C765.77555245 439.67024928 773.64731449 444.29985565 781.24658203 449.4753418 C782.74340951 450.46674701 784.27248625 451.41019197 785.82080078 452.3190918 C798.2615518 459.94097167 808.82463149 470.96928478 818.35205078 481.86987305 C818.89087891 482.48217773 819.42970703 483.09448242 819.98486328 483.7253418 C822.46757842 486.61688727 824.41098025 489.60120613 826.35205078 492.86987305 C827.47275227 494.62262893 828.59792231 496.37253396 829.72705078 498.11987305 C834.3061727 505.32114478 838.34185053 512.37173746 841.38720703 520.3581543 C842.00750076 521.97292704 842.65891685 523.57626671 843.34814453 525.1628418 C846.31157878 532.04677271 848.14977814 539.15737448 849.79900805 546.45214726 C850.20923411 548.24552428 850.64530756 550.03303046 851.0950604 551.81690516 C853.24593826 560.84578309 853.77990269 569.47181265 853.73795414 578.69769573 C853.74200301 580.2543743 853.74735971 581.81104991 853.75389084 583.36772004 C853.76798603 587.6248627 853.76360698 591.88181128 853.75605753 596.13896307 C853.75113584 600.7784657 853.76359943 605.41792811 853.77378505 610.05741769 C853.78921542 618.18237558 853.79350416 626.30727988 853.79041672 634.43225098 C853.78583654 646.51514651 853.79833927 658.59798285 853.81404059 670.68086687 C853.8430408 693.52033808 853.85149262 716.35978908 853.85321177 739.19927653 C853.85459108 756.84221337 853.86076964 774.48514229 853.87031364 792.12807655 C853.87300635 797.20902976 853.87567579 802.28998299 853.87833828 807.37093621 C853.87900142 808.6341377 853.87966457 809.89733919 853.88034781 811.19881951 C853.89880895 846.72797241 853.91066736 882.25712304 853.90931797 917.78628063 C853.90927064 919.13914123 853.90922343 920.49200183 853.90917635 921.84486243 C853.90895621 927.95250409 853.9086917 934.06014575 853.90841469 940.16778741 C853.90829132 942.89116574 853.90817088 945.61454408 853.90805075 948.33792241 C853.90798957 949.70102139 853.90792651 951.06412036 853.90786157 952.42721934 C853.905822 995.50571038 853.92775502 1038.58412737 853.96948242 1081.66259766 C853.97998635 1092.51246462 853.99039513 1103.36233166 854.00027561 1114.21219921 C854.00088423 1114.88035995 854.00149286 1115.54852069 854.00211992 1116.23692873 C854.03482787 1152.36359465 854.04070497 1188.49026549 854.03859276 1224.61694509 C854.03836887 1229.70198492 854.03822275 1234.78702475 854.03812981 1239.87206459 C854.03809484 1241.1240938 854.03805988 1242.37612301 854.03802386 1243.6660925 C854.03793168 1263.78346647 854.05706047 1283.90077773 854.0829266 1304.01813308 C854.10840407 1324.25234712 854.11128859 1344.48646981 854.09159864 1364.72069105 C854.08054281 1376.72837941 854.0859163 1388.73578955 854.11542566 1400.74344822 C854.13350326 1408.78140327 854.12945318 1416.81915809 854.10801416 1424.85710418 C854.0964346 1429.42577746 854.09385058 1433.99391477 854.11838622 1438.56254902 C854.23180834 1461.15536678 854.05187669 1483.91559474 844.35205078 1504.86987305 C843.93467952 1506.17568372 843.53563247 1507.48766147 843.16455078 1508.80737305 C838.50799908 1523.12014249 829.89346214 1538.31197784 820.35205078 1549.86987305 C819.69205078 1549.86987305 819.03205078 1549.86987305 818.35205078 1549.86987305 C818.12517578 1550.59174805 817.89830078 1551.31362305 817.66455078 1552.05737305 C816.08167935 1555.44924039 814.03980114 1557.27068753 811.35205078 1559.86987305 C810.53865234 1560.69487305 809.72525391 1561.51987305 808.88720703 1562.36987305 C807.66324219 1563.60737305 807.66324219 1563.60737305 806.41455078 1564.86987305 C805.60115234 1565.69487305 804.78775391 1566.51987305 803.94970703 1567.36987305 C794.35012994 1576.60856378 780.80924842 1589.10384397 767.35205078 1591.86987305 C767.35205078 1592.52987305 767.35205078 1593.18987305 767.35205078 1593.86987305 C766.46066406 1594.28946289 766.46066406 1594.28946289 765.55126953 1594.7175293 C759.81367731 1597.49263222 754.49378806 1600.62685018 749.15673828 1604.10424805 C745.45455216 1606.43487218 741.6237531 1608.47862279 737.76611328 1610.5378418 C735.21331667 1611.89739656 735.21331667 1611.89739656 732.41455078 1613.86987305 C729.49952837 1615.77356115 726.59972166 1617.2752761 723.47705078 1618.80737305 C719.38977512 1620.81849277 715.50119225 1622.91307563 711.68017578 1625.38549805 C708.420633 1627.46373002 705.10527058 1629.44536583 701.78955078 1631.43237305 C701.16395264 1631.8085376 700.53835449 1632.18470215 699.89379883 1632.57226562 C696.84123324 1634.40236112 693.77738984 1636.20706956 690.68408203 1637.9675293 C687.96250197 1639.5213505 685.27662907 1641.11245802 682.60205078 1642.74487305 C678.27831061 1645.35212088 673.87479193 1647.76503971 669.42626953 1650.15112305 C667.08000796 1651.46288301 664.78644067 1652.80898133 662.49658203 1654.21362305 C661.83102295 1654.6212085 661.16546387 1655.02879395 660.47973633 1655.44873047 C659.17113893 1656.25481881 657.86641067 1657.06723157 656.56616211 1657.88671875 C653.18255452 1659.97029207 650.32206743 1661.40947188 646.35205078 1661.86987305 C646.35205078 1662.52987305 646.35205078 1663.18987305 646.35205078 1663.86987305 C645.67400391 1664.23338867 644.99595703 1664.5969043 644.29736328 1664.97143555 C639.59023141 1667.5140691 634.92446625 1670.09113825 630.35205078 1672.86987305 C615.52333358 1681.84764273 615.52333358 1681.84764273 610.35205078 1682.86987305 C610.35205078 1683.52987305 610.35205078 1684.18987305 610.35205078 1684.86987305 C609.46066406 1685.28946289 609.46066406 1685.28946289 608.55126953 1685.7175293 C602.80578656 1688.49644874 597.4806129 1691.63871187 592.13330078 1695.1159668 C588.56447719 1697.36653111 584.88250166 1699.35152435 581.16455078 1701.3425293 C576.15636487 1704.06225248 571.26371545 1706.98065854 566.35205078 1709.86987305 C564.24844153 1711.09999344 562.14428307 1712.32917515 560.03955078 1713.55737305 C559.04568359 1714.13745117 558.05181641 1714.7175293 557.02783203 1715.31518555 C554.93347417 1716.53205333 552.83430317 1717.73809886 550.72705078 1718.93237305 C547.91410513 1720.54721222 545.13051073 1722.19695647 542.35205078 1723.86987305 C532.28927051 1729.92278785 532.28927051 1729.92278785 527.53955078 1732.24487305 C522.06834865 1735.03411335 516.86185182 1738.29623872 511.66064453 1741.55737305 C510.79568359 1742.09362305 509.93072266 1742.62987305 509.03955078 1743.18237305 C508.25966797 1743.67350586 507.47978516 1744.16463867 506.67626953 1744.6706543 C504.22078686 1745.93760082 502.07299162 1746.46052797 499.35205078 1746.86987305 C499.35205078 1747.52987305 499.35205078 1748.18987305 499.35205078 1748.86987305 C498.67400391 1749.23338867 497.99595703 1749.5969043 497.29736328 1749.97143555 C490.03715423 1753.89315512 482.94392937 1758.03045054 475.92626953 1762.36987305 C470.46333972 1765.71559083 464.90670637 1768.6397688 459.11376953 1771.37768555 C456.22343735 1772.93936432 453.89268323 1774.79802286 451.35205078 1776.86987305 C449.50048828 1777.8894043 449.50048828 1777.8894043 447.72705078 1778.68237305 C444.33426718 1780.30252252 441.24626479 1782.18346473 438.10205078 1784.24487305 C433.26373208 1787.38541833 428.29037924 1789.95914333 423.10986328 1792.4831543 C420.16662706 1793.96311019 417.42862282 1795.60818069 414.66455078 1797.39331055 C406.18592031 1802.80703068 397.49320766 1807.8622341 388.62548828 1812.6081543 C386.1923786 1813.91340173 386.1923786 1813.91340173 383.41455078 1815.86987305 C380.49952837 1817.77356115 377.59972166 1819.2752761 374.47705078 1820.80737305 C368.52565542 1823.73151161 363.01845858 1826.99126755 357.60205078 1830.80737305 C353.63698658 1833.32366379 349.49542754 1835.29874995 345.25439453 1837.30737305 C342.32810029 1838.76417418 342.32810029 1838.76417418 339.98095703 1840.80737305 C337.25047514 1842.94956389 334.59034518 1844.32149552 331.47998047 1845.81616211 C327.87005174 1847.60373122 324.43574521 1849.68373477 320.97705078 1851.74487305 C320.23245605 1852.18541016 319.48786133 1852.62594727 318.72070312 1853.07983398 C314.79367535 1855.40613858 310.88098127 1857.75499208 306.97705078 1860.11987305 C302.90787735 1862.57364597 298.75334797 1864.83442089 294.56689453 1867.08081055 C292.00819562 1868.50472805 289.49214256 1869.96698899 286.98095703 1871.47143555 C286.21726807 1871.92808594 285.4535791 1872.38473633 284.66674805 1872.85522461 C283.14169684 1873.77080224 281.61994641 1874.69190391 280.10180664 1875.61889648 C279.40063721 1876.03945312 278.69946777 1876.46000977 277.97705078 1876.89331055 C277.35056641 1877.27406738 276.72408203 1877.65482422 276.07861328 1878.04711914 C274.35205078 1878.86987305 274.35205078 1878.86987305 271.35205078 1878.86987305 C271.35205078 1879.52987305 271.35205078 1880.18987305 271.35205078 1880.86987305 C270.06291591 1881.54142238 268.77064874 1882.20696164 267.47705078 1882.86987305 C266.75775391 1883.24112305 266.03845703 1883.61237305 265.29736328 1883.99487305 C263.35205078 1884.86987305 263.35205078 1884.86987305 261.35205078 1884.86987305 C261.35205078 1885.52987305 261.35205078 1886.18987305 261.35205078 1886.86987305 C260.67400391 1887.23338867 259.99595703 1887.5969043 259.29736328 1887.97143555 C254.59023141 1890.5140691 249.92446625 1893.09113825 245.35205078 1895.86987305 C242.00181013 1897.90526258 238.61926836 1899.82999125 235.16455078 1901.68237305 C230.64432393 1904.11830859 226.2419727 1906.70963227 221.85205078 1909.36987305 C215.77602881 1913.0494587 209.61557385 1916.51756492 203.35205078 1919.86987305 C198.18389368 1922.67099782 193.23077921 1925.58203432 188.35205078 1928.86987305 C184.11968828 1931.42088606 179.77149878 1933.66014905 175.35205078 1935.86987305 C165.46015123 1941.16726859 165.46015123 1941.16726859 156.30126953 1947.5534668 C154.35205078 1948.86987305 154.35205078 1948.86987305 150.35205078 1948.86987305 C150.35205078 1949.52987305 150.35205078 1950.18987305 150.35205078 1950.86987305 C149.67400391 1951.23338867 148.99595703 1951.5969043 148.29736328 1951.97143555 C142.770984 1954.95659887 137.3312129 1958.03786944 131.96142578 1961.2956543 C125.93676436 1964.93029285 119.84758539 1968.46166989 113.72705078 1971.93237305 C110.99349758 1973.50163507 108.29653089 1975.11044703 105.60205078 1976.74487305 C102.16662397 1978.81646124 98.69960584 1980.78615481 95.16455078 1982.68237305 C89.9809303 1985.47580926 84.95289012 1988.48915169 79.91992188 1991.54174805 C75.22865989 1994.37547681 70.45805448 1997.02181021 65.62548828 1999.6081543 C63.1923786 2000.91340173 63.1923786 2000.91340173 60.41455078 2002.86987305 C57.49952837 2004.77356115 54.59972166 2006.2752761 51.47705078 2007.80737305 C45.46676243 2010.76044789 39.94219677 2014.1063694 34.41455078 2017.86987305 C-0.69673213 2040.79969046 -49.94065618 2045.11175794 -90.35571289 2037.0012207 C-95.94412363 2035.75180803 -101.13610064 2034.0379691 -106.39648438 2031.77636719 C-108.70367679 2030.84743578 -110.99202225 2030.1809185 -113.39794922 2029.55737305 C-123.48868769 2026.65608647 -132.96621225 2020.91835604 -141.89794922 2015.5065918 C-146.18259972 2012.9157172 -150.47481269 2010.40553817 -154.89794922 2008.05737305 C-160.01267228 2005.30720901 -164.8641128 2002.23371763 -169.70166016 1999.02880859 C-173.24618431 1996.69712814 -176.83214095 1994.71839722 -180.64794922 1992.86987305 C-182.27875371 1991.98465043 -183.90437104 1991.08975778 -185.52294922 1990.18237305 C-186.30412109 1989.74538086 -187.08529297 1989.30838867 -187.89013672 1988.8581543 C-188.47021484 1988.53202148 -189.05029297 1988.20588867 -189.64794922 1987.86987305 C-189.64794922 1987.20987305 -189.64794922 1986.54987305 -189.64794922 1985.86987305 C-190.49357422 1985.62237305 -191.33919922 1985.37487305 -192.21044922 1985.11987305 C-199.21618231 1982.57233374 -205.38232822 1978.1945657 -211.69873047 1974.29174805 C-216.45267622 1971.36662499 -221.23723035 1968.49261973 -226.02294922 1965.61987305 C-226.86688232 1965.11262695 -227.71081543 1964.60538086 -228.58032227 1964.08276367 C-232.19629863 1961.91482457 -235.81602011 1959.76244695 -239.48779297 1957.69018555 C-242.04166167 1956.21910667 -244.43258207 1954.69270732 -246.83544922 1952.99487305 C-251.28554115 1949.98004968 -255.95802274 1947.66020576 -260.78466797 1945.3112793 C-265.68057051 1942.84662986 -270.17066095 1939.86478148 -274.71044922 1936.80737305 C-280.62079312 1932.90906111 -286.91400058 1929.58672526 -293.08544922 1926.11987305 C-293.81699219 1925.70866211 -294.54853516 1925.29745117 -295.30224609 1924.8737793 C-297.08402356 1923.87225732 -298.86596874 1922.87103375 -300.64794922 1921.86987305 C-300.64794922 1921.20987305 -300.64794922 1920.54987305 -300.64794922 1919.86987305 C-301.43169922 1919.66362305 -302.21544922 1919.45737305 -303.02294922 1919.24487305 C-307.95257662 1917.37501438 -312.1820262 1914.64688945 -316.64794922 1911.86987305 C-318.16668883 1910.94974165 -319.6875457 1910.03309628 -321.21044922 1909.11987305 C-322.03158203 1908.62745117 -322.85271484 1908.1350293 -323.69873047 1907.62768555 C-332.71807209 1902.25191902 -341.7627957 1896.92167493 -350.89794922 1891.74487305 C-356.43700242 1888.59323388 -361.87436407 1885.30486371 -367.28857422 1881.9440918 C-370.95350219 1879.68121185 -374.64066505 1877.45849844 -378.33544922 1875.24487305 C-378.97111816 1874.86210205 -379.60678711 1874.47933105 -380.26171875 1874.08496094 C-382.98054195 1872.45062804 -385.70292136 1870.83896074 -388.46826172 1869.28393555 C-395.8019789 1865.12279821 -402.92398169 1859.95582434 -407.64794922 1852.86987305 C-408.19684163 1848.63556012 -408.23044203 1846.65259776 -405.64794922 1843.18237305 C-399.37290699 1838.34536133 -392.75974819 1836.16777251 -385.20654297 1833.93237305 C-375.55568968 1831.05088886 -366.08551926 1827.7338711 -356.71044922 1824.05737305 C-353.78845619 1822.92435534 -350.85067114 1821.85722973 -347.89794922 1820.80737305 C-339.78347003 1817.85771323 -332.2450242 1814.18055401 -324.65551758 1810.07617188 C-319.97181676 1807.54988949 -315.23535845 1805.15593286 -310.46044922 1802.80737305 C-304.65608765 1799.94148697 -299.04235206 1796.85938692 -293.47998047 1793.54174805 C-277.07717567 1783.85843708 -277.07717567 1783.85843708 -265.64794922 1784.86987305 C-262.64974339 1785.76021682 -260.26192762 1787.17177723 -257.64794922 1788.86987305 C-256.76107422 1789.42545898 -255.87419922 1789.98104492 -254.96044922 1790.5534668 C-253.04767207 1791.76194692 -251.14134019 1792.98069084 -249.24169922 1794.2097168 C-246.10157232 1796.21958718 -242.89590735 1798.03920574 -239.64794922 1799.86987305 C-237.11304366 1801.38257279 -234.58567119 1802.90744652 -232.05810547 1804.43237305 C-230.08243463 1805.61073102 -228.09491625 1806.75091229 -226.08544922 1807.86987305 C-223.36528359 1809.45251487 -220.8051149 1811.09877019 -218.21044922 1812.86987305 C-214.80387801 1815.175505 -211.38606973 1817.04219661 -207.67919922 1818.80737305 C-204.58506504 1820.42584323 -201.77903312 1822.43744338 -198.90185547 1824.40893555 C-195.61390069 1826.54012287 -192.18800158 1828.19639375 -188.64794922 1829.86987305 C-188.64794922 1830.52987305 -188.64794922 1831.18987305 -188.64794922 1831.86987305 C-187.93123047 1831.9678418 -187.21451172 1832.06581055 -186.47607422 1832.16674805 C-183.23844692 1832.97168301 -181.16106656 1834.26163624 -178.39794922 1836.11987305 C-173.595412 1839.28029442 -168.71392371 1842.15551141 -163.64794922 1844.86987305 C-163.64794922 1845.52987305 -163.64794922 1846.18987305 -163.64794922 1846.86987305 C-162.55353516 1847.03616211 -162.55353516 1847.03616211 -161.43701172 1847.20581055 C-158.49988284 1847.90512695 -156.57356094 1848.89967441 -154.02294922 1850.49487305 C-153.15412109 1851.03370117 -152.28529297 1851.5725293 -151.39013672 1852.12768555 C-147.71809707 1854.46063381 -144.04687958 1856.79470998 -140.38232422 1859.1394043 C-135.03405472 1862.52409485 -129.61113502 1865.78311063 -124.08544922 1868.86987305 C-121.43583813 1870.41146495 -118.97462075 1872.00567912 -116.46044922 1873.74487305 C-112.00178351 1876.7734007 -107.32043379 1879.09466202 -102.44482422 1881.37768555 C-99.52802802 1882.93385335 -97.18886485 1884.76587613 -94.64794922 1886.86987305 C-92.99682496 1887.84112261 -91.34356715 1888.80955289 -89.66748047 1889.73706055 C-87.29725632 1891.06658667 -84.97422898 1892.46492715 -82.64794922 1893.86987305 C-81.79201172 1894.38291992 -80.93607422 1894.8959668 -80.05419922 1895.42456055 C-78.63378688 1896.2777303 -77.21596683 1897.13528596 -75.80419922 1898.00268555 C-68.50219974 1902.37699655 -61.25988792 1905.96345256 -52.64794922 1904.86987305 C-46.76739739 1902.96324604 -41.5519655 1899.72681107 -36.31201172 1896.5065918 C-29.65775472 1892.41841924 -22.8939195 1888.51905375 -16.02294922 1884.80737305 C-11.61777026 1882.42756372 -7.32541213 1879.9019286 -3.04638672 1877.3034668 C-0.77058133 1875.9431727 1.52819599 1874.64595471 3.85205078 1873.36987305 C8.76544268 1870.66707575 13.55654077 1867.77534434 18.35205078 1864.86987305 C36.46134185 1853.94034906 36.46134185 1853.94034906 45.53955078 1849.05737305 C55.31071945 1843.7711005 64.82134271 1838.00769616 74.32958984 1832.265625 C79.96660846 1828.86179994 85.64145488 1825.58122672 91.45361328 1822.4831543 C93.73602148 1821.21275728 95.96261945 1819.90288763 98.18798828 1818.5378418 C98.85636719 1818.12856445 99.52474609 1817.71928711 100.21337891 1817.29760742 C101.52606711 1816.48911371 102.83488634 1815.67429384 104.13916016 1814.85229492 C107.52235582 1812.76893964 110.38254059 1811.33021548 114.35205078 1810.86987305 C114.35205078 1810.20987305 114.35205078 1809.54987305 114.35205078 1808.86987305 C115.64118565 1808.19832372 116.93345282 1807.53278446 118.22705078 1806.86987305 C118.94634766 1806.49862305 119.66564453 1806.12737305 120.40673828 1805.74487305 C122.35205078 1804.86987305 122.35205078 1804.86987305 124.35205078 1804.86987305 C124.35205078 1804.20987305 124.35205078 1803.54987305 124.35205078 1802.86987305 C124.89990234 1802.61334961 125.44775391 1802.35682617 126.01220703 1802.0925293 C133.46206059 1798.49479514 140.46025025 1794.26943225 147.52099609 1789.9777832 C153.77866861 1786.19147415 160.0995127 1782.52434092 166.53955078 1779.05737305 C171.43513192 1776.41034371 176.24273094 1773.62802174 181.03955078 1770.80737305 C181.74039795 1770.39575928 182.44124512 1769.98414551 183.16333008 1769.56005859 C186.6417993 1767.50636644 190.08608888 1765.4136447 193.49658203 1763.2487793 C196.69334159 1761.23948835 199.94264828 1759.50045685 203.35205078 1757.86987305 C207.51035527 1755.82719716 211.46113069 1753.67453949 215.34814453 1751.15893555 C219.2854345 1748.62617592 223.33281578 1746.26961205 227.35205078 1743.86987305 C228.21443359 1743.31557617 229.07681641 1742.7612793 229.96533203 1742.19018555 C232.35205078 1740.86987305 232.35205078 1740.86987305 235.35205078 1740.86987305 C235.35205078 1740.20987305 235.35205078 1739.54987305 235.35205078 1738.86987305 C236.03009766 1738.50635742 236.70814453 1738.1428418 237.40673828 1737.76831055 C243.82920091 1734.29911328 250.11962765 1730.66821596 256.35205078 1726.86987305 C261.61268657 1723.66673037 266.8418949 1720.62495099 272.35205078 1717.86987305 C276.53994412 1715.43181626 280.67564716 1712.90624398 284.79736328 1710.3581543 C290.25344438 1707.01608533 295.80444503 1704.09664532 301.59033203 1701.36206055 C304.41064533 1699.94542693 304.41064533 1699.94542693 306.83251953 1697.87768555 C309.54311298 1695.71761573 312.23154631 1694.36402987 315.35205078 1692.86987305 C317.25708534 1691.78165828 319.15283485 1690.67704758 321.03955078 1689.55737305 C325.86630342 1686.71740487 330.7456948 1684.00862403 335.67626953 1681.35424805 C339.24402371 1679.37505595 342.705485 1677.23781631 346.16064453 1675.0690918 C348.24931524 1673.92609375 350.02594596 1673.32025781 352.35205078 1672.86987305 C352.35205078 1672.20987305 352.35205078 1671.54987305 352.35205078 1670.86987305 C352.89990234 1670.61334961 353.44775391 1670.35682617 354.01220703 1670.0925293 C361.46206059 1666.49479514 368.46025025 1662.26943225 375.52099609 1657.9777832 C382.00322882 1654.05560025 388.55814968 1650.27746798 395.22705078 1646.68237305 C398.03733879 1645.16513778 400.69185725 1643.6433354 403.35205078 1641.86987305 C405.95517025 1640.13446007 408.53615997 1638.65812583 411.28955078 1637.18237305 C415.89573119 1634.70694276 420.38262813 1632.08064928 424.85205078 1629.36987305 C429.99075917 1626.25552381 435.17935673 1623.30167343 440.47705078 1620.46362305 C443.98868637 1618.51695549 447.41839192 1616.45009696 450.85205078 1614.36987305 C468.12851482 1603.92658837 468.12851482 1603.92658837 473.35205078 1602.86987305 C473.35205078 1602.20987305 473.35205078 1601.54987305 473.35205078 1600.86987305 C473.89990234 1600.61334961 474.44775391 1600.35682617 475.01220703 1600.0925293 C482.49354967 1596.47958822 489.53604122 1592.24810562 496.62011719 1587.92602539 C506.18631256 1582.09245319 515.79218459 1576.29724183 525.66455078 1570.99487305 C530.14174291 1568.57861063 534.50195316 1566.00493909 538.85205078 1563.36987305 C544.92820288 1559.69037014 551.089061 1556.2232849 557.35205078 1552.86987305 C568.24759849 1547.06929552 568.24759849 1547.06929552 578.50048828 1540.2487793 C580.6768019 1538.62802253 582.82903306 1537.86734517 585.35205078 1536.86987305 C587.71548891 1535.57229917 590.03558259 1534.24638972 592.35205078 1532.86987305 C593.18736328 1532.37874023 594.02267578 1531.88760742 594.88330078 1531.3815918 C599.80757776 1528.52408259 599.80757776 1528.52408259 604.40283203 1525.1862793 C606.35205078 1523.86987305 606.35205078 1523.86987305 610.35205078 1523.86987305 C610.35205078 1523.20987305 610.35205078 1522.54987305 610.35205078 1521.86987305 C611.64118565 1521.19832372 612.93345282 1520.53278446 614.22705078 1519.86987305 C614.94634766 1519.49862305 615.66564453 1519.12737305 616.40673828 1518.74487305 C618.35205078 1517.86987305 618.35205078 1517.86987305 620.35205078 1517.86987305 C620.35205078 1517.20987305 620.35205078 1516.54987305 620.35205078 1515.86987305 C621.03009766 1515.50635742 621.70814453 1515.1428418 622.40673828 1514.76831055 C627.96313709 1511.76693169 633.41729962 1508.65401542 638.81298828 1505.3737793 C641.50031506 1503.78205497 644.22725248 1502.28832502 646.97705078 1500.80737305 C650.17081867 1499.0852433 653.29432372 1497.32307421 656.35205078 1495.36987305 C659.30928589 1493.48202195 662.32228803 1491.77758091 665.41455078 1490.11987305 C670.64141594 1487.30708014 675.71051558 1484.27536185 680.78369141 1481.19824219 C685.46318556 1478.37174629 690.21942877 1475.72832223 695.04345703 1473.1550293 C697.07048459 1472.02661632 698.95505857 1470.82601428 700.85205078 1469.49487305 C703.35205078 1467.86987305 703.35205078 1467.86987305 706.35205078 1467.86987305 C706.35205078 1467.20987305 706.35205078 1466.54987305 706.35205078 1465.86987305 C706.9662898 1465.43164033 707.58052882 1464.99340761 708.21338114 1464.54189511 C712.23123452 1461.40071829 713.19604611 1456.68346396 714.35205078 1451.86987305 C714.88769086 1446.88047102 714.88918685 1441.91905926 714.85262203 1436.9075222 C714.85649715 1435.40858136 714.86212438 1433.90964422 714.86933163 1432.4107157 C714.88403917 1428.29995534 714.87394526 1424.1895775 714.85971964 1420.07882935 C714.84865255 1415.60356375 714.86083275 1411.12835067 714.87002712 1406.65308917 C714.88292828 1398.81235599 714.88097094 1390.97173585 714.86924744 1383.13100243 C714.85186215 1371.47169037 714.85736516 1359.81246719 714.86741435 1348.15315054 C714.88460919 1327.33035843 714.87906377 1306.50761896 714.86405716 1285.68482794 C714.85101003 1267.46380675 714.84580852 1249.24280383 714.84837532 1231.02177811 C714.84853574 1229.81355963 714.84869615 1228.60534115 714.84886143 1227.36050999 C714.849525 1222.45609061 714.85022741 1217.55167124 714.85098677 1212.64725188 C714.85801194 1166.6338349 714.84251538 1120.62045008 714.81636331 1074.60704129 C714.79324507 1033.71482407 714.78786104 992.8226422 714.7980957 951.93041992 C714.80069765 941.45838612 714.80328265 930.98635232 714.80569363 920.51431847 C714.80599107 919.22514054 714.80628852 917.93596262 714.80659498 916.60771869 C714.81420709 882.45016629 714.80780027 848.29261679 714.79699761 814.13506567 C714.79584979 810.46042433 714.79470661 806.78578299 714.79357078 803.11114164 C714.79281553 800.67342672 714.79204989 798.2357118 714.79127377 795.79799689 C714.78561188 777.58575033 714.78694778 759.37351292 714.791502 741.16126633 C714.79660559 720.45766746 714.79077547 699.75410285 714.7706077 679.05051254 C714.75960718 667.45905292 714.75684132 655.86766064 714.76589623 644.27619894 C714.77110595 636.53855134 714.76544327 628.8009615 714.75084289 621.06332603 C714.74281948 616.65147744 714.73954959 612.23976522 714.74941545 607.82791726 C714.75828898 603.81424076 714.7533622 599.80082663 714.73743602 595.78717408 C714.73412203 594.3443908 714.73582257 592.90158503 714.7431645 591.45881663 C714.78694475 582.16896688 714.45027245 574.4299317 709.13330078 566.60424805 C705.94327113 563.46798294 702.72050586 561.31838118 698.85205078 559.11987305 C698.20107422 558.73444336 697.55009766 558.34901367 696.87939453 557.9519043 C693.4565737 555.95353011 690.09206965 554.22203372 686.35205078 552.86987305 C686.35205078 552.20987305 686.35205078 551.54987305 686.35205078 550.86987305 C685.54767578 550.64299805 684.74330078 550.41612305 683.91455078 550.18237305 C675.67866193 547.14809821 668.26344097 542.05849821 660.72949219 537.60327148 C655.81639908 534.70583406 650.85240334 531.93086324 645.82861328 529.22924805 C640.71500339 526.42240855 635.76039872 523.34347407 630.78564453 520.29956055 C625.73990897 517.23360215 620.67252641 514.43158353 615.35205078 511.86987305 C615.35205078 511.20987305 615.35205078 510.54987305 615.35205078 509.86987305 C614.54767578 509.64299805 613.74330078 509.41612305 612.91455078 509.18237305 C605.09486078 506.30143463 598.11087913 501.53603161 591.00268555 497.23876953 C586.47721159 494.5135403 581.88391856 491.95837364 577.22705078 489.46362305 C573.71543199 487.5169648 570.28550901 485.45040519 566.85205078 483.36987305 C559.5023252 478.91873561 552.0583238 474.67872063 544.35205078 470.86987305 C544.35205078 470.20987305 544.35205078 469.54987305 544.35205078 468.86987305 C543.20736328 468.56049805 543.20736328 468.56049805 542.03955078 468.24487305 C533.82327119 465.18117557 526.43669447 460.40651101 519.15283203 455.58081055 C516.99178635 454.26067386 514.90167511 453.12980987 512.63330078 452.02612305 C507.75966967 449.63489564 503.16955843 446.8222573 498.53955078 443.99487305 C490.28341013 438.99542224 482.00533572 434.1571824 473.35205078 429.86987305 C473.35205078 429.20987305 473.35205078 428.54987305 473.35205078 427.86987305 C472.20736328 427.56049805 472.20736328 427.56049805 471.03955078 427.24487305 C462.7571705 424.15652786 455.31443942 419.32469765 447.95751953 414.4831543 C445.16455792 412.75377927 442.29542343 411.32638735 439.35205078 409.86987305 C437.44701622 408.78165828 435.55126671 407.67704758 433.66455078 406.55737305 C429.63986353 404.1875572 425.59091933 401.89364755 421.47705078 399.68237305 C417.61415273 397.59895021 414.00441021 395.30477933 410.35205078 392.86987305 C407.715564 391.47210126 405.04509212 390.15487754 402.35205078 388.86987305 C402.35205078 388.20987305 402.35205078 387.54987305 402.35205078 386.86987305 C401.24216797 386.69584961 401.24216797 386.69584961 400.10986328 386.51831055 C397.31831861 385.86194169 395.62808964 385.02763955 393.22705078 383.49487305 C388.16070719 380.34552433 383.02150349 377.34548003 377.85205078 374.36987305 C372.72189988 371.41122248 367.60239119 368.4429173 362.53955078 365.36987305 C360.16360082 363.93039906 357.84053799 362.61411665 355.35205078 361.36987305 C352.69168262 360.03968897 350.20442517 358.60043645 347.66455078 357.05737305 C342.32295742 353.81339169 336.85899113 350.82226312 331.35205078 347.86987305 C331.35205078 347.20987305 331.35205078 346.54987305 331.35205078 345.86987305 C330.62115234 345.75901367 329.89025391 345.6481543 329.13720703 345.53393555 C326.20892005 344.83574651 324.32322879 343.84824966 321.78955078 342.24487305 C317.94344733 339.85684464 314.07845215 337.52062522 310.16455078 335.24487305 C308.64667969 334.3612207 308.64667969 334.3612207 307.09814453 333.4597168 C304.97937241 332.23305925 302.85667571 331.01499565 300.72705078 329.80737305 C297.88850799 328.17783922 295.08807674 326.50395342 292.28955078 324.80737305 C289.66862867 323.22693731 287.09102144 321.73935838 284.35205078 320.36987305 C278.94539951 317.66654741 273.85619993 314.39445797 268.69580078 311.25268555 C265.28634828 309.18852906 261.91825631 307.15297581 258.35205078 305.36987305 C252.96902935 302.67836233 247.89727732 299.42699804 242.76611328 296.2878418 C241.92822266 295.77866211 241.09033203 295.26948242 240.22705078 294.74487305 C239.48197266 294.28854492 238.73689453 293.8322168 237.96923828 293.36206055 C235.8437234 292.15019982 233.72155404 291.04924041 231.52783203 289.97143555 C227.45370431 287.95624492 223.56170789 285.70532094 219.66455078 283.36987305 C212.04815655 278.84369134 204.37039536 274.432949 196.65991211 270.0690918 C192.06803457 267.4606041 187.53883736 264.78701322 183.08227539 261.95288086 C180.84841781 260.55463164 178.55869263 259.2596294 176.26220703 257.9675293 C173.16170878 256.18585239 170.1214479 254.30416042 167.07470703 252.43237305 C164.92274138 251.19738559 162.78339829 250.0784715 160.55908203 248.98706055 C156.24188516 246.85403612 152.1121138 244.45887856 147.97705078 241.99487305 C147.23680664 241.55723633 146.4965625 241.11959961 145.73388672 240.66870117 C140.93988341 237.83044998 136.16798158 234.95742735 131.43017578 232.02612305 C129.13721649 230.75034119 126.80468483 229.79604255 124.35205078 228.86987305 C124.35205078 228.20987305 124.35205078 227.54987305 124.35205078 226.86987305 C123.54767578 226.64299805 122.74330078 226.41612305 121.91455078 226.18237305 C114.09486078 223.30143463 107.11087913 218.53603161 100.00268555 214.23876953 C95.47721159 211.5135403 90.88391856 208.95837364 86.22705078 206.46362305 C82.71543199 204.5169648 79.28550901 202.45040519 75.85205078 200.36987305 C68.5023252 195.91873561 61.0583238 191.67872063 53.35205078 187.86987305 C53.35205078 187.20987305 53.35205078 186.54987305 53.35205078 185.86987305 C52.56572266 185.65459961 51.77939453 185.43932617 50.96923828 185.2175293 C46.1494757 183.42182942 41.90694558 180.90128551 37.47705078 178.30737305 C35.59843821 177.21962611 33.71952893 176.13239145 31.84033203 175.0456543 C30.9130127 174.50763184 29.98569336 173.96960938 29.03027344 173.4152832 C25.26100259 171.24030741 21.46453327 169.11556801 17.66455078 166.99487305 C12.74624843 164.24185724 7.88708544 161.41086158 3.07080078 158.4831543 C-3.71555099 154.45619556 -10.58955859 150.39906836 -17.64794922 146.86987305 C-17.64794922 146.20987305 -17.64794922 145.54987305 -17.64794922 144.86987305 C-18.45232422 144.64299805 -19.25669922 144.41612305 -20.08544922 144.18237305 C-25.75903647 142.09210406 -30.76653592 139.05801405 -35.87060547 135.8347168 C-36.43320068 135.47974121 -36.9957959 135.12476563 -37.57543945 134.7590332 C-39.20143422 133.72773205 -40.81942596 132.68384547 -42.43701172 131.6394043 C-48.90691118 128.07387576 -55.37185525 126.97435379 -62.64794922 127.86987305 C-69.51690918 129.93290539 -75.59946604 134.11851671 -81.64794922 137.86987305 C-86.90569388 141.07733028 -92.13820683 144.11500185 -97.64794922 146.86987305 C-99.32041275 147.86014751 -100.98654092 148.86116087 -102.64794922 149.86987305 C-106.24533651 152.05304082 -109.86587989 154.02086137 -113.64794922 155.86987305 C-123.50127141 161.25485496 -123.50127141 161.25485496 -132.80419922 167.49487305 C-134.97664351 169.11500099 -137.1281398 169.87366932 -139.64794922 170.86987305 C-144.48454364 173.52525822 -149.19110007 176.39122182 -153.91748047 179.23706055 C-157.77368364 181.54305901 -161.65510025 183.80440237 -165.54248047 186.05737305 C-167.69444292 187.31336119 -169.83712469 188.58533467 -171.97216797 189.86987305 C-173.57511719 190.82893555 -173.57511719 190.82893555 -175.21044922 191.80737305 C-176.18111328 192.39389648 -177.15177734 192.98041992 -178.15185547 193.5847168 C-180.64794922 194.86987305 -180.64794922 194.86987305 -183.64794922 194.86987305 C-183.64794922 195.52987305 -183.64794922 196.18987305 -183.64794922 196.86987305 C-184.50839844 197.32813477 -184.50839844 197.32813477 -185.38623047 197.7956543 C-196.80872778 203.9488964 -208.05424152 210.4551487 -219.14794922 217.18237305 C-223.2174919 219.64791354 -227.38132835 221.90241663 -231.57373047 224.15112305 C-233.91999204 225.46288301 -236.21355933 226.80898133 -238.50341797 228.21362305 C-239.16897705 228.6212085 -239.83453613 229.02879395 -240.52026367 229.44873047 C-241.82886107 230.25481881 -243.13358933 231.06723157 -244.43383789 231.88671875 C-247.81744548 233.97029207 -250.67793257 235.40947188 -254.64794922 235.86987305 C-254.64794922 236.52987305 -254.64794922 237.18987305 -254.64794922 237.86987305 C-255.32599609 238.23338867 -256.00404297 238.5969043 -256.70263672 238.97143555 C-261.40976859 241.5140691 -266.07553375 244.09113825 -270.64794922 246.86987305 C-275.88657359 250.0495769 -281.25545463 252.96129127 -286.64794922 255.86987305 C-292.51878408 259.05127518 -298.27547394 262.40985689 -304.02294922 265.80737305 C-322.76603181 276.86987305 -322.76603181 276.86987305 -325.64794922 276.86987305 C-325.64794922 277.52987305 -325.64794922 278.18987305 -325.64794922 278.86987305 C-326.32599609 279.23338867 -327.00404297 279.5969043 -327.70263672 279.97143555 C-332.40976859 282.5140691 -337.07553375 285.09113825 -341.64794922 287.86987305 C-346.88654353 291.04955866 -352.25521357 293.96179042 -357.64794922 296.86987305 C-363.19846654 299.87015268 -368.62399165 303.04456284 -374.02294922 306.30737305 C-391.44946887 316.81822645 -391.44946887 316.81822645 -396.64794922 317.86987305 C-396.64794922 318.52987305 -396.64794922 319.18987305 -396.64794922 319.86987305 C-397.43492187 320.23725586 -397.43492187 320.23725586 -398.23779297 320.61206055 C-408.86188108 325.73849242 -418.90867321 331.96539307 -428.96044922 338.11987305 C-433.45820878 340.8462547 -438.13316935 343.13124544 -442.88623047 345.37768555 C-445.77616518 346.93914956 -448.11894435 348.7844036 -450.64794922 350.86987305 C-452.62960955 351.90574095 -454.63268753 352.90099724 -456.64794922 353.86987305 C-459.00577699 355.19216835 -461.35287462 356.53138616 -463.69482422 357.8815918 C-465.64794922 358.86987305 -465.64794922 358.86987305 -467.64794922 358.86987305 C-467.64794922 359.52987305 -467.64794922 360.18987305 -467.64794922 360.86987305 C-468.43492187 361.23725586 -468.43492187 361.23725586 -469.23779297 361.61206055 C-479.86188108 366.73849242 -489.90867321 372.96539307 -499.96044922 379.11987305 C-504.45820878 381.8462547 -509.13316935 384.13124544 -513.88623047 386.37768555 C-516.70654377 387.79431917 -516.70654377 387.79431917 -519.12841797 389.86206055 C-521.83901142 392.02213037 -524.52744475 393.37571622 -527.64794922 394.86987305 C-529.55298378 395.95808781 -531.44873329 397.06269852 -533.33544922 398.18237305 C-537.36013647 400.55218889 -541.40908067 402.84609855 -545.52294922 405.05737305 C-549.38371126 407.14262704 -553.02026613 409.39645276 -556.64794922 411.86987305 C-560.87934259 414.42229611 -565.22867608 416.66023648 -569.64794922 418.86987305 C-571.34916172 419.83282352 -573.04992971 420.79667754 -574.74169922 421.77612305 C-576.80120378 422.95780599 -578.87932786 424.10172188 -580.96044922 425.24487305 C-589.65126969 429.90574603 -589.65126969 429.90574603 -597.69091797 435.54956055 C-599.64794922 436.86987305 -599.64794922 436.86987305 -603.64794922 436.86987305 C-603.64794922 437.52987305 -603.64794922 438.18987305 -603.64794922 438.86987305 C-604.66501953 439.41514648 -604.66501953 439.41514648 -605.70263672 439.97143555 C-611.2341467 442.9593703 -616.67786652 446.04534112 -622.05419922 449.3034668 C-630.46532029 454.38307455 -639.00602082 459.19644349 -647.64794922 463.86987305 C-658.58922976 469.57198899 -658.58922976 469.57198899 -668.69091797 476.54956055 C-670.64794922 477.86987305 -670.64794922 477.86987305 -674.64794922 477.86987305 C-674.64794922 478.52987305 -674.64794922 479.18987305 -674.64794922 479.86987305 C-675.66501953 480.41514648 -675.66501953 480.41514648 -676.70263672 480.97143555 C-683.12509935 484.44063281 -689.41552609 488.07153013 -695.64794922 491.86987305 C-697.39659335 492.93460303 -699.14658195 493.99712829 -700.89794922 495.05737305 C-701.66623047 495.52530273 -702.43451172 495.99323242 -703.22607422 496.4753418 C-705.97952705 498.0607977 -708.80609167 499.44894427 -711.64794922 500.86987305 C-714.24768109 502.27846903 -716.82362359 503.72796223 -719.39794922 505.18237305 C-720.10097168 505.57827637 -720.80399414 505.97417969 -721.52832031 506.38208008 C-725.47788904 508.61476031 -729.3931649 510.89223788 -733.27294922 513.24487305 C-742.55419922 518.86987305 -742.55419922 518.86987305 -745.64794922 518.86987305 C-745.64794922 519.52987305 -745.64794922 520.18987305 -745.64794922 520.86987305 C-746.63021484 521.39774414 -746.63021484 521.39774414 -747.63232422 521.9362793 C-754.7240489 525.77262188 -761.70009912 529.7797505 -768.64794922 533.86987305 C-774.57552212 537.35936969 -780.5062671 540.81807458 -786.55810547 544.08862305 C-790.17527379 546.04476069 -793.66648903 548.07933815 -797.08544922 550.36987305 C-811.76919087 559.86987305 -811.76919087 559.86987305 -816.64794922 559.86987305 C-816.64794922 560.52987305 -816.64794922 561.18987305 -816.64794922 561.86987305 C-818.64125764 563.21318959 -820.64179788 564.54581316 -822.64794922 565.86987305 C-823.30794922 566.85987305 -823.96794922 567.84987305 -824.64794922 568.86987305 C-825.30794922 568.86987305 -825.96794922 568.86987305 -826.64794922 568.86987305 C-826.79232422 569.77737305 -826.93669922 570.68487305 -827.08544922 571.61987305 C-827.64794922 574.86987305 -827.64794922 574.86987305 -828.17512731 576.69335583 C-828.78113049 579.48293968 -828.77424337 582.08841287 -828.77559972 584.94414854 C-828.77861569 586.20000281 -828.78163166 587.45585708 -828.78473902 588.74976754 C-828.78303997 590.14880907 -828.78124922 591.54785048 -828.77937698 592.94689178 C-828.78102626 594.43505602 -828.78311237 595.92321983 -828.78559709 597.41138291 C-828.79117813 601.52476471 -828.7904887 605.63812573 -828.7888195 609.75151011 C-828.78809014 614.21761331 -828.79310725 618.68371058 -828.79739451 623.14981127 C-828.804986 632.01863132 -828.80716816 640.88744536 -828.80772357 649.75626832 C-828.80863608 660.37498502 -828.8153003 670.99369612 -828.82207039 681.61241042 C-828.83814472 707.2809536 -828.84403535 732.94949619 -828.84881914 758.6180435 C-828.85115372 770.75739724 -828.85475622 782.89675051 -828.85851452 795.03610389 C-828.87135146 836.57763468 -828.8820704 878.1191652 -828.88551712 919.66069794 C-828.88573875 922.26938257 -828.88596054 924.8780672 -828.88618247 927.48675182 C-828.88640311 930.10179903 -828.8866236 932.71684624 -828.88684392 935.33189344 C-828.88728648 940.57827727 -828.88773359 945.8246611 -828.88818359 951.07104492 C-828.88829298 952.3718471 -828.88840238 953.67264927 -828.88851508 955.01286969 C-828.89214609 997.19584589 -828.90806706 1039.3788049 -828.93137396 1081.56177451 C-828.95596121 1126.14343581 -828.96968945 1170.72508727 -828.97088504 1215.30675554 C-828.9710565 1220.19930045 -828.97127193 1225.09184535 -828.97151947 1229.98439026 C-828.97157524 1231.1891024 -828.97163101 1232.39381454 -828.97168847 1233.63503311 C-828.9728399 1253.03620898 -828.98386981 1272.43736724 -828.99840653 1291.83853716 C-829.01276171 1311.33435345 -829.01601405 1330.83014713 -829.00796655 1350.32596725 C-829.00350562 1361.91232237 -829.00738943 1373.4986046 -829.02320505 1385.08495016 C-829.03294169 1392.82326263 -829.03178938 1400.56152393 -829.02176883 1408.29983591 C-829.0163673 1412.70973538 -829.01569725 1417.11949468 -829.02827755 1421.52938265 C-829.03963716 1425.54487669 -829.0370695 1429.56011685 -829.02361047 1433.5756022 C-829.02118408 1435.01570148 -829.02373351 1436.45582046 -829.03200695 1437.89589801 C-829.11229343 1450.67984948 -829.11229343 1450.67984948 -825.64794922 1462.86987305 C-823.66442163 1464.09693603 -823.66442163 1464.09693603 -821.64794922 1464.86987305 C-821.31794922 1465.52987305 -820.98794922 1466.18987305 -820.64794922 1466.86987305 C-819.01468059 1467.86441698 -817.3400794 1468.79165452 -815.64794922 1469.68237305 C-814.15714844 1470.47708008 -814.15714844 1470.47708008 -812.63623047 1471.2878418 C-811.65009766 1471.80991211 -810.66396484 1472.33198242 -809.64794922 1472.86987305 C-805.59725917 1475.06164177 -801.59431426 1477.2321053 -797.77294922 1479.80737305 C-794.17136416 1482.18441919 -790.43840214 1484.18991395 -786.64013672 1486.2331543 C-783.6083566 1487.89153011 -780.62635602 1489.61764152 -777.64794922 1491.36987305 C-772.04700519 1494.66152733 -766.37017762 1497.79473849 -760.64794922 1500.86987305 C-760.64794922 1501.52987305 -760.64794922 1502.18987305 -760.64794922 1502.86987305 C-759.74044922 1503.15862305 -758.83294922 1503.44737305 -757.89794922 1503.74487305 C-755.32592014 1504.6351908 -753.03448156 1505.58481717 -750.64794922 1506.86987305 C-750.64794922 1507.52987305 -750.64794922 1508.18987305 -750.64794922 1508.86987305 C-749.55160156 1509.03616211 -749.55160156 1509.03616211 -748.43310547 1509.20581055 C-745.50481849 1509.90399959 -743.61912723 1510.89149644 -741.08544922 1512.49487305 C-737.23934577 1514.88290146 -733.37435059 1517.21912087 -729.46044922 1519.49487305 C-728.44853516 1520.08397461 -727.43662109 1520.67307617 -726.39404297 1521.2800293 C-724.27527085 1522.50668684 -722.15257415 1523.72475044 -720.02294922 1524.93237305 C-717.18440643 1526.56190687 -714.38397517 1528.23579268 -711.58544922 1529.93237305 C-708.9645271 1531.51280879 -706.38691988 1533.00038772 -703.64794922 1534.36987305 C-698.24129795 1537.07319868 -693.15209836 1540.34528813 -687.99169922 1543.48706055 C-684.58224672 1545.55121703 -681.21415475 1547.58677028 -677.64794922 1549.36987305 C-672.24129795 1552.07319868 -667.15209836 1555.34528813 -661.99169922 1558.48706055 C-658.58224672 1560.55121703 -655.21415475 1562.58677028 -651.64794922 1564.36987305 C-646.30202965 1567.04283283 -641.26852827 1570.27276424 -636.16748047 1573.3815918 C-627.4822217 1578.64245601 -618.59413289 1583.43703234 -609.52294922 1587.99487305 C-608.87825684 1588.31955566 -608.23356445 1588.64423828 -607.56933594 1588.97875977 C-574.26715225 1605.57506442 -537.06910677 1613.44522793 -500.64794922 1602.86987305 C-496.53690068 1601.41463463 -492.59130115 1599.72964308 -488.64794922 1597.86987305 C-487.30990234 1597.24145508 -487.30990234 1597.24145508 -485.94482422 1596.6003418 C-463.75790585 1585.34469754 -447.564512 1565.5022222 -439.30029297 1542.12768555 C-435.56197582 1529.18907889 -434.49846046 1516.74533078 -434.51766396 1503.36478329 C-434.51612532 1501.87897111 -434.51414858 1500.39315933 -434.51177478 1498.90734825 C-434.50650545 1494.81917927 -434.50743316 1490.7310315 -434.5093479 1486.64286045 C-434.51032209 1482.1972094 -434.50548777 1477.75156413 -434.50136888 1473.30591542 C-434.49493481 1465.51259428 -434.49215225 1457.7192785 -434.49174309 1449.92595482 C-434.4910984 1438.33717249 -434.48470634 1426.74839839 -434.47699629 1415.15961885 C-434.46491772 1396.86006745 -434.45625725 1378.56051643 -434.44995814 1360.2609622 C-434.43992814 1331.21935093 -434.42067677 1302.17775142 -434.39841576 1273.13614721 C-434.38988532 1261.96533546 -434.38161915 1250.79452351 -434.373312 1239.62371159 C-434.37238699 1238.38262983 -434.37146198 1237.14154808 -434.37050894 1235.86285779 C-434.34851672 1206.31807826 -434.32872559 1176.77329743 -434.31005859 1147.22851562 C-434.30923891 1145.93566541 -434.30841924 1144.6428152 -434.30757472 1143.31078771 C-434.2884842 1113.1380198 -434.27152295 1082.96525196 -434.25921631 1052.79248047 C-434.25868664 1051.49427709 -434.25815697 1050.19607371 -434.25761126 1048.85853083 C-434.25335949 1038.39394054 -434.24918326 1027.92935023 -434.24502646 1017.46475991 C-434.22784097 974.34927759 -434.20064741 931.23381136 -434.16186608 888.11834287 C-434.15640402 882.03366384 -434.15107108 875.94898471 -434.14582443 869.8643055 C-434.14479005 868.66675799 -434.14375567 867.46921049 -434.14268994 866.23537367 C-434.12634569 846.93757767 -434.1208351 827.63979291 -434.11952677 808.34199066 C-434.11802474 788.96100177 -434.10590356 769.5800435 -434.08277036 750.19906812 C-434.0693585 738.67608018 -434.06439031 727.15315903 -434.07131672 715.630165 C-434.07512567 707.94060244 -434.06815493 700.25109926 -434.05230094 692.5615522 C-434.0435731 688.17547584 -434.03965934 683.78953679 -434.04887481 679.40345829 C-434.05716414 675.41546835 -434.05174431 671.42774408 -434.03526722 667.43978171 C-434.03176059 666.00404858 -434.03330216 664.56829225 -434.04044122 663.13257259 C-434.08513741 653.41303333 -433.72950313 646.14282031 -426.64794922 638.86987305 C-420.54851628 633.86972776 -415.34339039 633.13739154 -407.6171875 633.19116211 C-406.53968231 633.17918793 -405.46217712 633.16721375 -404.35202026 633.15487671 C-400.80706444 633.12280123 -397.26333778 633.12749722 -393.71826172 633.13549805 C-391.24257996 633.12704434 -388.766902 633.11740289 -386.29122925 633.10662842 C-381.10807285 633.09025331 -375.92534372 633.09293253 -370.7421875 633.1081543 C-364.11542811 633.12543213 -357.49025401 633.0883015 -350.86372566 633.03589249 C-345.7522518 633.00273714 -340.64115649 633.00222312 -335.52959824 633.01103973 C-333.08726275 633.01068085 -330.64490279 632.99945067 -328.20267105 632.97693634 C-324.7799352 632.94957113 -321.36016561 632.96718418 -317.9375 632.99584961 C-316.4393576 632.96988205 -316.4393576 632.96988205 -314.91094971 632.94338989 C-308.36600988 633.06013298 -304.27212251 634.75142598 -298.9268322 638.49044418 C-291.37724918 646.37311999 -290.92726905 654.17980305 -291.02153683 664.72655869 C-291.01661983 666.23857413 -291.00951241 667.75058374 -291.00042287 669.26257986 C-290.98178826 673.41921968 -290.99426443 677.57527208 -291.01181281 681.73189515 C-291.02539826 686.25376836 -291.00998237 690.77555804 -290.99826199 695.2974236 C-290.98173544 703.22392548 -290.98382656 711.15025363 -290.99808884 719.07675743 C-291.01924152 730.8651231 -291.01182529 742.65335 -290.99871362 754.44172113 C-290.97623598 775.50254312 -290.98226667 796.56328496 -291.00014972 817.62410705 C-291.01571672 836.07223964 -291.02156988 854.52034412 -291.01780891 872.96848297 C-291.01745371 874.80403495 -291.01745371 874.80403495 -291.01709134 876.67666879 C-291.01611638 881.6443734 -291.01509556 886.61207799 -291.01400623 891.57978258 C-291.00391674 938.21294955 -291.02220041 984.84606723 -291.05372659 1031.4792226 C-291.08153956 1072.85473985 -291.08657347 1114.23018742 -291.0715332 1155.60571289 C-291.06771038 1166.18581006 -291.06391543 1176.76590723 -291.06036282 1187.34600449 C-291.059925 1188.64877116 -291.05948719 1189.95153784 -291.05903611 1191.29378229 C-291.04777157 1225.90332358 -291.05516453 1260.51286063 -291.06824356 1295.12240052 C-291.06963206 1298.85151858 -291.07101277 1302.58063664 -291.07238198 1306.30975471 C-291.07329138 1308.78337232 -291.07421405 1311.25698992 -291.07515009 1313.73060752 C-291.08192544 1332.14179914 -291.07930315 1350.55297373 -291.07220268 1368.96416473 C-291.06420305 1389.93564899 -291.07091911 1410.90707428 -291.09637772 1431.87854567 C-291.11021389 1443.59298831 -291.113376 1455.30731207 -291.10044302 1467.02175642 C-291.0929043 1474.87719515 -291.10025298 1482.73253507 -291.11900113 1490.58795466 C-291.12924679 1495.0441748 -291.13377322 1499.50015839 -291.12002259 1503.95637462 C-291.0696836 1521.70457525 -291.57499488 1539.2066999 -293.5004282 1556.86207962 C-293.58291398 1557.62330339 -293.66539976 1558.38452717 -293.75038512 1559.16881833 C-295.98896413 1579.3492388 -300.64890895 1598.80605357 -307.64794922 1617.86987305 C-308.05787109 1619.02358398 -308.46779297 1620.17729492 -308.89013672 1621.3659668 C-313.31213119 1633.40361843 -319.34089543 1644.72378661 -325.64794922 1655.86987305 C-326.15841797 1656.79670898 -326.66888672 1657.72354492 -327.19482422 1658.6784668 C-327.67435547 1659.40163086 -328.15388672 1660.12479492 -328.64794922 1660.86987305 C-329.30794922 1660.86987305 -329.96794922 1660.86987305 -330.64794922 1660.86987305 C-330.75107422 1661.63299805 -330.85419922 1662.39612305 -330.96044922 1663.18237305 C-331.74739825 1666.25862834 -332.44305015 1666.69463629 -334.64794922 1668.86987305 C-336.6046248 1671.47528599 -338.52628968 1674.09910758 -340.41943359 1676.75073242 C-341.44929871 1678.15884516 -342.5441562 1679.51893093 -343.64794922 1680.86987305 C-344.30794922 1680.86987305 -344.96794922 1680.86987305 -345.64794922 1680.86987305 C-345.87482422 1681.40612305 -346.10169922 1681.94237305 -346.33544922 1682.49487305 C-351.4988182 1691.83811216 -360.98934149 1698.20830975 -369.10888672 1704.7956543 C-371.068129 1706.39620453 -372.98889708 1708.02343736 -374.89794922 1709.68237305 C-377.40656789 1711.67786517 -379.93006612 1713.24698925 -382.74169922 1714.77612305 C-384.89820606 1716.01346304 -386.91434721 1717.39527448 -388.96044922 1718.80737305 C-395.37631354 1723.12826126 -402.16167457 1726.45903178 -409.44091797 1729.0534668 C-413.28249131 1730.47450897 -417.04106329 1732.09816874 -420.81591797 1733.6862793 C-422.21777344 1734.2721582 -422.21777344 1734.2721582 -423.64794922 1734.86987305 C-424.47939453 1735.22049805 -425.31083984 1735.57112305 -426.16748047 1735.93237305 C-430.86030708 1737.7060398 -435.77443405 1738.70951229 -440.64794922 1739.86987305 C-441.62763672 1740.10706055 -442.60732422 1740.34424805 -443.61669922 1740.58862305 C-446.95414349 1741.37997581 -450.29872571 1742.12988754 -453.64794922 1742.86987305 C-454.38577637 1743.03664551 -455.12360352 1743.20341797 -455.88378906 1743.37524414 C-458.36451782 1743.93072154 -460.84925873 1744.46441844 -463.33544922 1744.99487305 C-464.08761719 1745.16559326 -464.83978516 1745.33631348 -465.61474609 1745.51220703 C-481.92781768 1748.90625848 -499.21377627 1748.05627852 -515.77807617 1748.05517578 C-519.44380299 1748.05736311 -523.10922835 1748.07559352 -526.77490234 1748.09448242 C-561.90349743 1748.17883367 -561.90349743 1748.17883367 -578.01513672 1743.58862305 C-580.79708493 1742.82915944 -583.55292089 1742.33500029 -586.39794922 1741.86987305 C-590.36803366 1741.18733704 -593.86355626 1740.15841748 -597.57836914 1738.62426758 C-599.63585552 1737.87428139 -601.58925747 1737.42956824 -603.73779297 1737.01831055 C-609.07049923 1735.87029739 -614.01884687 1733.98889797 -619.08544922 1731.99487305 C-619.96265625 1731.65584961 -620.83986328 1731.31682617 -621.74365234 1730.9675293 C-626.96901634 1728.94207501 -632.17446213 1726.86755053 -637.37402344 1724.77685547 C-639.68830578 1723.85377635 -642.01084759 1722.95409679 -644.33544922 1722.05737305 C-649.21124104 1720.11009893 -653.9502862 1717.89423506 -658.69311523 1715.64794922 C-662.67901304 1713.76675679 -666.69080083 1711.97195059 -670.74316406 1710.23876953 C-678.6304108 1706.86245114 -686.16233166 1703.07566511 -693.64794922 1698.86987305 C-695.05521139 1698.09070337 -696.46277958 1697.31208622 -697.87060547 1696.53393555 C-699.31757387 1695.72988445 -700.76419305 1694.92520455 -702.21044922 1694.11987305 C-703.22945312 1693.55453857 -703.22945312 1693.55453857 -704.26904297 1692.9777832 C-706.85913735 1691.52345561 -709.37160706 1690.07828753 -711.74560547 1688.2878418 C-714.18975602 1686.46602116 -716.77618907 1685.24983943 -719.52294922 1683.93237305 C-723.80923446 1681.82800864 -727.69903224 1679.55849737 -731.64794922 1676.86987305 C-733.47386535 1675.8563932 -735.30804915 1674.85773885 -737.14794922 1673.86987305 C-740.07560631 1672.29797662 -742.83639669 1670.74156839 -745.58544922 1668.86987305 C-748.5376259 1666.94192093 -751.48528895 1665.42209894 -754.64794922 1663.86987305 C-758.89163027 1661.7870848 -762.73817661 1659.53184589 -766.64794922 1656.86987305 C-771.57981899 1654.07442263 -776.56280159 1651.37663596 -781.64794922 1648.86987305 C-781.64794922 1648.20987305 -781.64794922 1647.54987305 -781.64794922 1646.86987305 C-782.41107422 1646.66362305 -783.17419922 1646.45737305 -783.96044922 1646.24487305 C-789.16091563 1644.30571608 -793.8205195 1641.59289029 -798.64794922 1638.86987305 C-799.95365702 1638.14150309 -801.25966211 1637.4136659 -802.56591797 1636.6862793 C-803.94764004 1635.9145227 -805.3291514 1635.14238872 -806.71044922 1634.36987305 C-807.34644043 1634.01465576 -807.98243164 1633.65943848 -808.63769531 1633.29345703 C-812.24984724 1631.26236779 -815.81788054 1629.17257073 -819.36279297 1627.02612305 C-825.21306646 1623.49953282 -831.17613259 1620.1851361 -837.14794922 1616.86987305 C-843.97725868 1613.07857155 -850.76954147 1609.25482218 -857.44213867 1605.19262695 C-860.4429517 1603.39313553 -863.50026696 1601.70415016 -866.56591797 1600.01831055 C-869.00308824 1598.67398023 -871.41662423 1597.29166048 -873.82763672 1595.90112305 C-875.17846943 1595.13584443 -876.53954917 1594.38859418 -877.90576172 1593.65112305 C-882.17116037 1591.34245843 -885.88064815 1588.94319761 -889.64794922 1585.86987305 C-891.36080377 1584.88656765 -893.07416044 1583.90389736 -894.80029297 1582.9440918 C-897.9337235 1581.12232986 -900.78205643 1579.09240215 -903.64794922 1576.86987305 C-903.64794922 1576.20987305 -903.64794922 1575.54987305 -903.64794922 1574.86987305 C-904.28732422 1574.76674805 -904.92669922 1574.66362305 -905.58544922 1574.55737305 C-906.26607422 1574.33049805 -906.94669922 1574.10362305 -907.64794922 1573.86987305 C-908.14294922 1572.38487305 -908.14294922 1572.38487305 -908.64794922 1570.86987305 C-909.34919922 1570.64299805 -910.05044922 1570.41612305 -910.77294922 1570.18237305 C-914.45634104 1568.50082461 -916.26685278 1566.13172885 -918.80419922 1563.0378418 C-920.68538033 1560.76629721 -920.68538033 1560.76629721 -923.09326172 1558.4284668 C-930.43437501 1551.07612856 -936.32401936 1542.75541339 -941.64794922 1533.86987305 C-942.54513672 1532.3984082 -942.54513672 1532.3984082 -943.46044922 1530.8972168 C-950.81877652 1518.60690719 -955.63774663 1506.18732847 -959.21044922 1492.36987305 C-959.41863281 1491.57967773 -959.62681641 1490.78948242 -959.84130859 1489.9753418 C-960.45886977 1487.60963722 -961.06972414 1485.24557104 -961.64794922 1482.86987305 C-961.9856954 1481.64620039 -962.32344157 1480.42252774 -962.67142248 1479.1617741 C-964.16158651 1472.37102093 -963.92868526 1465.48975525 -963.91080475 1458.57640934 C-963.91410768 1457.01673029 -963.91828189 1455.45705289 -963.92324495 1453.89737824 C-963.93435096 1449.60863425 -963.93303845 1445.31997034 -963.92968977 1441.03121659 C-963.92822555 1436.36612982 -963.93827827 1431.70106545 -963.94683981 1427.03598827 C-963.96199087 1417.78181745 -963.96638548 1408.52766971 -963.96749792 1399.27348778 C-963.96932613 1388.18884705 -963.98266417 1377.10422764 -963.99619157 1366.01959609 C-964.02830973 1339.22557446 -964.04011867 1312.43155512 -964.04968907 1285.63751771 C-964.05436193 1272.95819149 -964.06156742 1260.27886708 -964.06907982 1247.59954227 C-964.09435062 1204.8655224 -964.11597557 1162.13150267 -964.12276074 1119.39747562 C-964.12308521 1117.35534831 -964.12341633 1115.31322101 -964.12374951 1113.27109371 C-964.12441709 1109.17571649 -964.12507805 1105.08033927 -964.12573862 1100.98496205 C-964.12651241 1096.19048249 -964.12729162 1091.39600293 -964.12808075 1086.60152338 C-964.12830559 1085.2293147 -964.12852842 1083.85710603 -964.12874926 1082.48489735 C-964.13584351 1038.44271405 -964.16598045 994.40059608 -964.21262474 950.35843771 C-964.26265716 903.09803021 -964.2913971 855.83766855 -964.29382086 808.57722896 C-964.29416376 803.46095494 -964.29459461 798.34468092 -964.29508972 793.22840691 C-964.29520126 791.96866202 -964.2953128 790.70891713 -964.29542771 789.41099816 C-964.29772617 769.16390199 -964.31974871 748.91687359 -964.34886383 728.66980029 C-964.37764248 708.30393315 -964.38404043 687.9381526 -964.36798388 667.5722707 C-964.35909365 655.48441035 -964.36670235 643.39683012 -964.39846089 631.30900676 C-964.41804489 623.21871673 -964.41552452 615.12862167 -964.39558843 607.03833318 C-964.38486439 602.4388557 -964.38318621 597.83991376 -964.40860587 593.24048192 C-964.52496298 570.776758 -964.20433346 548.73350455 -954.64794922 527.86987305 C-954.16459847 526.43059226 -953.70000873 524.98469196 -953.26513672 523.5300293 C-951.62381427 518.49400807 -949.28495789 513.95798369 -946.77294922 509.30737305 C-946.14066406 508.10951172 -946.14066406 508.10951172 -945.49560547 506.88745117 C-939.29687345 495.25772 -939.29687345 495.25772 -936.64794922 491.86987305 C-935.98794922 491.86987305 -935.32794922 491.86987305 -934.64794922 491.86987305 C-934.39529297 491.14670898 -934.14263672 490.42354492 -933.88232422 489.6784668 C-928.17502894 476.69256393 -913.17691671 463.77143369 -901.64794922 455.86987305 C-900.31763672 454.78706055 -900.31763672 454.78706055 -898.96044922 453.68237305 C-896.60709306 451.83785065 -894.24315342 450.35284688 -891.64794922 448.86987305 C-891.05369141 448.51538086 -890.45943359 448.16088867 -889.84716797 447.7956543 C-884.88873869 444.86987305 -884.88873869 444.86987305 -882.64794922 444.86987305 C-882.64794922 444.20987305 -882.64794922 443.54987305 -882.64794922 442.86987305 C-881.82617188 442.48508789 -881.82617188 442.48508789 -880.98779297 442.0925293 C-873.50645033 438.47958822 -866.46395878 434.24810562 -859.37988281 429.92602539 C-849.81368744 424.09245319 -840.20781541 418.29724183 -830.33544922 412.99487305 C-825.13989616 410.18972684 -820.08463149 407.17753877 -815.03735352 404.11645508 C-812.04799183 402.30406138 -809.0500721 400.51627803 -806.01123047 398.7878418 C-803.17339038 397.16951487 -800.37431026 395.50789807 -797.58544922 393.80737305 C-794.0072732 391.649706 -790.38539869 389.73859778 -786.64794922 387.86987305 C-784.12383223 386.32349343 -781.61162641 384.76149743 -779.11279297 383.17456055 C-776.58856262 381.83843862 -774.45999084 381.2809023 -771.64794922 380.86987305 C-771.64794922 380.20987305 -771.64794922 379.54987305 -771.64794922 378.86987305 C-770.35881435 378.19832372 -769.06654718 377.53278446 -767.77294922 376.86987305 C-767.05365234 376.49862305 -766.33435547 376.12737305 -765.59326172 375.74487305 C-763.64794922 374.86987305 -763.64794922 374.86987305 -761.64794922 374.86987305 C-761.64794922 374.20987305 -761.64794922 373.54987305 -761.64794922 372.86987305 C-760.63087891 372.32459961 -760.63087891 372.32459961 -759.59326172 371.76831055 C-754.88612985 369.22567699 -750.22036469 366.64860785 -745.64794922 363.86987305 C-742.29770857 361.83448352 -738.91516679 359.90975485 -735.46044922 358.05737305 C-730.27537063 355.26315106 -725.24633396 352.24835669 -720.21142578 349.19580078 C-715.56462471 346.38979303 -710.84271282 343.7629422 -706.05810547 341.19799805 C-703.21047719 339.62880256 -700.48698403 337.90678627 -697.74951172 336.1550293 C-694.3031639 334.04750433 -690.72462831 332.18460955 -687.16748047 330.2722168 C-684.52767579 328.85229328 -684.52767579 328.85229328 -681.71044922 326.86987305 C-678.79542681 324.96618494 -675.89562009 323.46446999 -672.77294922 321.93237305 C-666.82155385 319.00823448 -661.31435701 315.74847854 -655.89794922 311.93237305 C-652.91213561 310.03752979 -649.94347483 308.48982422 -646.77294922 306.93237305 C-642.57362467 304.86891185 -638.57892332 302.70324537 -634.65576172 300.15893555 C-631.47309312 298.115588 -628.20311397 296.21925355 -624.94482422 294.29956055 C-622.62686692 292.90383584 -622.62686692 292.90383584 -620.49560547 291.2487793 C-618.32134134 289.62612552 -616.17049168 288.86715728 -613.64794922 287.86987305 C-610.19666708 285.98735552 -606.9182762 284.05009104 -603.64794922 281.86987305 C-601.02476068 280.12108069 -598.36208792 278.5349595 -595.61279297 276.99487305 C-593.36536612 275.70807596 -591.16697309 274.35056131 -588.96044922 272.99487305 C-584.3340346 270.19930744 -579.57813972 267.78942391 -574.70263672 265.4597168 C-571.60019413 263.84501842 -568.68690799 262.05611747 -565.73632812 260.18359375 C-562.33532921 258.04415312 -558.86573914 256.02359629 -555.39794922 253.99487305 C-554.65778564 253.56070068 -553.91762207 253.12652832 -553.1550293 252.67919922 C-545.97729267 248.47086323 -538.79053949 244.2779857 -531.59716797 240.09643555 C-526.90576133 237.36623956 -522.22633752 234.62269865 -517.58544922 231.80737305 C-513.16448985 229.13771159 -508.64376528 226.68474055 -504.09716797 224.23706055 C-501.51721403 222.8442858 -501.51721403 222.8442858 -498.71044922 220.86987305 C-495.79542681 218.96618494 -492.89562009 217.46446999 -489.77294922 215.93237305 C-483.82155385 213.00823448 -478.31435701 209.74847854 -472.89794922 205.93237305 C-468.93288502 203.4160823 -464.79132598 201.44099615 -460.55029297 199.43237305 C-457.62399873 197.97557192 -457.62399873 197.97557192 -455.27685547 195.93237305 C-452.54637357 193.7901822 -449.88624362 192.41825057 -446.77587891 190.92358398 C-443.16594965 189.13601461 -439.73164793 187.05600582 -436.27294922 184.99487305 C-435.53197998 184.55651123 -434.79101074 184.11814941 -434.02758789 183.66650391 C-429.9923263 181.27620095 -425.97247053 178.8615028 -421.96044922 176.43237305 C-418.59412837 174.40126517 -415.16522403 172.62851045 -411.64794922 170.86987305 C-407.21325727 168.27629869 -402.83334493 165.58890723 -398.44091797 162.92456055 C-397.37486328 162.28776367 -396.30880859 161.6509668 -395.21044922 160.99487305 C-394.22173828 160.39932617 -393.23302734 159.8037793 -392.21435547 159.19018555 C-389.64794922 157.86987305 -389.64794922 157.86987305 -386.64794922 157.86987305 C-386.64794922 157.20987305 -386.64794922 156.54987305 -386.64794922 155.86987305 C-385.35881435 155.19832372 -384.06654718 154.53278446 -382.77294922 153.86987305 C-382.05365234 153.49862305 -381.33435547 153.12737305 -380.59326172 152.74487305 C-378.64794922 151.86987305 -378.64794922 151.86987305 -376.64794922 151.86987305 C-376.64794922 151.20987305 -376.64794922 150.54987305 -376.64794922 149.86987305 C-375.76236328 149.40838867 -374.87677734 148.9469043 -373.96435547 148.47143555 C-366.04574552 144.31302915 -358.27950278 139.95427601 -350.59033203 135.38549805 C-346.2373617 132.79909642 -341.8508702 130.29915217 -337.40576172 127.8737793 C-335.83256876 126.97531132 -334.32738064 125.96014803 -332.83544922 124.93237305 C-328.90358433 122.38822518 -324.77910323 120.43520725 -320.55029297 118.43237305 C-317.60163982 116.84494201 -315.22294674 114.99818732 -312.64794922 112.86987305 C-310.65729381 111.85139819 -308.65546737 110.85469327 -306.64794922 109.86987305 C-304.97433713 108.88154095 -303.30821278 107.88046826 -301.64794922 106.86987305 C-298.04926881 104.68495994 -294.4137764 102.75278664 -290.64794922 100.86987305 C-286.37297714 98.38112182 -282.14743954 95.81004695 -277.95654297 93.18237305 C-276.65910156 92.37799805 -276.65910156 92.37799805 -275.33544922 91.55737305 C-274.55556641 91.06624023 -273.77568359 90.57510742 -272.97216797 90.0690918 C-270.5166853 88.80214528 -268.36889005 88.27921813 -265.64794922 87.86987305 C-265.64794922 87.20987305 -265.64794922 86.54987305 -265.64794922 85.86987305 C-264.96990234 85.50635742 -264.29185547 85.1428418 -263.59326172 84.76831055 C-258.9936928 82.28377886 -254.4274825 79.77412072 -249.96044922 77.05737305 C-245.57701876 74.39375741 -241.12478164 71.8716476 -236.64794922 69.36987305 C-232.27783424 66.92690465 -227.92633519 64.47159425 -223.64794922 61.86987305 C-218.67905303 58.84824699 -213.60610906 56.02360447 -208.53076172 53.1862793 C-204.08798373 50.6966471 -199.70835792 48.12510497 -195.35888672 45.4753418 C-191.01644341 42.90366428 -186.59869587 40.46457106 -182.17919922 38.02807617 C-179.51666377 36.5480197 -176.96957003 35.11138535 -174.53076172 33.2800293 C-172.13139793 31.48299542 -169.59964427 30.28972689 -166.89794922 28.99487305 C-160.90314814 26.04852312 -155.35401032 22.77641609 -149.89794922 18.93237305 C-145.90403291 16.39777232 -141.72526958 14.39724195 -137.47998047 12.3190918 C-134.36351899 10.72432323 -131.54771241 8.82552729 -128.64794922 6.86987305 C-126.3228189 5.84145002 -123.99460564 4.84593765 -121.64794922 3.86987305 C-120.59220703 3.40967773 -119.53646484 2.94948242 -118.44873047 2.4753418 C-81.89158405 -12.384954 -37.04705408 -13.85853963 0 0 Z " fill="#529D42" transform="translate(963.64794921875,8.130126953125)"/>
<path d="M0 0 C0.94346283 -0.0049649 1.88692566 -0.00992981 2.85897827 -0.01504517 C5.95205449 -0.0295311 9.04507913 -0.0364526 12.13818359 -0.04199219 C13.2122282 -0.04481956 14.28627281 -0.04764694 15.39286423 -0.05056 C21.09784942 -0.06551151 26.80280968 -0.07476154 32.5078125 -0.07910156 C37.15437819 -0.08345364 41.80075479 -0.0972231 46.44726562 -0.12011719 C72.78684487 -0.24731066 98.74049001 0.02497123 124.91162109 3.16113281 C126.67031817 3.35454421 128.42924594 3.54587834 130.18847656 3.734375 C134.14388265 4.16573635 138.09022089 4.65330814 142.03662109 5.16113281 C143.28830078 5.31324219 144.53998047 5.46535156 145.82958984 5.62207031 C153.4994153 6.58972151 161.02090833 7.90150421 168.57958984 9.49584961 C171.64450092 10.10779881 174.68766265 10.57625146 177.78662109 10.97363281 C194.4096951 13.43631044 210.90836754 18.08325567 226.91162109 23.16113281 C227.55776367 23.36593262 228.20390625 23.57073242 228.86962891 23.78173828 C254.09067311 31.84668028 278.87048943 42.4092696 300.91552734 57.17285156 C303.7186351 59.03306258 306.55531223 60.82164756 309.41162109 62.59863281 C313.55125834 65.22990021 317.24982617 67.90620399 320.91162109 71.16113281 C321.47751953 71.64839844 322.04341797 72.13566406 322.62646484 72.63769531 C345.70597814 92.55498491 345.70597814 92.55498491 354.36865234 104.18066406 C355.8212343 106.13389997 355.8212343 106.13389997 357.35522461 107.58398438 C359.91125955 110.17409978 361.92191224 113.14596295 364.03662109 116.09863281 C364.49166016 116.71931641 364.94669922 117.34 365.41552734 117.97949219 C367.5947843 121.01557866 369.16835399 123.50216355 369.91162109 127.16113281 C370.57162109 127.16113281 371.23162109 127.16113281 371.91162109 127.16113281 C391.62106535 162.39923011 391.62106535 162.39923011 396.39990234 180.26660156 C396.91197935 182.31360685 396.91197935 182.31360685 397.97412109 184.78613281 C399.02808872 187.45618414 399.68557767 190.16123934 400.34912109 192.95019531 C400.9319577 195.24106699 401.63091558 197.47175928 402.34912109 199.72363281 C404.01972798 205.19107352 405.09633379 210.74078304 406.16552734 216.35253906 C406.66754358 218.91518739 407.23416965 221.465928 407.86083984 224.00097656 C409.3885575 230.82303862 410.09359168 237.78814241 410.88134766 244.7265625 C411.16116618 247.15718128 411.46200701 249.58464302 411.76318359 252.01269531 C412.95404543 262.11425422 413.69350865 271.18923833 407.91162109 280.16113281 C402.91308542 285.33728143 397.58801989 289.22734854 390.20198059 289.56227112 C388.32906505 289.5891164 386.45586972 289.59957191 384.58276367 289.59692383 C383.55592468 289.60699966 382.52908569 289.6170755 381.47113037 289.62745667 C378.08269297 289.65590875 374.69470171 289.66181244 371.30615234 289.66503906 C368.9421114 289.67468389 366.57807224 289.68477665 364.21403503 289.69529724 C359.25861463 289.71325309 354.30335103 289.718819 349.34790039 289.71704102 C343.01731469 289.71673663 336.68774209 289.75764894 330.35739613 289.80935764 C325.47325584 289.84282221 320.58935753 289.84879542 315.70511436 289.84721184 C313.37244877 289.85073816 311.03977599 289.86393002 308.70722389 289.88720894 C285.2759417 290.09911647 285.2759417 290.09911647 276.91162109 283.16113281 C276.91162109 282.17113281 276.91162109 281.18113281 276.91162109 280.16113281 C275.92162109 279.83113281 274.93162109 279.50113281 273.91162109 279.16113281 C271.59814191 275.71209974 270.91749491 271.58784996 269.97412109 267.59863281 C269.62207401 266.15312097 269.26920707 264.70780856 268.91552734 263.26269531 C268.74424316 262.55918945 268.57295898 261.85568359 268.39648438 261.13085938 C267.32585864 256.78150969 266.13707374 252.46897401 264.91162109 248.16113281 C264.63833984 247.15953125 264.36505859 246.15792969 264.08349609 245.12597656 C257.79584992 223.19914265 245.42561201 198.45357371 227.73974609 183.70410156 C225.91162109 182.16113281 225.91162109 182.16113281 223.53662109 179.72363281 C199.61725949 156.37377982 164.45039788 147.21421199 132.49145508 141.61450195 C130.74916973 141.30832008 129.00907031 140.98946874 127.27124023 140.65893555 C117.97641219 138.96699204 108.63472467 138.28691914 99.22412109 137.59863281 C98.36069092 137.5342099 97.49726074 137.46978699 96.60766602 137.40341187 C82.38465168 136.34542164 68.17475033 135.42694668 53.91162109 135.16113281 C52.7542041 135.13921875 51.59678711 135.11730469 50.40429688 135.09472656 C31.09360676 134.78953984 11.95266953 135.52798252 -7.30224609 136.89648438 C-10.60777267 137.12753872 -13.91345736 137.33231465 -17.22119141 137.52832031 C-28.61087517 138.27761543 -39.75261273 140.01250915 -50.96337891 142.09863281 C-51.65264465 142.22596802 -52.3419104 142.35330322 -53.05206299 142.48449707 C-59.92461157 143.76794341 -66.69260058 145.10647191 -73.27294922 147.52099609 C-75.77468405 148.40313013 -78.34829625 148.95037584 -80.92431641 149.57128906 C-87.6430168 151.40255939 -94.09538874 153.95782087 -100.23681641 157.23144531 C-102.08837891 158.16113281 -102.08837891 158.16113281 -104.49072266 159.09082031 C-107.26153365 160.23247778 -109.71316732 161.61032398 -112.27587891 163.16113281 C-113.56558594 163.93457031 -113.56558594 163.93457031 -114.88134766 164.72363281 C-117.17297796 166.10800399 -117.17297796 166.10800399 -119.08837891 168.16113281 C-120.07837891 168.16113281 -121.06837891 168.16113281 -122.08837891 168.16113281 C-122.08837891 168.82113281 -122.08837891 169.48113281 -122.08837891 170.16113281 C-123.77587891 171.57128906 -123.77587891 171.57128906 -126.08837891 173.22363281 C-131.40624052 177.2288577 -137.06426433 182.11290366 -140.08837891 188.16113281 C-140.74837891 188.16113281 -141.40837891 188.16113281 -142.08837891 188.16113281 C-142.24306641 189.27488281 -142.24306641 189.27488281 -142.40087891 190.41113281 C-143.08837891 193.16113281 -143.08837891 193.16113281 -144.47509766 195.00097656 C-155.42658418 209.6648314 -156.46938686 233.540025 -154.33837891 251.16113281 C-153.95401025 253.50000354 -153.53970145 255.83425432 -153.08837891 258.16113281 C-152.90404297 259.15757812 -152.71970703 260.15402344 -152.52978516 261.18066406 C-150.31367572 271.02239231 -144.92740994 278.04286469 -137.08837891 284.16113281 C-137.08837891 284.82113281 -137.08837891 285.48113281 -137.08837891 286.16113281 C-136.53666016 286.43183594 -135.98494141 286.70253906 -135.41650391 286.98144531 C-132.85780602 288.27796672 -130.35021171 289.65103644 -127.83837891 291.03613281 C-97.58546567 307.52317019 -62.73044299 314.10403032 -29.03955078 319.76708984 C-24.85306391 320.47551493 -20.70145573 321.22392559 -16.56494141 322.18457031 C-11.63223771 323.31282711 -6.6636844 323.99373662 -1.65087891 324.66113281 C3.62544843 325.36671075 8.85738418 326.11622885 14.07177734 327.19628906 C18.35273592 328.08078811 22.56329052 328.64568171 26.91162109 329.09863281 C32.80652294 329.74444288 38.63350394 330.57423998 44.47412109 331.59863281 C52.741156 333.04139952 61.03760038 334.09606219 69.36767578 335.10400391 C74.50322437 335.727618 79.61744599 336.38988994 84.72412109 337.22363281 C89.83597952 338.05075049 94.94823181 338.5918277 100.09912109 339.09863281 C107.22059852 339.80332908 114.23058291 340.81534969 121.27709961 342.05541992 C126.35123013 342.93659631 131.41700759 343.60770857 136.53662109 344.16113281 C142.64014094 344.82772168 148.61719154 345.79632078 154.64428711 346.99194336 C159.90022023 348.01707482 165.16707251 348.76680886 170.47412109 349.47363281 C184.729162 351.41562389 198.81426343 354.32072818 212.91162109 357.16113281 C214.71083008 357.52223145 214.71083008 357.52223145 216.54638672 357.890625 C219.85696968 358.55776608 223.16594823 359.23215047 226.47412109 359.91113281 C227.44841064 360.1094873 228.4227002 360.3078418 229.42651367 360.51220703 C234.04920593 361.47555978 238.4405225 362.62379232 242.91162109 364.16113281 C244.92671545 364.60472405 246.94828332 365.01952105 248.97412109 365.41113281 C263.1677657 368.37315398 277.10572719 372.76411397 290.91162109 377.16113281 C291.87712891 377.46535156 292.84263672 377.76957031 293.83740234 378.08300781 C302.01922844 380.72720062 309.97034558 383.87937429 317.91162109 387.16113281 C319.06791016 387.63550781 320.22419922 388.10988281 321.41552734 388.59863281 C334.30886818 393.9965275 346.71679594 400.3402984 358.91162109 407.16113281 C358.91162109 407.82113281 358.91162109 408.48113281 358.91162109 409.16113281 C359.71599609 409.36738281 360.52037109 409.57363281 361.34912109 409.78613281 C366.07693208 411.61090197 372.55040486 414.43870034 374.91162109 419.16113281 C376.92831937 420.29463815 376.92831937 420.29463815 378.91162109 421.16113281 C378.91162109 421.82113281 378.91162109 422.48113281 378.91162109 423.16113281 C379.72566406 423.50144531 379.72566406 423.50144531 380.55615234 423.84863281 C383.6165058 425.55390439 386.05149061 427.78880736 388.59912109 430.16113281 C389.12513916 430.64735107 389.65115723 431.13356934 390.19311523 431.63452148 C395.0754264 436.20719738 399.55803347 441.08343719 403.91162109 446.16113281 C404.42595703 446.74894531 404.94029297 447.33675781 405.47021484 447.94238281 C407.29096354 450.06028634 408.90826588 452.15551329 410.34130859 454.55566406 C411.82298705 457.01407086 413.43957171 459.24274928 415.16162109 461.53613281 C419.7136687 467.97444115 422.73992397 474.97933483 425.91162109 482.16113281 C426.31509766 483.02222656 426.71857422 483.88332031 427.13427734 484.77050781 C429.26923981 489.34890642 430.848458 493.93374568 432.20068359 498.80175781 C432.86066185 501.15732128 432.86066185 501.15732128 433.84130859 503.30566406 C439.49497103 518.38897516 440.99738008 535.20087418 441.91162109 551.16113281 C441.97865234 552.24023926 442.04568359 553.3193457 442.11474609 554.43115234 C443.12956994 571.52459145 442.66565979 588.13646818 440.91162109 605.16113281 C440.83008789 606.01368652 440.74855469 606.86624023 440.66455078 607.74462891 C439.89041714 615.83020774 438.77087855 623.63700831 436.61865234 631.49316406 C435.97458455 633.92354144 435.5155061 636.3088523 435.09912109 638.78613281 C432.75232491 650.91124642 427.98037519 662.94802694 422.91162109 674.16113281 C422.58790527 674.87946289 422.26418945 675.59779297 421.93066406 676.33789062 C417.53019216 686.04149534 413.02048501 695.39378182 406.91162109 704.16113281 C406.31349609 705.04285156 405.71537109 705.92457031 405.09912109 706.83300781 C402.56541739 710.524352 400.0091463 714.13114731 397.09912109 717.53613281 C394.91551232 719.94216951 394.91551232 719.94216951 393.91162109 722.22363281 C392.4435696 725.06798258 390.19353826 726.93228349 387.91162109 729.16113281 C387.00519159 730.25661761 386.1091565 731.36079243 385.22412109 732.47363281 C384.46099609 733.36050781 383.69787109 734.24738281 382.91162109 735.16113281 C382.25162109 735.16113281 381.59162109 735.16113281 380.91162109 735.16113281 C380.67056641 735.73992188 380.42951172 736.31871094 380.18115234 736.91503906 C378.67050123 739.58772949 376.93618031 741.11507835 374.59912109 743.09863281 C372.13299705 745.20467762 369.76295993 747.3105087 367.47412109 749.61035156 C360.03686603 757.01359479 351.61683378 763.33666863 342.91162109 769.16113281 C341.94224609 769.82113281 340.97287109 770.48113281 339.97412109 771.16113281 C338.96349609 771.82113281 337.95287109 772.48113281 336.91162109 773.16113281 C336.12400391 773.68449219 335.33638672 774.20785156 334.52490234 774.74707031 C328.71182962 778.54505506 322.81482394 781.79050875 316.56787109 784.81738281 C313.5070061 786.3658204 310.7527808 788.24500184 307.91162109 790.16113281 C305.58702768 791.23044578 303.28355167 792.21148533 300.91162109 793.16113281 C298.91081555 793.99253021 296.91088278 794.82602974 294.91162109 795.66113281 C293.87392578 796.09296875 292.83623047 796.52480469 291.76708984 796.96972656 C285.76879233 799.46680855 285.76879233 799.46680855 279.84130859 802.12597656 C276.06835036 803.86784752 272.36194511 805.39456141 268.36474609 806.54394531 C264.60108511 807.64949688 260.86311482 808.81030997 257.13427734 810.02832031 C240.72999525 815.38214644 224.37439596 820.29111861 207.40380859 823.48535156 C204.77161222 823.99471395 202.17191845 824.55091012 199.56005859 825.14941406 C194.95307707 826.18406168 190.32842604 826.95215243 185.66162109 827.66113281 C184.90494141 827.7784375 184.14826172 827.89574219 183.36865234 828.01660156 C181.75867408 828.26573297 180.14821149 828.51174853 178.53735352 828.75512695 C176.74116822 829.03286346 174.94707456 829.32438216 173.1550293 829.62768555 C163.62449973 831.19980313 154.05270161 832.09504121 144.43823242 832.96606445 C141.6144432 833.22224277 138.79134114 833.48514983 135.96826172 833.74902344 C134.11999124 833.91934523 132.271685 834.08927952 130.42333984 834.25878906 C129.60612961 834.33484879 128.78891937 834.41090851 127.94694519 834.48927307 C114.03576667 835.74054672 100.2152227 836.32791042 86.25537109 836.36425781 C84.59280371 836.37119174 82.93023657 836.37818686 81.26766968 836.38523865 C75.98231736 836.40440335 70.69700406 836.40915579 65.41162109 836.41113281 C64.06443874 836.41223745 64.06443874 836.41223745 62.69004059 836.41336441 C37.64923486 836.43011259 12.75207617 836.27019439 -12.17138672 833.57568359 C-16.1069056 833.15917206 -20.04374204 832.80656965 -23.98681641 832.46972656 C-58.65889769 829.4216315 -97.50284455 825.41996433 -130.03759766 812.64160156 C-132.84216521 811.55421419 -135.5604024 810.78691804 -138.50634766 810.18066406 C-143.32219258 809.1786959 -147.80877939 807.59209159 -152.40087891 805.84863281 C-153.229021 805.53885498 -154.05716309 805.22907715 -154.91040039 804.90991211 C-160.48436055 802.81010656 -166.00577952 800.60464083 -171.48291016 798.26269531 C-173.91668592 797.23372265 -176.36880496 796.28747911 -178.83837891 795.34863281 C-191.12233111 790.44686342 -202.71662003 783.86169492 -214.08837891 777.16113281 C-215.10254883 776.56969482 -215.10254883 776.56969482 -216.13720703 775.96630859 C-218.22885774 774.74585831 -220.31558763 773.51741213 -222.40087891 772.28613281 C-223.05386963 771.90465088 -223.70686035 771.52316895 -224.37963867 771.13012695 C-228.97303883 768.39181296 -228.97303883 768.39181296 -230.08837891 766.16113281 C-231.74553787 765.14545474 -233.41439266 764.14883107 -235.08837891 763.16113281 C-237.15473646 761.64288071 -239.19137706 760.1107972 -241.21337891 758.53613281 C-242.05835938 757.88124878 -242.05835938 757.88124878 -242.92041016 757.21313477 C-257.56808646 745.8138687 -257.56808646 745.8138687 -264.08837891 739.16113281 C-264.90822266 738.35804688 -265.72806641 737.55496094 -266.57275391 736.72753906 C-269.29124264 733.954174 -271.83818923 731.06707339 -274.33837891 728.09863281 C-275.04909546 727.25643188 -275.04909546 727.25643188 -275.77416992 726.3972168 C-288.44358655 711.25116777 -300.55306108 694.5079936 -308.08837891 676.16113281 C-308.69143237 674.84812096 -309.29570538 673.53566887 -309.90087891 672.22363281 C-312.44675888 666.53226408 -314.5614636 660.67861399 -316.72119141 654.83300781 C-317.50594293 652.72538944 -318.31131012 650.62465447 -319.17431641 648.54785156 C-320.22358221 645.80810195 -320.91248428 643.07781829 -321.58837891 640.22363281 C-322.31019046 637.18339391 -323.05894562 634.24552357 -324.08837891 631.29394531 C-325.27751834 627.56859445 -325.95334166 623.82223765 -326.58837891 619.97363281 C-326.82757771 618.56341129 -327.06716813 617.15325613 -327.30712891 615.74316406 C-327.49106201 614.63823608 -327.49106201 614.63823608 -327.67871094 613.51098633 C-327.96165049 611.88804641 -328.26610586 610.26876281 -328.58789062 608.65307617 C-330.06163258 601.16006664 -330.72493659 593.71450996 -331.21337891 586.09863281 C-331.29612061 584.82600586 -331.3788623 583.55337891 -331.46411133 582.2421875 C-333.40970042 550.70484824 -333.40970042 550.70484824 -326.90087891 540.84863281 C-321.4986167 535.68647115 -315.19378109 533.05027348 -307.71968079 533.02069092 C-306.41833443 533.0121257 -306.41833443 533.0121257 -305.09069824 533.00338745 C-304.14674194 533.00226959 -303.20278564 533.00115173 -302.23022461 533 C-301.2297258 532.9950351 -300.22922699 532.99007019 -299.19841003 532.98495483 C-295.88698641 532.97034529 -292.57561072 532.96353253 -289.26416016 532.95800781 C-286.95973204 532.95225455 -284.65530394 532.94649683 -282.35087585 532.94073486 C-277.51638567 532.93022774 -272.6819121 532.92438345 -267.84741211 532.92089844 C-261.66486511 532.91542006 -255.48253904 532.89140465 -249.30006123 532.86292648 C-244.53785063 532.84426315 -239.77569279 532.83909249 -235.01344872 532.83756256 C-232.734975 532.83454292 -230.45650206 532.82653773 -228.17806435 532.81337738 C-224.98304284 532.79624297 -221.78855519 532.79821556 -218.59350586 532.8046875 C-217.19275314 532.79086533 -217.19275314 532.79086533 -215.76370239 532.77676392 C-207.50485396 532.82893211 -199.42428716 534.56195807 -193.08837891 540.16113281 C-189.57641211 546.15719293 -188.37796289 552.15471161 -187.65087891 558.97363281 C-185.54185892 575.69716552 -181.04077263 591.42625357 -175.08837891 607.16113281 C-174.73904297 608.12664063 -174.38970703 609.09214844 -174.02978516 610.08691406 C-167.72822657 626.89978615 -155.81950158 642.73090097 -142.08837891 654.16113281 C-141.38326172 654.77730469 -140.67814453 655.39347656 -139.95166016 656.02832031 C-129.4026114 664.94754999 -116.86872758 671.97736307 -104.08837891 677.16113281 C-103.11126953 677.5671875 -102.13416016 677.97324219 -101.12744141 678.39160156 C-88.61850382 683.41061973 -75.79960746 687.05659934 -62.55322266 689.48535156 C-60.12330862 689.95928068 -57.70986493 690.52217219 -55.31494141 691.14941406 C-50.43972398 692.39383893 -45.51082586 693.02176682 -40.52587891 693.66113281 C-39.63835937 693.7784375 -38.75083984 693.89574219 -37.83642578 694.01660156 C-35.95664672 694.26474841 -34.07641294 694.50946858 -32.19580078 694.7512207 C-29.99731302 695.04123178 -27.80082928 695.34662878 -25.60595703 695.6628418 C-16.31778636 696.97915508 -7.07176985 697.72823082 2.28662109 698.22363281 C3.79850987 698.30667115 5.31039127 698.389844 6.82226562 698.47314453 C10.52814049 698.67510766 14.23442666 698.86802288 17.94091797 699.05828857 C19.69439381 699.14979647 21.44756523 699.24709643 23.20068359 699.34521484 C88.40002217 702.98551125 158.89557886 702.77114821 220.91162109 680.16113281 C221.88099609 679.81308594 222.85037109 679.46503906 223.84912109 679.10644531 C232.55736728 675.81363972 240.6018875 671.16839951 248.35302734 666.04394531 C249.91162109 665.16113281 249.91162109 665.16113281 251.91162109 665.16113281 C251.91162109 664.50113281 251.91162109 663.84113281 251.91162109 663.16113281 C252.57162109 662.76925781 253.23162109 662.37738281 253.91162109 661.97363281 C257.3923487 659.87069322 260.16290607 657.33824439 263.14208984 654.58691406 C264.91162109 653.16113281 264.91162109 653.16113281 266.91162109 653.16113281 C267.20037109 652.35675781 267.48912109 651.55238281 267.78662109 650.72363281 C268.91162109 648.16113281 268.91162109 648.16113281 270.91162109 647.16113281 C272.04512643 645.14443454 272.04512643 645.14443454 272.91162109 643.16113281 C273.57162109 643.16113281 274.23162109 643.16113281 274.91162109 643.16113281 C275.15912109 642.45988281 275.40662109 641.75863281 275.66162109 641.03613281 C276.91162109 638.16113281 276.91162109 638.16113281 278.78662109 635.47363281 C291.85343935 615.10476906 294.02134834 585.36365781 290.41503906 561.93505859 C288.40878906 553.24543985 284.80623876 545.89783872 278.91162109 539.16113281 C278.91162109 538.50113281 278.91162109 537.84113281 278.91162109 537.16113281 C278.25162109 537.16113281 277.59162109 537.16113281 276.91162109 537.16113281 C275.79570833 536.04522005 274.68374214 534.92518735 273.58740234 533.79003906 C267.65567696 528.02423607 261.38794021 523.63228097 253.91162109 520.16113281 C253.25162109 519.50113281 252.59162109 518.84113281 251.91162109 518.16113281 C250.53888781 517.52534055 249.13738359 516.95087125 247.72412109 516.41113281 C243.96776156 514.96055017 240.23198505 513.4730095 236.50805664 511.94091797 C229.0896112 508.91054136 221.62938049 506.34243966 213.91162109 504.16113281 C212.84556641 503.85691406 211.77951172 503.55269531 210.68115234 503.23925781 C192.08993318 498.11354315 173.21423911 494.04489262 154.24584961 490.59863281 C151.81415863 490.14286561 149.39305603 489.64604978 146.97021484 489.14550781 C141.82997988 488.10927478 136.66885159 487.36470049 131.47412109 486.66113281 C120.54934172 485.14879278 120.54934172 485.14879278 115.22412109 484.09863281 C109.92308156 483.08336307 104.58193797 482.54211619 99.21850586 481.98120117 C93.34091818 481.35402508 87.50664088 480.53791306 81.66162109 479.66113281 C73.57409488 478.46075097 65.50007037 477.6145743 57.35400391 476.93066406 C49.49843321 476.2559864 41.69744539 475.28392972 33.87988281 474.26660156 C27.17024349 473.40714267 20.46443764 472.72702207 13.72412109 472.16113281 C5.71395784 471.48381338 -2.21499538 470.53181973 -10.15942383 469.30175781 C-14.87579161 468.58075944 -19.59070774 467.98834422 -24.33465576 467.48674011 C-34.15321919 466.44719877 -43.85777471 465.01245197 -53.58837891 463.34863281 C-55.15470174 463.08389093 -56.72102664 462.8191613 -58.28735352 462.55444336 C-67.75746817 460.94491697 -77.21341542 459.26544166 -86.65087891 457.47363281 C-87.65892578 457.28373779 -88.66697266 457.09384277 -89.70556641 456.89819336 C-95.42921653 455.78531518 -101.02132108 454.40889876 -106.63452148 452.83276367 C-109.61736085 452.01634828 -112.61699948 451.38283451 -115.65087891 450.78613281 C-121.37908008 449.58853323 -127.01158997 448.16151329 -132.65087891 446.59863281 C-133.41279541 446.38867676 -134.17471191 446.1787207 -134.9597168 445.96240234 C-138.77599147 444.88853126 -142.4153534 443.66402861 -146.08837891 442.16113281 C-148.07623374 441.68020019 -150.06415441 441.19952204 -152.05322266 440.72363281 C-155.19828405 439.85436441 -158.10380674 438.47015569 -161.08837891 437.16113281 C-162.41717772 436.71004774 -163.75099681 436.27359535 -165.08837891 435.84863281 C-175.15759991 432.55448631 -184.90065601 428.30440194 -194.58837891 424.03613281 C-195.32950928 423.71169189 -196.07063965 423.38725098 -196.83422852 423.05297852 C-203.67546131 420.00615984 -209.85390458 416.31744903 -216.08837891 412.16113281 C-217.24981209 411.48538987 -218.4166859 410.81892538 -219.58837891 410.16113281 C-225.04971674 407.07792677 -230.06943053 403.47372358 -235.05322266 399.68066406 C-237.03183807 398.20334852 -239.05132373 396.80620697 -241.08837891 395.41113281 C-242.07837891 394.66863281 -243.06837891 393.92613281 -244.08837891 393.16113281 C-244.08837891 392.50113281 -244.08837891 391.84113281 -244.08837891 391.16113281 C-244.62462891 390.93425781 -245.16087891 390.70738281 -245.71337891 390.47363281 C-251.23797584 387.42056609 -255.18916757 383.08195054 -259.23291016 378.33300781 C-261.16562982 376.07070859 -263.15416184 373.86702976 -265.15087891 371.66113281 C-270.04475855 366.16026035 -274.35282973 360.50683787 -278.08837891 354.16113281 C-278.63236328 353.24976563 -279.17634766 352.33839844 -279.73681641 351.39941406 C-288.94862045 335.78936603 -295.67241397 319.75500369 -300.08837891 302.16113281 C-300.43763428 300.84459717 -300.43763428 300.84459717 -300.79394531 299.50146484 C-309.6561023 264.59958693 -309.40822541 220.93577207 -300.08837891 186.16113281 C-299.84780762 185.22398437 -299.60723633 184.28683594 -299.359375 183.32128906 C-295.53619821 168.69526599 -289.91868931 154.89754846 -283.52587891 141.22363281 C-283.16196045 140.44238037 -282.79804199 139.66112793 -282.4230957 138.85620117 C-280.25491177 134.30539752 -277.86224851 130.02099414 -275.1237793 125.7878418 C-274.03199166 124.13418811 -274.03199166 124.13418811 -273.08837891 122.16113281 C-272.42837891 122.16113281 -271.76837891 122.16113281 -271.08837891 122.16113281 C-270.83056641 121.44570313 -270.57275391 120.73027344 -270.30712891 119.99316406 C-269.01453126 116.9895317 -267.46060801 114.52607909 -265.58837891 111.84863281 C-264.97994141 110.965625 -264.37150391 110.08261719 -263.74462891 109.17285156 C-263.19806641 108.50898437 -262.65150391 107.84511719 -262.08837891 107.16113281 C-261.42837891 107.16113281 -260.76837891 107.16113281 -260.08837891 107.16113281 C-259.86150391 106.43925781 -259.63462891 105.71738281 -259.40087891 104.97363281 C-257.82432805 101.59530954 -255.77851316 99.72316543 -253.08837891 97.16113281 C-252.42837891 96.33613281 -251.76837891 95.51113281 -251.08837891 94.66113281 C-234.63937796 74.09988164 -209.0751018 56.74955076 -185.47509766 45.35644531 C-182.84769828 44.04059554 -180.27117171 42.63946973 -177.69067383 41.234375 C-171.27929338 37.7543863 -164.92542223 34.72502406 -158.08837891 32.16113281 C-154.38889706 30.65319184 -150.69129512 29.14080609 -146.99462891 27.62597656 C-143.29641731 26.18265477 -139.52965878 25.05839762 -135.72119141 23.94458008 C-133.06228562 23.15336822 -130.42712774 22.30780072 -127.79150391 21.44238281 C-118.60945069 18.43715061 -109.56781181 15.55738503 -100.06103516 13.76660156 C-97.00222325 13.18638472 -97.00222325 13.18638472 -93.72900391 12.18066406 C-89.76353054 11.07016133 -85.83313615 10.33426027 -81.77587891 9.66113281 C-77.30702867 8.90735084 -72.85740943 8.12059281 -68.42138672 7.19067383 C-63.40429237 6.18328487 -58.39255263 5.49259451 -53.31103516 4.90722656 C-52.41903915 4.80144791 -51.52704315 4.69566925 -50.60801697 4.58668518 C-48.73686534 4.36555624 -46.86548753 4.14633351 -44.99389648 3.92895508 C-42.16093987 3.59980177 -39.32872598 3.26477795 -36.49658203 2.92871094 C-34.66394022 2.71287213 -32.83125916 2.49736636 -30.99853516 2.28222656 C-30.16798111 2.18429306 -29.33742706 2.08635956 -28.48170471 1.98545837 C-18.97998458 0.88476166 -9.57147239 0.01240697 0 0 Z " fill="#529D42" transform="translate(1074.08837890625,615.8388671875)"/>
</svg>
