<?xml version="1.0" encoding="UTF-8"?>
<svg version="1.1" xmlns="http://www.w3.org/2000/svg" width="192" height="192">
<path d="M0 0 C8.81818719 4.06100726 16.55615935 9.96619019 24.0625 16.0625 C27.98304888 14.33398215 31.26469527 11.78302387 34.6875 9.25 C45.3852786 1.46916208 54.54256558 -3.24237303 68.0625 -1.9375 C73.89527941 0.87473293 77.38640161 5.03418675 79.75 11 C83.74265476 22.69587454 82.31744161 35.11295542 80.0625 47.0625 C79.7325 47.7225 79.4025 48.3825 79.0625 49.0625 C79.62195313 49.19785156 80.18140625 49.33320312 80.7578125 49.47265625 C94.81149491 53.24591182 106.25867438 59.93109865 115.625 71.125 C118.17708207 76.34012424 118.75978995 80.73104323 116.9375 86.1875 C111.65514891 98.2312605 99.66323883 103.53551698 88.28515625 108.58203125 C85.0082436 109.9854875 85.0082436 109.9854875 82.0625 112.0625 C81.69391878 115.00646049 81.69391878 115.00646049 81.875 118.46875 C81.89820313 119.77070313 81.92140625 121.07265625 81.9453125 122.4140625 C82.00084003 124.47637461 82.06177451 126.53846672 82.12402344 128.60058594 C82.42321217 139.43961649 82.03888848 148.59178533 75.5390625 157.58984375 C71.68662316 161.43209145 68.24546185 162.49345863 62.875 162.5 C48.35189798 162.12383857 36.79909226 153.06296245 26.0625 144.0625 C22.46408874 145.65802197 19.64237093 147.87840846 16.5625 150.3125 C7.5955563 157.1987241 -2.8762947 163.69583945 -14.5625 162.9375 C-20.24168703 162.08708817 -23.65117824 159.70613336 -27.1875 155.1875 C-34.25557859 142.56593109 -32.40329629 127.74136995 -29.9375 114.0625 C-29.4425 112.5775 -29.4425 112.5775 -28.9375 111.0625 C-29.75605469 110.97226563 -30.57460938 110.88203125 -31.41796875 110.7890625 C-43.73157747 108.24707446 -57.0072165 100.78726128 -64.4375 90.625 C-67.08467386 86.28186517 -68.01976541 83.16295569 -67.9375 78.0625 C-65.06404397 68.00540389 -56.73014472 61.12924669 -47.9375 56.0625 C-44.33475728 54.36823721 -40.72906742 52.81740256 -37.0390625 51.32421875 C-34.59817926 50.33126499 -32.26813997 49.28522491 -29.9375 48.0625 C-30.081875 47.29808594 -30.22625 46.53367188 -30.375 45.74609375 C-32.57040676 33.07676726 -34.82649064 16.98133365 -27.3203125 5.61328125 C-19.84700522 -3.31940578 -10.80395031 -4.16088392 0 0 Z M-16.9375 7.9375 C-22.10134196 13.42408208 -22.39393947 20.36636002 -22.25 27.5 C-22.25322266 28.29470703 -22.25644531 29.08941406 -22.25976562 29.90820312 C-22.20963922 35.50868971 -21.35164448 40.64957263 -19.9375 46.0625 C-18.03117052 45.82208121 -16.12487421 45.58139633 -14.21875 45.33935547 C-12.78292693 45.16510211 -11.34546444 45.00343876 -9.90625 44.85986328 C-1.02553445 44.039616 -1.02553445 44.039616 6.6640625 39.921875 C8.6742918 37.391625 10.3810906 34.82017386 12.0625 32.0625 C13.21411836 30.50956009 14.37950401 28.96667223 15.5625 27.4375 C16.39753194 26.31376021 17.23157724 25.18928162 18.0625 24.0625 C9.32942469 15.57201011 -3.76572527 4.09573237 -16.9375 7.9375 Z M36.0625 20.0625 C34.73132843 21.06537588 33.398797 22.06646381 32.0625 23.0625 C35.52107437 30.63658466 40.69695303 39.79833696 48.63476562 43.14794922 C55.59210941 45.10912058 62.83617622 46.0625 70.0625 46.0625 C71.69642327 39.80832433 72.40118324 33.95678656 72.375 27.5 C72.39111328 26.70142578 72.40722656 25.90285156 72.42382812 25.08007812 C72.42890431 18.85160122 71.59562357 12.85767084 67.25 8.0625 C56.57599065 3.18295287 43.90637804 13.89576694 36.0625 20.0625 Z M22.1171875 32.99609375 C21.39789063 33.82238281 20.67859375 34.64867187 19.9375 35.5 C19.21304688 36.32371094 18.48859375 37.14742187 17.7421875 37.99609375 C15.95737362 39.74800232 15.95737362 39.74800232 16.0625 41.0625 C21.6725 41.0625 27.2825 41.0625 33.0625 41.0625 C31.02303655 36.98357309 29.10194691 34.4058916 26.0625 31.0625 C23.8417777 30.8275109 23.8417777 30.8275109 22.1171875 32.99609375 Z M3.73217773 57.88012695 C3.40677002 58.43144287 3.0813623 58.98275879 2.74609375 59.55078125 C2.37581055 60.17065918 2.00552734 60.79053711 1.62402344 61.42919922 C1.2530957 62.07131348 0.88216797 62.71342773 0.5 63.375 C-0.08152832 64.37684326 -0.08152832 64.37684326 -0.67480469 65.39892578 C-1.4308126 66.70774454 -2.18340898 68.01854145 -2.93212891 69.33154297 C-3.75336939 70.74548057 -4.62562056 72.12968449 -5.51171875 73.50390625 C-7.02152207 75.9868054 -8.09926776 78.07133185 -7.61865234 81.01611328 C-5.45553448 87.37348001 -2.34678264 92.8707099 1.1875 98.5625 C2.01314453 99.91988281 2.01314453 99.91988281 2.85546875 101.3046875 C5.16783532 105.40212639 5.16783532 105.40212639 8.0625 109.0625 C26.79392476 111.66757209 26.79392476 111.66757209 44.55322266 107.68115234 C48.12260877 104.14311961 49.82439879 99.90251573 51.3359375 95.17480469 C52.04252351 93.12057682 52.8999026 91.40684597 54 89.5390625 C57.40430666 84.20867086 57.40430666 84.20867086 57.43359375 78.18359375 C55.87343137 74.63211302 54.20010725 71.17075227 52.375 67.75 C51.90416992 66.83057617 51.90416992 66.83057617 51.42382812 65.89257812 C50.36888422 63.90449401 49.22389469 61.99019466 48.0625 60.0625 C47.6396875 59.25232422 47.216875 58.44214844 46.78125 57.60742188 C45.08249213 54.83102819 43.67146002 53.02663259 41.0625 51.0625 C36.52535095 49.99976499 32.18665365 49.93003883 27.56445312 50.10888672 C25.43343677 50.18765018 23.31197288 50.19096001 21.1796875 50.18359375 C12.8765793 50.30721897 8.87088217 50.85908557 3.73217773 57.88012695 Z M54.0625 53.0625 C56.7025 58.0125 59.3425 62.9625 62.0625 68.0625 C64.6124869 66.78750655 64.72226415 65.87758648 65.6875 63.25 C65.94789063 62.56292969 66.20828125 61.87585938 66.4765625 61.16796875 C67.24123651 58.78448677 67.24123651 58.78448677 67.0625 55.0625 C62.7725 54.4025 58.4825 53.7425 54.0625 53.0625 Z M-12.125 54.0625 C-13.02605469 54.248125 -13.92710938 54.43375 -14.85546875 54.625 C-15.54253906 54.769375 -16.22960938 54.91375 -16.9375 55.0625 C-16.44019348 60.03556516 -15.38447666 63.70049813 -12.9375 68.0625 C-10.49336611 64.97980861 -8.60640476 61.77778889 -6.75 58.3125 C-6.22019531 57.32765625 -5.69039062 56.3428125 -5.14453125 55.328125 C-4.74621094 54.58046875 -4.34789062 53.8328125 -3.9375 53.0625 C-6.8529476 53.0625 -9.27904481 53.47113269 -12.125 54.0625 Z M76.0625 58.0625 C75.07767124 60.93567015 74.0995007 63.81082745 73.125 66.6875 C72.70831055 67.89986328 72.70831055 67.89986328 72.28320312 69.13671875 C69.27394329 78.05572983 68.89593522 83.02542731 72.3125 91.875 C72.62574219 92.74576172 72.93898437 93.61652344 73.26171875 94.51367188 C74.49063362 97.86793374 74.49063362 97.86793374 76.0625 101.0625 C80.27017757 102.46505919 82.90639325 100.73609117 86.75 99 C87.47098877 98.67781494 88.19197754 98.35562988 88.93481445 98.02368164 C96.64724583 94.47838779 103.28913248 90.22255128 108.0625 83.0625 C109.06326997 80.1507504 109.06326997 80.1507504 108.0625 77.0625 C101.38781987 66.47654234 89.48013483 61.81306028 78.0625 58.0625 C77.4025 58.0625 76.7425 58.0625 76.0625 58.0625 Z M-31.0625 59.03125 C-32.35907154 59.52907548 -33.6505206 60.04037744 -34.9375 60.5625 C-35.94647339 60.97036743 -35.94647339 60.97036743 -36.97583008 61.38647461 C-44.46580427 64.53689859 -52.76366178 68.80365093 -56.9375 76.0625 C-58.36244892 79.3685486 -58.36244892 79.3685486 -57.9375 83.0625 C-53.20345781 92.13001157 -41.38849674 97.45787073 -32.25 101.0625 C-29.03552825 102.2070023 -29.03552825 102.2070023 -25.9375 102.0625 C-25.59976563 101.03769531 -25.26203125 100.01289062 -24.9140625 98.95703125 C-24.4636226 97.59632737 -24.01309724 96.23565178 -23.5625 94.875 C-23.34078125 94.20146484 -23.1190625 93.52792969 -22.890625 92.83398438 C-21.94037968 89.96927421 -20.99451741 87.18397976 -19.7109375 84.44921875 C-17.87308038 78.77785159 -20.96061583 72.63506626 -22.875 67.25 C-23.13990234 66.47462891 -23.40480469 65.69925781 -23.67773438 64.90039062 C-25.45287564 58.68704206 -25.45287564 58.68704206 -31.0625 59.03125 Z M-13.9375 93.0625 C-14.44309908 94.49804025 -14.9417749 95.9360202 -15.4375 97.375 C-15.7159375 98.17550781 -15.994375 98.97601563 -16.28125 99.80078125 C-17.07683107 102.15019422 -17.07683107 102.15019422 -16.9375 105.0625 C-15.52372218 105.42802803 -14.10629424 105.77945495 -12.6875 106.125 C-11.89859375 106.32222656 -11.1096875 106.51945312 -10.296875 106.72265625 C-7.83355178 107.07747267 -6.28145868 106.83127544 -3.9375 106.0625 C-5.220539 103.89028513 -6.51322113 101.7249676 -7.8125 99.5625 C-8.35970703 98.63244141 -8.35970703 98.63244141 -8.91796875 97.68359375 C-9.8697518 96.10882542 -10.89860259 94.58120947 -11.9375 93.0625 C-12.5975 93.0625 -13.2575 93.0625 -13.9375 93.0625 Z M62.0625 93.0625 C59.4225 97.6825 56.7825 102.3025 54.0625 107.0625 C55.63 106.93875 57.1975 106.815 58.8125 106.6875 C59.69421875 106.61789063 60.5759375 106.54828125 61.484375 106.4765625 C64.40917577 106.13893063 64.40917577 106.13893063 68.0625 104.0625 C66.7425 100.4325 65.4225 96.8025 64.0625 93.0625 C63.4025 93.0625 62.7425 93.0625 62.0625 93.0625 Z M80.0625 113.0625 C81.0625 117.0625 81.0625 117.0625 81.0625 117.0625 Z M-19.9375 114.0625 C-21.40712835 120.49454258 -22.27878528 126.58991486 -22.25 133.1875 C-22.27416992 134.30705078 -22.27416992 134.30705078 -22.29882812 135.44921875 C-22.30397027 141.36268961 -21.41063348 147.01992087 -17.5559082 151.76220703 C-15.24968485 153.61511781 -13.09742098 153.53539994 -10.22265625 153.39453125 C-2.6289057 152.29116579 3.40059311 148.38894527 9.5625 144.0625 C10.17432129 143.63533691 10.78614258 143.20817383 11.41650391 142.76806641 C14.49528979 140.52400047 16.77602141 138.71880758 18.0625 135.0625 C17.47082031 134.42183594 16.87914062 133.78117187 16.26953125 133.12109375 C15.47933594 132.25613281 14.68914062 131.39117187 13.875 130.5 C13.09769531 129.65308594 12.32039063 128.80617187 11.51953125 127.93359375 C9.0625 125.0625 9.0625 125.0625 8.07885742 123.24633789 C6.26803083 120.01166395 4.99001267 118.38925786 1.41870117 117.13110352 C-1.79986861 116.47875592 -4.98949628 116.01565065 -8.25 115.625 C-9.93319336 115.38620117 -9.93319336 115.38620117 -11.65039062 115.14257812 C-14.41022337 114.75502714 -17.17072078 114.39614196 -19.9375 114.0625 Z M43.296875 120.05078125 C41.62862235 122.30759967 40.36770874 124.58219679 39.0625 127.0625 C37.76239917 128.5505362 36.4291221 130.01031469 35.0625 131.4375 C33.25672546 133.22811335 33.25672546 133.22811335 32.0625 135.0625 C33.40262156 139.08286467 36.0417835 140.58758236 39.375 142.9375 C40.31472656 143.60241455 40.31472656 143.60241455 41.2734375 144.28076172 C48.4609085 149.21942551 56.08813079 153.7566501 65.0625 153.0625 C68.18735363 151.21599558 69.71103984 149.85450571 71.1875 146.52734375 C72.32116744 142.03822311 72.35381681 137.86026724 72.3125 133.25 C72.32023437 132.39857422 72.32796875 131.54714844 72.3359375 130.66992188 C72.31822359 124.85533181 71.49823112 119.69717493 70.0625 114.0625 C61.71251668 114.0625 50.14698531 115.12605505 43.296875 120.05078125 Z M16.0625 119.0625 C16.97 120.34125 17.8775 121.62 18.8125 122.9375 C19.32296875 123.65679687 19.8334375 124.37609375 20.359375 125.1171875 C22.13753547 127.14820565 23.58951607 128.04105012 26.0625 129.0625 C27.39879746 127.58601062 28.73146671 126.1062367 30.0625 124.625 C30.805 123.80128906 31.5475 122.97757812 32.3125 122.12890625 C34.17021092 120.38662545 34.17021092 120.38662545 34.0625 119.0625 C28.1225 119.0625 22.1825 119.0625 16.0625 119.0625 Z " fill="#61DBFB" transform="translate(70.9375,15.9375)"/>
<path d="M0 0 C4.15584949 3.40024049 7.45556994 6.95460432 8.75 12.25 C8.84558669 18.57996275 8.04917328 23.36985736 3.75 28.25 C-1.73738426 32.39353505 -6.35606489 34.11174189 -13.25 33.25 C-18.49834488 31.648483 -22.39993122 28.96443749 -25.3359375 24.30078125 C-27.40455679 19.65964823 -28.00552029 14.92696697 -26.6171875 10.0078125 C-23.98223559 4.14006246 -20.18877636 0.65550174 -14.375 -2.125 C-8.92732525 -3.21453495 -4.897445 -2.63708577 0 0 Z " fill="#61DAFB" transform="translate(105.25,80.75)"/>
<path d="M0 0 C0.33 0 0.66 0 1 0 C1 6.27 1 12.54 1 19 C0.67 19 0.34 19 0 19 C0 12.73 0 6.46 0 0 Z " fill="#64DAFB" transform="translate(141,139)"/>
<path d="M0 0 C0.33 0 0.66 0 1 0 C1 6.27 1 12.54 1 19 C0.67 19 0.34 19 0 19 C0 12.73 0 6.46 0 0 Z " fill="#64DAFB" transform="translate(50,34)"/>
<path d="M0 0 C0.33 0 0.66 0 1 0 C1 5.61 1 11.22 1 17 C0.67 17 0.34 17 0 17 C0 11.39 0 5.78 0 0 Z " fill="#64DAFB" transform="translate(141,35)"/>
<path d="M0 0 C0.33 0 0.66 0 1 0 C1 5.28 1 10.56 1 16 C0.67 16 0.34 16 0 16 C0 10.72 0 5.44 0 0 Z " fill="#64DAFB" transform="translate(154,141)"/>
<path d="M0 0 C0.33 0 0.66 0 1 0 C1 5.28 1 10.56 1 16 C0.67 16 0.34 16 0 16 C0 10.72 0 5.44 0 0 Z " fill="#64DAFB" transform="translate(50,141)"/>
<path d="M0 0 C0.33 0 0.66 0 1 0 C1 4.62 1 9.24 1 14 C0.67 14 0.34 14 0 14 C0 9.38 0 4.76 0 0 Z " fill="#64DAFB" transform="translate(37,36)"/>
<path d="M0 0 C0.33 0 0.66 0 1 0 C1 3.96 1 7.92 1 12 C0.67 12 0.34 12 0 12 C0 8.04 0 4.08 0 0 Z " fill="#64DAFB" transform="translate(154,37)"/>
<path d="M0 0 C0.33 0 0.66 0 1 0 C1 3.63 1 7.26 1 11 C0.67 11 0.34 11 0 11 C0 7.37 0 3.74 0 0 Z " fill="#64DAFB" transform="translate(37,144)"/>
<path d="M0 0 C3.3 0 6.6 0 10 0 C10 0.33 10 0.66 10 1 C6.7 1 3.4 1 0 1 C0 0.67 0 0.34 0 0 Z " fill="#64DAFB" transform="translate(54,12)"/>
<path d="M0 0 C0.33 0 0.66 0 1 0 C1 1.98 1 3.96 1 6 C0.67 6 0.34 6 0 6 C0 4.02 0 2.04 0 0 Z " fill="#64DAFB" transform="translate(38,135)"/>
<path d="M0 0 C0.33 0 0.66 0 1 0 C1 1.98 1 3.96 1 6 C0.67 6 0.34 6 0 6 C0 4.02 0 2.04 0 0 Z " fill="#64DAFB" transform="translate(153,133)"/>
<path d="M0 0 C0.33 0 0.66 0 1 0 C1 1.98 1 3.96 1 6 C0.67 6 0.34 6 0 6 C0 4.02 0 2.04 0 0 Z " fill="#64DAFB" transform="translate(115,93)"/>
<path d="M0 0 C0.33 0 0.66 0 1 0 C1 1.98 1 3.96 1 6 C0.67 6 0.34 6 0 6 C0 4.02 0 2.04 0 0 Z " fill="#64DAFB" transform="translate(76,93)"/>
<path d="M0 0 C1.98 0 3.96 0 6 0 C6 0.33 6 0.66 6 1 C4.02 1 2.04 1 0 1 C0 0.67 0 0.34 0 0 Z " fill="#64DAFB" transform="translate(101,68)"/>
<path d="M0 0 C1.98 0 3.96 0 6 0 C6 0.33 6 0.66 6 1 C4.02 1 2.04 1 0 1 C0 0.67 0 0.34 0 0 Z " fill="#64DAFB" transform="translate(86,68)"/>
<path d="M0 0 C0.33 0 0.66 0 1 0 C1 1.98 1 3.96 1 6 C0.67 6 0.34 6 0 6 C0 4.02 0 2.04 0 0 Z " fill="#64DAFB" transform="translate(153,51)"/>
<path d="M0 0 C0.33 0 0.66 0 1 0 C1 1.65 1 3.3 1 5 C0.67 5 0.34 5 0 5 C0 3.35 0 1.7 0 0 Z " fill="#64DAFB" transform="translate(38,157)"/>
<path d="M0 0 C0.33 0 0.66 0 1 0 C1 1.65 1 3.3 1 5 C0.67 5 0.34 5 0 5 C0 3.35 0 1.7 0 0 Z " fill="#64DAFB" transform="translate(51,135)"/>
<path d="M0 0 C0.33 0 0.66 0 1 0 C1 1.65 1 3.3 1 5 C0.67 5 0.34 5 0 5 C0 3.35 0 1.7 0 0 Z " fill="#64DAFB" transform="translate(140,134)"/>
<path d="M0 0 C1.65 0 3.3 0 5 0 C5 0.33 5 0.66 5 1 C3.35 1 1.7 1 0 1 C0 0.67 0 0.34 0 0 Z " fill="#64DAFB" transform="translate(80,123)"/>
<path d="M0 0 C0.99 0.33 1.98 0.66 3 1 C2.34 1 1.68 1 1 1 C0.67 1.66 0.34 2.32 0 3 C0 2.01 0 1.02 0 0 Z " fill="#64DAFB" transform="translate(55,72)"/>
<path d="M0 0 C0.33 0 0.66 0 1 0 C1 1.65 1 3.3 1 5 C0.67 5 0.34 5 0 5 C0 3.35 0 1.7 0 0 Z " fill="#64DAFB" transform="translate(140,53)"/>
<path d="M0 0 C0.33 0 0.66 0 1 0 C1 1.65 1 3.3 1 5 C0.67 5 0.34 5 0 5 C0 3.35 0 1.7 0 0 Z " fill="#64DAFB" transform="translate(51,53)"/>
<path d="M0 0 C0.33 0 0.66 0 1 0 C1 1.65 1 3.3 1 5 C0.67 5 0.34 5 0 5 C0 3.35 0 1.7 0 0 Z " fill="#64DAFB" transform="translate(38,53)"/>
<path d="M0 0 C0.33 0 0.66 0 1 0 C1 1.65 1 3.3 1 5 C0.67 5 0.34 5 0 5 C0 3.35 0 1.7 0 0 Z " fill="#64DAFB" transform="translate(153,30)"/>
<path d="M0 0 C1 4 1 4 1 4 Z " fill="#64DAFB" transform="translate(153,159)"/>
<path d="M0 0 C0.99 0.33 1.98 0.66 3 1 C2.01 1 1.02 1 0 1 C0 0.67 0 0.34 0 0 Z " fill="#64DAFB" transform="translate(89,136)"/>
<path d="M0 0 C1 4 1 4 1 4 Z " fill="#64DAFB" transform="translate(39,130)"/>
<path d="M0 0 C0.99 1.485 0.99 1.485 2 3 C1.34 3 0.68 3 0 3 C0 2.01 0 1.02 0 0 Z " fill="#64DAFB" transform="translate(63,119)"/>
<path d="M0 0 C0.33 0.99 0.66 1.98 1 3 C0.34 2.67 -0.32 2.34 -1 2 C-0.67 1.34 -0.34 0.68 0 0 Z " fill="#64DAFB" transform="translate(128,119)"/>
<path d="M0 0 C1 4 1 4 1 4 Z " fill="#64DAFB" transform="translate(190,94)"/>
<path d="M0 0 C1 4 1 4 1 4 Z " fill="#64DAFB" transform="translate(177,94)"/>
<path d="M0 0 C1 4 1 4 1 4 Z " fill="#64DAFB" transform="translate(141,94)"/>
<path d="M0 0 C1 4 1 4 1 4 Z " fill="#64DAFB" transform="translate(50,94)"/>
<path d="M0 0 C1 4 1 4 1 4 Z " fill="#64DAFB" transform="translate(14,94)"/>
<path d="M0 0 C1 4 1 4 1 4 Z " fill="#64DAFB" transform="translate(39,59)"/>
<path d="M0 0 C1 4 1 4 1 4 Z " fill="#64DAFB" transform="translate(152,58)"/>
<path d="M0 0 C4 1 4 1 4 1 Z " fill="#64DAFB" transform="translate(122,57)"/>
<path d="M0 0 C1 4 1 4 1 4 Z " fill="#64DAFB" transform="translate(51,30)"/>
<path d="M0 0 C1 4 1 4 1 4 Z " fill="#64DAFB" transform="translate(38,30)"/>
<path d="" fill="#64DAFB" transform="translate(0,0)"/>
<path d="" fill="#64DAFB" transform="translate(0,0)"/>
<path d="" fill="#64DAFB" transform="translate(0,0)"/>
<path d="M0 0 C0.66 0.66 1.32 1.32 2 2 C1.34 2 0.68 2 0 2 C0 1.34 0 0.68 0 0 Z " fill="#64DAFB" transform="translate(95,142)"/>
<path d="M0 0 C0.99 0.495 0.99 0.495 2 1 C1.01 1.495 1.01 1.495 0 2 C0 1.34 0 0.68 0 0 Z " fill="#64DAFB" transform="translate(101,136)"/>
<path d="M0 0 C3 1 3 1 3 1 Z " fill="#64DAFB" transform="translate(118,135)"/>
<path d="M0 0 C3 1 3 1 3 1 Z " fill="#64DAFB" transform="translate(108,123)"/>
<path d="M0 0 C0.66 0.66 1.32 1.32 2 2 C1.34 2 0.68 2 0 2 C0 1.34 0 0.68 0 0 Z " fill="#64DAFB" transform="translate(55,118)"/>
<path d="M0 0 C0.33 0.66 0.66 1.32 1 2 C0.34 1.67 -0.32 1.34 -1 1 C-0.67 0.67 -0.34 0.34 0 0 Z " fill="#64DAFB" transform="translate(136,118)"/>
<path d="" fill="#64DAFB" transform="translate(0,0)"/>
<path d="" fill="#64DAFB" transform="translate(0,0)"/>
<path d="" fill="#64DAFB" transform="translate(0,0)"/>
<path d="" fill="#64DAFB" transform="translate(0,0)"/>
<path d="" fill="#64DAFB" transform="translate(0,0)"/>
<path d="" fill="#64DAFB" transform="translate(0,0)"/>
<path d="" fill="#64DAFB" transform="translate(0,0)"/>
<path d="" fill="#64DAFB" transform="translate(0,0)"/>
<path d="" fill="#64DAFB" transform="translate(0,0)"/>
<path d="" fill="#64DAFB" transform="translate(0,0)"/>
<path d="" fill="#64DAFB" transform="translate(0,0)"/>
<path d="" fill="#64DAFB" transform="translate(0,0)"/>
<path d="" fill="#64DAFB" transform="translate(0,0)"/>
<path d="" fill="#64DAFB" transform="translate(0,0)"/>
<path d="" fill="#64DAFB" transform="translate(0,0)"/>
<path d="M0 0 C0.66 0 1.32 0 2 0 C1.67 0.66 1.34 1.32 1 2 C0.67 1.34 0.34 0.68 0 0 Z " fill="#64DAFB" transform="translate(135,72)"/>
<path d="M0 0 C3 1 3 1 3 1 Z " fill="#64DAFB" transform="translate(67,57)"/>
<path d="" fill="#64DAFB" transform="translate(0,0)"/>
<path d="M0 0 C3 1 3 1 3 1 Z " fill="#64DAFB" transform="translate(54,25)"/>
<path d="M0 0 C3 1 3 1 3 1 Z " fill="#64DAFB" transform="translate(129,12)"/>
<path d="" fill="#64DAFB" transform="translate(0,0)"/>
<path d="" fill="#64DAFB" transform="translate(0,0)"/>
<path d="" fill="#64DAFB" transform="translate(0,0)"/>
<path d="" fill="#64DAFB" transform="translate(0,0)"/>
<path d="" fill="#64DAFB" transform="translate(0,0)"/>
<path d="" fill="#64DAFB" transform="translate(0,0)"/>
<path d="" fill="#64DAFB" transform="translate(0,0)"/>
<path d="M0 0 C2 1 2 1 2 1 Z " fill="#64DAFB" transform="translate(95,160)"/>
<path d="" fill="#64DAFB" transform="translate(0,0)"/>
<path d="" fill="#64DAFB" transform="translate(0,0)"/>
<path d="" fill="#64DAFB" transform="translate(0,0)"/>
<path d="" fill="#64DAFB" transform="translate(0,0)"/>
<path d="M0 0 C2 1 2 1 2 1 Z " fill="#64DAFB" transform="translate(72,135)"/>
<path d="" fill="#64DAFB" transform="translate(0,0)"/>
<path d="" fill="#64DAFB" transform="translate(0,0)"/>
<path d="" fill="#64DAFB" transform="translate(0,0)"/>
<path d="" fill="#64DAFB" transform="translate(0,0)"/>
<path d="" fill="#64DAFB" transform="translate(0,0)"/>
<path d="" fill="#64DAFB" transform="translate(0,0)"/>
<path d="" fill="#64DAFB" transform="translate(0,0)"/>
<path d="" fill="#64DAFB" transform="translate(0,0)"/>
<path d="" fill="#64DAFB" transform="translate(0,0)"/>
<path d="" fill="#64DAFB" transform="translate(0,0)"/>
<path d="" fill="#64DAFB" transform="translate(0,0)"/>
<path d="" fill="#64DAFB" transform="translate(0,0)"/>
<path d="" fill="#64DAFB" transform="translate(0,0)"/>
<path d="" fill="#64DAFB" transform="translate(0,0)"/>
<path d="" fill="#64DAFB" transform="translate(0,0)"/>
<path d="" fill="#64DAFB" transform="translate(0,0)"/>
<path d="" fill="#64DAFB" transform="translate(0,0)"/>
<path d="" fill="#64DAFB" transform="translate(0,0)"/>
<path d="" fill="#64DAFB" transform="translate(0,0)"/>
<path d="" fill="#64DAFB" transform="translate(0,0)"/>
<path d="" fill="#64DAFB" transform="translate(0,0)"/>
<path d="" fill="#64DAFB" transform="translate(0,0)"/>
<path d="" fill="#64DAFB" transform="translate(0,0)"/>
<path d="" fill="#64DAFB" transform="translate(0,0)"/>
<path d="" fill="#64DAFB" transform="translate(0,0)"/>
<path d="" fill="#64DAFB" transform="translate(0,0)"/>
<path d="" fill="#64DAFB" transform="translate(0,0)"/>
<path d="" fill="#64DAFB" transform="translate(0,0)"/>
<path d="" fill="#64DAFB" transform="translate(0,0)"/>
<path d="" fill="#64DAFB" transform="translate(0,0)"/>
<path d="" fill="#64DAFB" transform="translate(0,0)"/>
<path d="" fill="#64DAFB" transform="translate(0,0)"/>
<path d="" fill="#64DAFB" transform="translate(0,0)"/>
<path d="" fill="#64DAFB" transform="translate(0,0)"/>
<path d="" fill="#64DAFB" transform="translate(0,0)"/>
<path d="" fill="#64DAFB" transform="translate(0,0)"/>
<path d="" fill="#64DAFB" transform="translate(0,0)"/>
<path d="" fill="#64DAFB" transform="translate(0,0)"/>
<path d="" fill="#64DAFB" transform="translate(0,0)"/>
<path d="" fill="#64DAFB" transform="translate(0,0)"/>
<path d="" fill="#64DAFB" transform="translate(0,0)"/>
<path d="" fill="#64DAFB" transform="translate(0,0)"/>
<path d="" fill="#64DAFB" transform="translate(0,0)"/>
<path d="" fill="#64DAFB" transform="translate(0,0)"/>
<path d="" fill="#64DAFB" transform="translate(0,0)"/>
<path d="" fill="#64DAFB" transform="translate(0,0)"/>
<path d="" fill="#64DAFB" transform="translate(0,0)"/>
<path d="" fill="#64DAFB" transform="translate(0,0)"/>
<path d="" fill="#64DAFB" transform="translate(0,0)"/>
<path d="" fill="#64DAFB" transform="translate(0,0)"/>
<path d="" fill="#64DAFB" transform="translate(0,0)"/>
<path d="" fill="#64DAFB" transform="translate(0,0)"/>
<path d="" fill="#64DAFB" transform="translate(0,0)"/>
<path d="" fill="#64DAFB" transform="translate(0,0)"/>
<path d="" fill="#64DAFB" transform="translate(0,0)"/>
<path d="" fill="#64DAFB" transform="translate(0,0)"/>
<path d="" fill="#64DAFB" transform="translate(0,0)"/>
<path d="" fill="#64DAFB" transform="translate(0,0)"/>
<path d="" fill="#64DAFB" transform="translate(0,0)"/>
<path d="" fill="#64DAFB" transform="translate(0,0)"/>
<path d="" fill="#64DAFB" transform="translate(0,0)"/>
<path d="" fill="#64DAFB" transform="translate(0,0)"/>
<path d="" fill="#64DAFB" transform="translate(0,0)"/>
<path d="" fill="#64DAFB" transform="translate(0,0)"/>
<path d="" fill="#64DAFB" transform="translate(0,0)"/>
<path d="" fill="#64DAFB" transform="translate(0,0)"/>
<path d="" fill="#64DAFB" transform="translate(0,0)"/>
<path d="" fill="#64DAFB" transform="translate(0,0)"/>
<path d="" fill="#64DAFB" transform="translate(0,0)"/>
<path d="" fill="#64DAFB" transform="translate(0,0)"/>
<path d="" fill="#64DAFB" transform="translate(0,0)"/>
<path d="" fill="#64DAFB" transform="translate(0,0)"/>
<path d="" fill="#64DAFB" transform="translate(0,0)"/>
<path d="" fill="#64DAFB" transform="translate(0,0)"/>
<path d="" fill="#64DAFB" transform="translate(0,0)"/>
<path d="" fill="#64DAFB" transform="translate(0,0)"/>
<path d="" fill="#64DAFB" transform="translate(0,0)"/>
<path d="" fill="#64DAFB" transform="translate(0,0)"/>
<path d="" fill="#64DAFB" transform="translate(0,0)"/>
<path d="" fill="#64DAFB" transform="translate(0,0)"/>
<path d="" fill="#64DAFB" transform="translate(0,0)"/>
<path d="" fill="#64DAFB" transform="translate(0,0)"/>
<path d="" fill="#64DAFB" transform="translate(0,0)"/>
<path d="" fill="#64DAFB" transform="translate(0,0)"/>
<path d="" fill="#64DAFB" transform="translate(0,0)"/>
<path d="" fill="#64DAFB" transform="translate(0,0)"/>
<path d="" fill="#64DAFB" transform="translate(0,0)"/>
<path d="" fill="#64DAFB" transform="translate(0,0)"/>
<path d="M0 0 C2 1 2 1 2 1 Z " fill="#64DAFB" transform="translate(138,60)"/>
<path d="M0 0 C2 1 2 1 2 1 Z " fill="#64DAFB" transform="translate(52,60)"/>
<path d="" fill="#64DAFB" transform="translate(0,0)"/>
<path d="" fill="#64DAFB" transform="translate(0,0)"/>
<path d="" fill="#64DAFB" transform="translate(0,0)"/>
<path d="" fill="#64DAFB" transform="translate(0,0)"/>
<path d="M0 0 C2 1 2 1 2 1 Z " fill="#64DAFB" transform="translate(95,31)"/>
<path d="" fill="#64DAFB" transform="translate(0,0)"/>
<path d="" fill="#64DAFB" transform="translate(0,0)"/>
<path d="" fill="#64DAFB" transform="translate(0,0)"/>
<path d="" fill="#64DAFB" transform="translate(0,0)"/>
<path d="" fill="#64DAFB" transform="translate(0,0)"/>
<path d="" fill="#64DAFB" transform="translate(0,0)"/>
<path d="M0 0 C2 1 2 1 2 1 Z " fill="#64DAFB" transform="translate(65,26)"/>
<path d="M0 0 C2 1 2 1 2 1 Z " fill="#64DAFB" transform="translate(136,25)"/>
<path d="" fill="#64DAFB" transform="translate(0,0)"/>
<path d="" fill="#64DAFB" transform="translate(0,0)"/>
<path d="" fill="#64DAFB" transform="translate(0,0)"/>
<path d="" fill="#64DAFB" transform="translate(0,0)"/>
<path d="" fill="#64DAFB" transform="translate(0,0)"/>
<path d="" fill="#64DAFB" transform="translate(0,0)"/>
<path d="" fill="#64DAFB" transform="translate(0,0)"/>
<path d="" fill="#64DAFB" transform="translate(0,0)"/>
<path d="" fill="#64DAFB" transform="translate(0,0)"/>
<path d="" fill="#64DAFB" transform="translate(0,0)"/>
<path d="" fill="#64DAFB" transform="translate(0,0)"/>
<path d="" fill="#64DAFB" transform="translate(0,0)"/>
<path d="" fill="#64DAFB" transform="translate(0,0)"/>
<path d="" fill="#64DAFB" transform="translate(0,0)"/>
<path d="" fill="#64DAFB" transform="translate(0,0)"/>
<path d="" fill="#64DAFB" transform="translate(0,0)"/>
<path d="" fill="#64DAFB" transform="translate(0,0)"/>
<path d="" fill="#64DAFB" transform="translate(0,0)"/>
<path d="" fill="#64DAFB" transform="translate(0,0)"/>
<path d="" fill="#64DAFB" transform="translate(0,0)"/>
<path d="" fill="#64DAFB" transform="translate(0,0)"/>
<path d="" fill="#64DAFB" transform="translate(0,0)"/>
<path d="" fill="#64DAFB" transform="translate(0,0)"/>
<path d="" fill="#64DAFB" transform="translate(0,0)"/>
<path d="" fill="#64DAFB" transform="translate(0,0)"/>
<path d="" fill="#64DAFB" transform="translate(0,0)"/>
<path d="" fill="#64DAFB" transform="translate(0,0)"/>
<path d="" fill="#64DAFB" transform="translate(0,0)"/>
<path d="" fill="#64DAFB" transform="translate(0,0)"/>
<path d="" fill="#64DAFB" transform="translate(0,0)"/>
<path d="" fill="#64DAFB" transform="translate(0,0)"/>
<path d="" fill="#64DAFB" transform="translate(0,0)"/>
<path d="" fill="#64DAFB" transform="translate(0,0)"/>
<path d="" fill="#64DAFB" transform="translate(0,0)"/>
<path d="" fill="#64DAFB" transform="translate(0,0)"/>
<path d="" fill="#64DAFB" transform="translate(0,0)"/>
<path d="" fill="#64DAFB" transform="translate(0,0)"/>
<path d="" fill="#64DAFB" transform="translate(0,0)"/>
<path d="" fill="#64DAFB" transform="translate(0,0)"/>
<path d="" fill="#64DAFB" transform="translate(0,0)"/>
<path d="" fill="#64DAFB" transform="translate(0,0)"/>
<path d="" fill="#64DAFB" transform="translate(0,0)"/>
<path d="" fill="#64DAFB" transform="translate(0,0)"/>
<path d="" fill="#64DAFB" transform="translate(0,0)"/>
<path d="" fill="#64DAFB" transform="translate(0,0)"/>
<path d="" fill="#64DAFB" transform="translate(0,0)"/>
<path d="" fill="#64DAFB" transform="translate(0,0)"/>
<path d="" fill="#64DAFB" transform="translate(0,0)"/>
<path d="" fill="#64DAFB" transform="translate(0,0)"/>
<path d="" fill="#64DAFB" transform="translate(0,0)"/>
<path d="" fill="#64DAFB" transform="translate(0,0)"/>
<path d="" fill="#64DAFB" transform="translate(0,0)"/>
<path d="" fill="#64DAFB" transform="translate(0,0)"/>
<path d="" fill="#64DAFB" transform="translate(0,0)"/>
<path d="" fill="#64DAFB" transform="translate(0,0)"/>
<path d="" fill="#64DAFB" transform="translate(0,0)"/>
<path d="" fill="#64DAFB" transform="translate(0,0)"/>
<path d="" fill="#64DAFB" transform="translate(0,0)"/>
<path d="" fill="#64DAFB" transform="translate(0,0)"/>
<path d="" fill="#64DAFB" transform="translate(0,0)"/>
<path d="" fill="#64DAFB" transform="translate(0,0)"/>
<path d="" fill="#64DAFB" transform="translate(0,0)"/>
<path d="" fill="#64DAFB" transform="translate(0,0)"/>
<path d="" fill="#64DAFB" transform="translate(0,0)"/>
<path d="" fill="#64DAFB" transform="translate(0,0)"/>
<path d="" fill="#64DAFB" transform="translate(0,0)"/>
<path d="" fill="#64DAFB" transform="translate(0,0)"/>
<path d="" fill="#64DAFB" transform="translate(0,0)"/>
<path d="" fill="#64DAFB" transform="translate(0,0)"/>
<path d="" fill="#64DAFB" transform="translate(0,0)"/>
<path d="" fill="#64DAFB" transform="translate(0,0)"/>
<path d="" fill="#64DAFB" transform="translate(0,0)"/>
<path d="" fill="#64DAFB" transform="translate(0,0)"/>
<path d="" fill="#64DAFB" transform="translate(0,0)"/>
<path d="" fill="#64DAFB" transform="translate(0,0)"/>
<path d="" fill="#64DAFB" transform="translate(0,0)"/>
<path d="" fill="#64DAFB" transform="translate(0,0)"/>
<path d="" fill="#64DAFB" transform="translate(0,0)"/>
<path d="" fill="#64DAFB" transform="translate(0,0)"/>
<path d="" fill="#64DAFB" transform="translate(0,0)"/>
<path d="" fill="#64DAFB" transform="translate(0,0)"/>
<path d="" fill="#64DAFB" transform="translate(0,0)"/>
<path d="" fill="#64DAFB" transform="translate(0,0)"/>
<path d="" fill="#64DAFB" transform="translate(0,0)"/>
<path d="" fill="#64DAFB" transform="translate(0,0)"/>
<path d="" fill="#64DAFB" transform="translate(0,0)"/>
<path d="" fill="#64DAFB" transform="translate(0,0)"/>
<path d="" fill="#64DAFB" transform="translate(0,0)"/>
<path d="" fill="#64DAFB" transform="translate(0,0)"/>
<path d="" fill="#64DAFB" transform="translate(0,0)"/>
<path d="" fill="#64DAFB" transform="translate(0,0)"/>
<path d="" fill="#64DAFB" transform="translate(0,0)"/>
<path d="" fill="#64DAFB" transform="translate(0,0)"/>
<path d="" fill="#64DAFB" transform="translate(0,0)"/>
<path d="" fill="#64DAFB" transform="translate(0,0)"/>
<path d="" fill="#64DAFB" transform="translate(0,0)"/>
<path d="" fill="#64DAFB" transform="translate(0,0)"/>
<path d="" fill="#64DAFB" transform="translate(0,0)"/>
<path d="" fill="#64DAFB" transform="translate(0,0)"/>
<path d="" fill="#64DAFB" transform="translate(0,0)"/>
<path d="" fill="#64DAFB" transform="translate(0,0)"/>
<path d="" fill="#64DAFB" transform="translate(0,0)"/>
<path d="" fill="#64DAFB" transform="translate(0,0)"/>
<path d="" fill="#64DAFB" transform="translate(0,0)"/>
<path d="" fill="#64DAFB" transform="translate(0,0)"/>
<path d="" fill="#64DAFB" transform="translate(0,0)"/>
<path d="" fill="#64DAFB" transform="translate(0,0)"/>
<path d="" fill="#64DAFB" transform="translate(0,0)"/>
<path d="" fill="#64DAFB" transform="translate(0,0)"/>
<path d="" fill="#64DAFB" transform="translate(0,0)"/>
<path d="" fill="#64DAFB" transform="translate(0,0)"/>
<path d="" fill="#64DAFB" transform="translate(0,0)"/>
<path d="" fill="#64DAFB" transform="translate(0,0)"/>
<path d="" fill="#64DAFB" transform="translate(0,0)"/>
<path d="" fill="#64DAFB" transform="translate(0,0)"/>
<path d="" fill="#64DAFB" transform="translate(0,0)"/>
<path d="" fill="#64DAFB" transform="translate(0,0)"/>
<path d="" fill="#64DAFB" transform="translate(0,0)"/>
<path d="" fill="#64DAFB" transform="translate(0,0)"/>
<path d="" fill="#64DAFB" transform="translate(0,0)"/>
<path d="" fill="#64DAFB" transform="translate(0,0)"/>
<path d="" fill="#64DAFB" transform="translate(0,0)"/>
<path d="" fill="#64DAFB" transform="translate(0,0)"/>
<path d="" fill="#64DAFB" transform="translate(0,0)"/>
<path d="" fill="#64DAFB" transform="translate(0,0)"/>
<path d="" fill="#64DAFB" transform="translate(0,0)"/>
<path d="" fill="#64DAFB" transform="translate(0,0)"/>
<path d="" fill="#64DAFB" transform="translate(0,0)"/>
<path d="" fill="#64DAFB" transform="translate(0,0)"/>
<path d="" fill="#64DAFB" transform="translate(0,0)"/>
<path d="" fill="#64DAFB" transform="translate(0,0)"/>
<path d="" fill="#64DAFB" transform="translate(0,0)"/>
<path d="" fill="#64DAFB" transform="translate(0,0)"/>
<path d="" fill="#64DAFB" transform="translate(0,0)"/>
<path d="" fill="#64DAFB" transform="translate(0,0)"/>
<path d="" fill="#64DAFB" transform="translate(0,0)"/>
<path d="" fill="#64DAFB" transform="translate(0,0)"/>
<path d="" fill="#64DAFB" transform="translate(0,0)"/>
<path d="" fill="#64DAFB" transform="translate(0,0)"/>
<path d="" fill="#64DAFB" transform="translate(0,0)"/>
<path d="" fill="#64DAFB" transform="translate(0,0)"/>
<path d="" fill="#64DAFB" transform="translate(0,0)"/>
<path d="" fill="#64DAFB" transform="translate(0,0)"/>
<path d="" fill="#64DAFB" transform="translate(0,0)"/>
<path d="" fill="#64DAFB" transform="translate(0,0)"/>
<path d="" fill="#64DAFB" transform="translate(0,0)"/>
<path d="" fill="#64DAFB" transform="translate(0,0)"/>
<path d="" fill="#64DAFB" transform="translate(0,0)"/>
<path d="" fill="#64DAFB" transform="translate(0,0)"/>
<path d="" fill="#64DAFB" transform="translate(0,0)"/>
<path d="" fill="#64DAFB" transform="translate(0,0)"/>
<path d="" fill="#64DAFB" transform="translate(0,0)"/>
<path d="" fill="#64DAFB" transform="translate(0,0)"/>
<path d="" fill="#64DAFB" transform="translate(0,0)"/>
<path d="" fill="#64DAFB" transform="translate(0,0)"/>
<path d="" fill="#64DAFB" transform="translate(0,0)"/>
<path d="" fill="#64DAFB" transform="translate(0,0)"/>
<path d="" fill="#64DAFB" transform="translate(0,0)"/>
<path d="" fill="#64DAFB" transform="translate(0,0)"/>
<path d="" fill="#64DAFB" transform="translate(0,0)"/>
<path d="" fill="#64DAFB" transform="translate(0,0)"/>
<path d="" fill="#64DAFB" transform="translate(0,0)"/>
<path d="" fill="#64DAFB" transform="translate(0,0)"/>
<path d="" fill="#64DAFB" transform="translate(0,0)"/>
<path d="" fill="#64DAFB" transform="translate(0,0)"/>
<path d="" fill="#64DAFB" transform="translate(0,0)"/>
<path d="" fill="#64DAFB" transform="translate(0,0)"/>
<path d="" fill="#64DAFB" transform="translate(0,0)"/>
<path d="" fill="#64DAFB" transform="translate(0,0)"/>
<path d="" fill="#64DAFB" transform="translate(0,0)"/>
<path d="" fill="#64DAFB" transform="translate(0,0)"/>
<path d="" fill="#64DAFB" transform="translate(0,0)"/>
<path d="" fill="#64DAFB" transform="translate(0,0)"/>
<path d="" fill="#64DAFB" transform="translate(0,0)"/>
<path d="" fill="#64DAFB" transform="translate(0,0)"/>
<path d="" fill="#64DAFB" transform="translate(0,0)"/>
<path d="" fill="#64DAFB" transform="translate(0,0)"/>
<path d="" fill="#64DAFB" transform="translate(0,0)"/>
<path d="" fill="#64DAFB" transform="translate(0,0)"/>
<path d="" fill="#64DAFB" transform="translate(0,0)"/>
<path d="" fill="#64DAFB" transform="translate(0,0)"/>
<path d="" fill="#64DAFB" transform="translate(0,0)"/>
<path d="" fill="#64DAFB" transform="translate(0,0)"/>
<path d="" fill="#64DAFB" transform="translate(0,0)"/>
<path d="" fill="#64DAFB" transform="translate(0,0)"/>
<path d="" fill="#64DAFB" transform="translate(0,0)"/>
<path d="" fill="#64DAFB" transform="translate(0,0)"/>
<path d="" fill="#64DAFB" transform="translate(0,0)"/>
<path d="" fill="#64DAFB" transform="translate(0,0)"/>
<path d="" fill="#64DAFB" transform="translate(0,0)"/>
<path d="" fill="#64DAFB" transform="translate(0,0)"/>
<path d="" fill="#64DAFB" transform="translate(0,0)"/>
<path d="" fill="#64DAFB" transform="translate(0,0)"/>
<path d="" fill="#64DAFB" transform="translate(0,0)"/>
<path d="" fill="#64DAFB" transform="translate(0,0)"/>
<path d="" fill="#64DAFB" transform="translate(0,0)"/>
<path d="" fill="#64DAFB" transform="translate(0,0)"/>
<path d="" fill="#64DAFB" transform="translate(0,0)"/>
<path d="" fill="#64DAFB" transform="translate(0,0)"/>
<path d="" fill="#64DAFB" transform="translate(0,0)"/>
<path d="" fill="#64DAFB" transform="translate(0,0)"/>
<path d="" fill="#64DAFB" transform="translate(0,0)"/>
<path d="" fill="#64DAFB" transform="translate(0,0)"/>
<path d="" fill="#64DAFB" transform="translate(0,0)"/>
<path d="" fill="#64DAFB" transform="translate(0,0)"/>
<path d="" fill="#64DAFB" transform="translate(0,0)"/>
<path d="" fill="#64DAFB" transform="translate(0,0)"/>
<path d="" fill="#64DAFB" transform="translate(0,0)"/>
<path d="" fill="#64DAFB" transform="translate(0,0)"/>
<path d="" fill="#64DAFB" transform="translate(0,0)"/>
<path d="" fill="#64DAFB" transform="translate(0,0)"/>
<path d="" fill="#64DAFB" transform="translate(0,0)"/>
<path d="" fill="#64DAFB" transform="translate(0,0)"/>
<path d="" fill="#64DAFB" transform="translate(0,0)"/>
<path d="" fill="#64DAFB" transform="translate(0,0)"/>
<path d="" fill="#64DAFB" transform="translate(0,0)"/>
<path d="" fill="#64DAFB" transform="translate(0,0)"/>
<path d="" fill="#64DAFB" transform="translate(0,0)"/>
<path d="" fill="#64DAFB" transform="translate(0,0)"/>
<path d="" fill="#64DAFB" transform="translate(0,0)"/>
<path d="" fill="#64DAFB" transform="translate(0,0)"/>
<path d="" fill="#64DAFB" transform="translate(0,0)"/>
<path d="" fill="#64DAFB" transform="translate(0,0)"/>
<path d="" fill="#64DAFB" transform="translate(0,0)"/>
<path d="" fill="#64DAFB" transform="translate(0,0)"/>
<path d="" fill="#64DAFB" transform="translate(0,0)"/>
<path d="" fill="#64DAFB" transform="translate(0,0)"/>
<path d="" fill="#64DAFB" transform="translate(0,0)"/>
<path d="" fill="#64DAFB" transform="translate(0,0)"/>
<path d="" fill="#64DAFB" transform="translate(0,0)"/>
<path d="" fill="#64DAFB" transform="translate(0,0)"/>
<path d="" fill="#64DAFB" transform="translate(0,0)"/>
<path d="" fill="#64DAFB" transform="translate(0,0)"/>
<path d="" fill="#64DAFB" transform="translate(0,0)"/>
<path d="" fill="#64DAFB" transform="translate(0,0)"/>
<path d="" fill="#64DAFB" transform="translate(0,0)"/>
<path d="" fill="#64DAFB" transform="translate(0,0)"/>
<path d="" fill="#64DAFB" transform="translate(0,0)"/>
<path d="" fill="#64DAFB" transform="translate(0,0)"/>
<path d="" fill="#64DAFB" transform="translate(0,0)"/>
<path d="" fill="#64DAFB" transform="translate(0,0)"/>
<path d="" fill="#64DAFB" transform="translate(0,0)"/>
<path d="" fill="#64DAFB" transform="translate(0,0)"/>
<path d="" fill="#64DAFB" transform="translate(0,0)"/>
<path d="" fill="#64DAFB" transform="translate(0,0)"/>
<path d="" fill="#64DAFB" transform="translate(0,0)"/>
<path d="" fill="#64DAFB" transform="translate(0,0)"/>
<path d="" fill="#64DAFB" transform="translate(0,0)"/>
<path d="" fill="#64DAFB" transform="translate(0,0)"/>
<path d="" fill="#64DAFB" transform="translate(0,0)"/>
<path d="" fill="#64DAFB" transform="translate(0,0)"/>
<path d="" fill="#64DAFB" transform="translate(0,0)"/>
<path d="" fill="#64DAFB" transform="translate(0,0)"/>
<path d="" fill="#64DAFB" transform="translate(0,0)"/>
<path d="" fill="#64DAFB" transform="translate(0,0)"/>
<path d="" fill="#64DAFB" transform="translate(0,0)"/>
<path d="" fill="#64DAFB" transform="translate(0,0)"/>
<path d="" fill="#64DAFB" transform="translate(0,0)"/>
<path d="" fill="#64DAFB" transform="translate(0,0)"/>
<path d="" fill="#64DAFB" transform="translate(0,0)"/>
<path d="" fill="#64DAFB" transform="translate(0,0)"/>
<path d="" fill="#64DAFB" transform="translate(0,0)"/>
<path d="" fill="#64DAFB" transform="translate(0,0)"/>
<path d="" fill="#64DAFB" transform="translate(0,0)"/>
<path d="" fill="#64DAFB" transform="translate(0,0)"/>
<path d="" fill="#64DAFB" transform="translate(0,0)"/>
<path d="" fill="#64DAFB" transform="translate(0,0)"/>
<path d="" fill="#64DAFB" transform="translate(0,0)"/>
<path d="" fill="#64DAFB" transform="translate(0,0)"/>
<path d="" fill="#64DAFB" transform="translate(0,0)"/>
<path d="" fill="#64DAFB" transform="translate(0,0)"/>
<path d="" fill="#64DAFB" transform="translate(0,0)"/>
<path d="" fill="#64DAFB" transform="translate(0,0)"/>
<path d="" fill="#64DAFB" transform="translate(0,0)"/>
<path d="" fill="#64DAFB" transform="translate(0,0)"/>
<path d="" fill="#64DAFB" transform="translate(0,0)"/>
<path d="" fill="#64DAFB" transform="translate(0,0)"/>
<path d="" fill="#64DAFB" transform="translate(0,0)"/>
<path d="" fill="#64DAFB" transform="translate(0,0)"/>
<path d="" fill="#64DAFB" transform="translate(0,0)"/>
<path d="" fill="#64DAFB" transform="translate(0,0)"/>
<path d="" fill="#64DAFB" transform="translate(0,0)"/>
<path d="" fill="#64DAFB" transform="translate(0,0)"/>
<path d="" fill="#64DAFB" transform="translate(0,0)"/>
<path d="" fill="#64DAFB" transform="translate(0,0)"/>
<path d="" fill="#64DAFB" transform="translate(0,0)"/>
<path d="" fill="#64DAFB" transform="translate(0,0)"/>
<path d="" fill="#64DAFB" transform="translate(0,0)"/>
<path d="" fill="#64DAFB" transform="translate(0,0)"/>
<path d="" fill="#64DAFB" transform="translate(0,0)"/>
<path d="" fill="#64DAFB" transform="translate(0,0)"/>
<path d="" fill="#64DAFB" transform="translate(0,0)"/>
<path d="" fill="#64DAFB" transform="translate(0,0)"/>
<path d="" fill="#64DAFB" transform="translate(0,0)"/>
<path d="" fill="#64DAFB" transform="translate(0,0)"/>
<path d="" fill="#64DAFB" transform="translate(0,0)"/>
<path d="" fill="#64DAFB" transform="translate(0,0)"/>
<path d="" fill="#64DAFB" transform="translate(0,0)"/>
<path d="" fill="#64DAFB" transform="translate(0,0)"/>
<path d="" fill="#64DAFB" transform="translate(0,0)"/>
<path d="" fill="#64DAFB" transform="translate(0,0)"/>
<path d="" fill="#64DAFB" transform="translate(0,0)"/>
<path d="" fill="#64DAFB" transform="translate(0,0)"/>
<path d="" fill="#64DAFB" transform="translate(0,0)"/>
<path d="" fill="#64DAFB" transform="translate(0,0)"/>
<path d="" fill="#64DAFB" transform="translate(0,0)"/>
<path d="" fill="#64DAFB" transform="translate(0,0)"/>
<path d="" fill="#64DAFB" transform="translate(0,0)"/>
<path d="" fill="#64DAFB" transform="translate(0,0)"/>
<path d="" fill="#64DAFB" transform="translate(0,0)"/>
<path d="" fill="#64DAFB" transform="translate(0,0)"/>
<path d="" fill="#64DAFB" transform="translate(0,0)"/>
<path d="" fill="#64DAFB" transform="translate(0,0)"/>
<path d="" fill="#64DAFB" transform="translate(0,0)"/>
<path d="" fill="#64DAFB" transform="translate(0,0)"/>
<path d="" fill="#64DAFB" transform="translate(0,0)"/>
<path d="" fill="#64DAFB" transform="translate(0,0)"/>
<path d="" fill="#64DAFB" transform="translate(0,0)"/>
<path d="" fill="#64DAFB" transform="translate(0,0)"/>
<path d="" fill="#64DAFB" transform="translate(0,0)"/>
<path d="" fill="#64DAFB" transform="translate(0,0)"/>
<path d="" fill="#64DAFB" transform="translate(0,0)"/>
<path d="" fill="#64DAFB" transform="translate(0,0)"/>
<path d="" fill="#64DAFB" transform="translate(0,0)"/>
<path d="" fill="#64DAFB" transform="translate(0,0)"/>
<path d="" fill="#64DAFB" transform="translate(0,0)"/>
<path d="" fill="#64DAFB" transform="translate(0,0)"/>
<path d="" fill="#64DAFB" transform="translate(0,0)"/>
<path d="" fill="#64DAFB" transform="translate(0,0)"/>
<path d="" fill="#64DAFB" transform="translate(0,0)"/>
<path d="" fill="#64DAFB" transform="translate(0,0)"/>
<path d="" fill="#64DAFB" transform="translate(0,0)"/>
<path d="" fill="#64DAFB" transform="translate(0,0)"/>
<path d="" fill="#64DAFB" transform="translate(0,0)"/>
<path d="" fill="#64DAFB" transform="translate(0,0)"/>
<path d="" fill="#64DAFB" transform="translate(0,0)"/>
<path d="" fill="#64DAFB" transform="translate(0,0)"/>
<path d="" fill="#64DAFB" transform="translate(0,0)"/>
<path d="" fill="#64DAFB" transform="translate(0,0)"/>
<path d="" fill="#64DAFB" transform="translate(0,0)"/>
<path d="" fill="#64DAFB" transform="translate(0,0)"/>
<path d="" fill="#64DAFB" transform="translate(0,0)"/>
<path d="" fill="#64DAFB" transform="translate(0,0)"/>
<path d="" fill="#64DAFB" transform="translate(0,0)"/>
<path d="" fill="#64DAFB" transform="translate(0,0)"/>
<path d="" fill="#64DAFB" transform="translate(0,0)"/>
<path d="" fill="#64DAFB" transform="translate(0,0)"/>
<path d="" fill="#64DAFB" transform="translate(0,0)"/>
<path d="" fill="#64DAFB" transform="translate(0,0)"/>
<path d="" fill="#64DAFB" transform="translate(0,0)"/>
<path d="" fill="#64DAFB" transform="translate(0,0)"/>
<path d="" fill="#64DAFB" transform="translate(0,0)"/>
<path d="" fill="#64DAFB" transform="translate(0,0)"/>
<path d="" fill="#64DAFB" transform="translate(0,0)"/>
<path d="" fill="#64DAFB" transform="translate(0,0)"/>
<path d="" fill="#64DAFB" transform="translate(0,0)"/>
<path d="" fill="#64DAFB" transform="translate(0,0)"/>
<path d="" fill="#64DAFB" transform="translate(0,0)"/>
<path d="" fill="#64DAFB" transform="translate(0,0)"/>
<path d="" fill="#64DAFB" transform="translate(0,0)"/>
<path d="" fill="#64DAFB" transform="translate(0,0)"/>
<path d="" fill="#64DAFB" transform="translate(0,0)"/>
<path d="" fill="#64DAFB" transform="translate(0,0)"/>
<path d="" fill="#64DAFB" transform="translate(0,0)"/>
<path d="" fill="#64DAFB" transform="translate(0,0)"/>
<path d="" fill="#64DAFB" transform="translate(0,0)"/>
<path d="" fill="#64DAFB" transform="translate(0,0)"/>
<path d="" fill="#64DAFB" transform="translate(0,0)"/>
<path d="" fill="#64DAFB" transform="translate(0,0)"/>
<path d="" fill="#64DAFB" transform="translate(0,0)"/>
<path d="" fill="#64DAFB" transform="translate(0,0)"/>
<path d="" fill="#64DAFB" transform="translate(0,0)"/>
<path d="" fill="#64DAFB" transform="translate(0,0)"/>
<path d="" fill="#64DAFB" transform="translate(0,0)"/>
<path d="" fill="#64DAFB" transform="translate(0,0)"/>
<path d="" fill="#64DAFB" transform="translate(0,0)"/>
<path d="" fill="#64DAFB" transform="translate(0,0)"/>
<path d="" fill="#64DAFB" transform="translate(0,0)"/>
<path d="" fill="#64DAFB" transform="translate(0,0)"/>
<path d="" fill="#64DAFB" transform="translate(0,0)"/>
<path d="" fill="#64DAFB" transform="translate(0,0)"/>
<path d="" fill="#64DAFB" transform="translate(0,0)"/>
<path d="" fill="#64DAFB" transform="translate(0,0)"/>
<path d="" fill="#64DAFB" transform="translate(0,0)"/>
<path d="" fill="#64DAFB" transform="translate(0,0)"/>
<path d="" fill="#64DAFB" transform="translate(0,0)"/>
<path d="" fill="#64DAFB" transform="translate(0,0)"/>
<path d="" fill="#64DAFB" transform="translate(0,0)"/>
<path d="" fill="#64DAFB" transform="translate(0,0)"/>
<path d="" fill="#64DAFB" transform="translate(0,0)"/>
<path d="" fill="#64DAFB" transform="translate(0,0)"/>
<path d="" fill="#64DAFB" transform="translate(0,0)"/>
<path d="" fill="#64DAFB" transform="translate(0,0)"/>
<path d="" fill="#64DAFB" transform="translate(0,0)"/>
<path d="" fill="#64DAFB" transform="translate(0,0)"/>
<path d="" fill="#64DAFB" transform="translate(0,0)"/>
<path d="" fill="#64DAFB" transform="translate(0,0)"/>
<path d="" fill="#64DAFB" transform="translate(0,0)"/>
<path d="" fill="#64DAFB" transform="translate(0,0)"/>
<path d="" fill="#64DAFB" transform="translate(0,0)"/>
<path d="" fill="#64DAFB" transform="translate(0,0)"/>
<path d="" fill="#64DAFB" transform="translate(0,0)"/>
<path d="" fill="#64DAFB" transform="translate(0,0)"/>
<path d="" fill="#64DAFB" transform="translate(0,0)"/>
<path d="" fill="#64DAFB" transform="translate(0,0)"/>
<path d="" fill="#64DAFB" transform="translate(0,0)"/>
<path d="" fill="#64DAFB" transform="translate(0,0)"/>
<path d="" fill="#64DAFB" transform="translate(0,0)"/>
<path d="" fill="#64DAFB" transform="translate(0,0)"/>
<path d="" fill="#64DAFB" transform="translate(0,0)"/>
<path d="" fill="#64DAFB" transform="translate(0,0)"/>
<path d="" fill="#64DAFB" transform="translate(0,0)"/>
<path d="" fill="#64DAFB" transform="translate(0,0)"/>
<path d="" fill="#64DAFB" transform="translate(0,0)"/>
<path d="" fill="#64DAFB" transform="translate(0,0)"/>
<path d="" fill="#64DAFB" transform="translate(0,0)"/>
<path d="" fill="#64DAFB" transform="translate(0,0)"/>
<path d="" fill="#64DAFB" transform="translate(0,0)"/>
<path d="" fill="#64DAFB" transform="translate(0,0)"/>
<path d="" fill="#64DAFB" transform="translate(0,0)"/>
<path d="" fill="#64DAFB" transform="translate(0,0)"/>
<path d="" fill="#64DAFB" transform="translate(0,0)"/>
<path d="" fill="#64DAFB" transform="translate(0,0)"/>
<path d="" fill="#64DAFB" transform="translate(0,0)"/>
<path d="" fill="#64DAFB" transform="translate(0,0)"/>
<path d="" fill="#64DAFB" transform="translate(0,0)"/>
<path d="" fill="#64DAFB" transform="translate(0,0)"/>
<path d="" fill="#64DAFB" transform="translate(0,0)"/>
<path d="" fill="#64DAFB" transform="translate(0,0)"/>
<path d="" fill="#64DAFB" transform="translate(0,0)"/>
<path d="" fill="#64DAFB" transform="translate(0,0)"/>
<path d="" fill="#64DAFB" transform="translate(0,0)"/>
<path d="" fill="#64DAFB" transform="translate(0,0)"/>
<path d="" fill="#64DAFB" transform="translate(0,0)"/>
<path d="" fill="#64DAFB" transform="translate(0,0)"/>
<path d="" fill="#64DAFB" transform="translate(0,0)"/>
<path d="" fill="#64DAFB" transform="translate(0,0)"/>
<path d="" fill="#64DAFB" transform="translate(0,0)"/>
<path d="" fill="#64DAFB" transform="translate(0,0)"/>
<path d="" fill="#64DAFB" transform="translate(0,0)"/>
<path d="" fill="#64DAFB" transform="translate(0,0)"/>
<path d="" fill="#64DAFB" transform="translate(0,0)"/>
<path d="" fill="#64DAFB" transform="translate(0,0)"/>
<path d="" fill="#64DAFB" transform="translate(0,0)"/>
<path d="" fill="#64DAFB" transform="translate(0,0)"/>
<path d="" fill="#64DAFB" transform="translate(0,0)"/>
<path d="" fill="#64DAFB" transform="translate(0,0)"/>
<path d="" fill="#64DAFB" transform="translate(0,0)"/>
<path d="" fill="#64DAFB" transform="translate(0,0)"/>
<path d="" fill="#64DAFB" transform="translate(0,0)"/>
<path d="" fill="#64DAFB" transform="translate(0,0)"/>
<path d="" fill="#64DAFB" transform="translate(0,0)"/>
<path d="" fill="#64DAFB" transform="translate(0,0)"/>
<path d="" fill="#64DAFB" transform="translate(0,0)"/>
<path d="" fill="#64DAFB" transform="translate(0,0)"/>
<path d="" fill="#64DAFB" transform="translate(0,0)"/>
<path d="" fill="#64DAFB" transform="translate(0,0)"/>
<path d="" fill="#64DAFB" transform="translate(0,0)"/>
<path d="" fill="#64DAFB" transform="translate(0,0)"/>
<path d="" fill="#64DAFB" transform="translate(0,0)"/>
<path d="" fill="#64DAFB" transform="translate(0,0)"/>
<path d="" fill="#64DAFB" transform="translate(0,0)"/>
<path d="" fill="#64DAFB" transform="translate(0,0)"/>
<path d="" fill="#64DAFB" transform="translate(0,0)"/>
<path d="" fill="#64DAFB" transform="translate(0,0)"/>
<path d="" fill="#64DAFB" transform="translate(0,0)"/>
<path d="" fill="#64DAFB" transform="translate(0,0)"/>
<path d="" fill="#64DAFB" transform="translate(0,0)"/>
<path d="" fill="#64DAFB" transform="translate(0,0)"/>
<path d="" fill="#64DAFB" transform="translate(0,0)"/>
<path d="" fill="#64DAFB" transform="translate(0,0)"/>
<path d="" fill="#64DAFB" transform="translate(0,0)"/>
<path d="" fill="#64DAFB" transform="translate(0,0)"/>
<path d="" fill="#64DAFB" transform="translate(0,0)"/>
<path d="" fill="#64DAFB" transform="translate(0,0)"/>
<path d="" fill="#64DAFB" transform="translate(0,0)"/>
<path d="" fill="#64DAFB" transform="translate(0,0)"/>
<path d="" fill="#64DAFB" transform="translate(0,0)"/>
<path d="" fill="#64DAFB" transform="translate(0,0)"/>
<path d="" fill="#64DAFB" transform="translate(0,0)"/>
<path d="" fill="#64DAFB" transform="translate(0,0)"/>
<path d="" fill="#64DAFB" transform="translate(0,0)"/>
<path d="" fill="#64DAFB" transform="translate(0,0)"/>
<path d="" fill="#64DAFB" transform="translate(0,0)"/>
<path d="" fill="#64DAFB" transform="translate(0,0)"/>
<path d="" fill="#64DAFB" transform="translate(0,0)"/>
<path d="" fill="#64DAFB" transform="translate(0,0)"/>
<path d="" fill="#64DAFB" transform="translate(0,0)"/>
<path d="" fill="#64DAFB" transform="translate(0,0)"/>
<path d="" fill="#64DAFB" transform="translate(0,0)"/>
<path d="" fill="#64DAFB" transform="translate(0,0)"/>
<path d="" fill="#64DAFB" transform="translate(0,0)"/>
<path d="" fill="#64DAFB" transform="translate(0,0)"/>
<path d="" fill="#64DAFB" transform="translate(0,0)"/>
<path d="" fill="#64DAFB" transform="translate(0,0)"/>
<path d="" fill="#64DAFB" transform="translate(0,0)"/>
<path d="" fill="#64DAFB" transform="translate(0,0)"/>
<path d="" fill="#64DAFB" transform="translate(0,0)"/>
<path d="" fill="#64DAFB" transform="translate(0,0)"/>
<path d="" fill="#64DAFB" transform="translate(0,0)"/>
<path d="" fill="#64DAFB" transform="translate(0,0)"/>
<path d="" fill="#64DAFB" transform="translate(0,0)"/>
<path d="" fill="#64DAFB" transform="translate(0,0)"/>
<path d="" fill="#64DAFB" transform="translate(0,0)"/>
<path d="" fill="#64DAFB" transform="translate(0,0)"/>
<path d="" fill="#64DAFB" transform="translate(0,0)"/>
<path d="" fill="#64DAFB" transform="translate(0,0)"/>
<path d="" fill="#64DAFB" transform="translate(0,0)"/>
<path d="" fill="#64DAFB" transform="translate(0,0)"/>
<path d="" fill="#64DAFB" transform="translate(0,0)"/>
<path d="" fill="#64DAFB" transform="translate(0,0)"/>
<path d="" fill="#64DAFB" transform="translate(0,0)"/>
<path d="" fill="#64DAFB" transform="translate(0,0)"/>
<path d="" fill="#64DAFB" transform="translate(0,0)"/>
<path d="" fill="#64DAFB" transform="translate(0,0)"/>
<path d="" fill="#64DAFB" transform="translate(0,0)"/>
<path d="" fill="#64DAFB" transform="translate(0,0)"/>
<path d="" fill="#64DAFB" transform="translate(0,0)"/>
<path d="" fill="#64DAFB" transform="translate(0,0)"/>
<path d="" fill="#64DAFB" transform="translate(0,0)"/>
<path d="" fill="#64DAFB" transform="translate(0,0)"/>
<path d="" fill="#64DAFB" transform="translate(0,0)"/>
<path d="" fill="#64DAFB" transform="translate(0,0)"/>
<path d="" fill="#64DAFB" transform="translate(0,0)"/>
<path d="" fill="#64DAFB" transform="translate(0,0)"/>
<path d="" fill="#64DAFB" transform="translate(0,0)"/>
<path d="" fill="#64DAFB" transform="translate(0,0)"/>
<path d="" fill="#64DAFB" transform="translate(0,0)"/>
<path d="" fill="#64DAFB" transform="translate(0,0)"/>
<path d="" fill="#64DAFB" transform="translate(0,0)"/>
<path d="" fill="#64DAFB" transform="translate(0,0)"/>
<path d="" fill="#64DAFB" transform="translate(0,0)"/>
<path d="" fill="#64DAFB" transform="translate(0,0)"/>
<path d="" fill="#64DAFB" transform="translate(0,0)"/>
<path d="" fill="#64DAFB" transform="translate(0,0)"/>
<path d="" fill="#64DAFB" transform="translate(0,0)"/>
<path d="" fill="#64DAFB" transform="translate(0,0)"/>
<path d="" fill="#64DAFB" transform="translate(0,0)"/>
<path d="" fill="#64DAFB" transform="translate(0,0)"/>
<path d="" fill="#64DAFB" transform="translate(0,0)"/>
<path d="" fill="#64DAFB" transform="translate(0,0)"/>
<path d="" fill="#64DAFB" transform="translate(0,0)"/>
<path d="" fill="#64DAFB" transform="translate(0,0)"/>
<path d="" fill="#64DAFB" transform="translate(0,0)"/>
<path d="" fill="#64DAFB" transform="translate(0,0)"/>
<path d="" fill="#64DAFB" transform="translate(0,0)"/>
<path d="" fill="#64DAFB" transform="translate(0,0)"/>
<path d="" fill="#64DAFB" transform="translate(0,0)"/>
<path d="" fill="#64DAFB" transform="translate(0,0)"/>
<path d="" fill="#64DAFB" transform="translate(0,0)"/>
<path d="" fill="#64DAFB" transform="translate(0,0)"/>
<path d="" fill="#64DAFB" transform="translate(0,0)"/>
<path d="" fill="#64DAFB" transform="translate(0,0)"/>
<path d="" fill="#64DAFB" transform="translate(0,0)"/>
<path d="" fill="#64DAFB" transform="translate(0,0)"/>
<path d="" fill="#64DAFB" transform="translate(0,0)"/>
<path d="" fill="#64DAFB" transform="translate(0,0)"/>
<path d="" fill="#64DAFB" transform="translate(0,0)"/>
<path d="" fill="#64DAFB" transform="translate(0,0)"/>
<path d="" fill="#64DAFB" transform="translate(0,0)"/>
<path d="" fill="#64DAFB" transform="translate(0,0)"/>
<path d="" fill="#64DAFB" transform="translate(0,0)"/>
<path d="" fill="#64DAFB" transform="translate(0,0)"/>
<path d="" fill="#64DAFB" transform="translate(0,0)"/>
<path d="" fill="#64DAFB" transform="translate(0,0)"/>
<path d="" fill="#64DAFB" transform="translate(0,0)"/>
</svg>
